<?xml version="1.0" encoding="UTF-8" standalone="no"?>
<svg
	aria-hidden="true"
	role="img"
	focusable="false"
	class="dashicon
	dashicons-calendar-alt"
	xmlns="http://www.w3.org/2000/svg"
	width="20"
	height="20"
	viewBox="0 0 20 20"
>
	<path
		d="M 6.5 1.5 C 6.09 1.5 5.7294531 1.6494531 5.4394531 1.9394531 C 5.1494531 2.2394531 5 2.59 5 3 L 5 4 L 2 4 L 2 19 L 18 19 L 18 4 L 15 4 L 15 3 C 15 2.59 14.850547 2.2394531 14.560547 1.9394531 C 14.270547 1.6494531 13.91 1.5 13.5 1.5 C 13.09 1.5 12.729453 1.6494531 12.439453 1.9394531 C 12.149453 2.2394531 12 2.59 12 3 L 12 4 L 8 4 L 8 3 C 8 2.59 7.8505469 2.2394531 7.5605469 1.9394531 C 7.2705469 1.6494531 6.91 1.5 6.5 1.5 z M 6.5 2.5 C 6.64 2.5 6.7596094 2.5503906 6.8496094 2.6503906 C 6.9496094 2.7403906 7 2.86 7 3 L 7 5.5 C 7 5.64 6.9496094 5.759375 6.8496094 5.859375 C 6.7596094 5.949375 6.64 6 6.5 6 C 6.36 6 6.2403906 5.949375 6.1503906 5.859375 C 6.0503906 5.759375 6 5.64 6 5.5 L 6 3 C 6 2.86 6.0503906 2.7403906 6.1503906 2.6503906 C 6.2403906 2.5503906 6.36 2.5 6.5 2.5 z M 13.5 2.5 C 13.64 2.5 13.759375 2.5503906 13.859375 2.6503906 C 13.949375 2.7403906 14 2.86 14 3 L 14 5.5 C 14 5.64 13.949375 5.759375 13.859375 5.859375 C 13.759375 5.949375 13.64 6 13.5 6 C 13.36 6 13.240625 5.949375 13.140625 5.859375 C 13.050625 5.759375 13 5.64 13 5.5 L 13 3 C 13 2.86 13.050625 2.7403906 13.140625 2.6503906 C 13.240625 2.5503906 13.36 2.5 13.5 2.5 z M 3 8 L 17 8 L 17 18 L 3 18 L 3 8 z M 13.34375 9.7519531 L 9.6757812 13.419922 L 7.5546875 11.298828 L 6.140625 12.712891 L 8.2617188 14.833984 L 9.6757812 16.248047 L 11.089844 14.833984 L 14.757812 11.166016 L 13.34375 9.7519531 z "
	/>
</svg>
