<svg xmlns="http://www.w3.org/2000/svg" width="672" height="160">
    <path fill="#e0e0e0" d="M24 24h48v48H24z"/>
    <path fill="#fec006" d="M88 24h48v48H88z"/>
    <path fill="#88d658" d="M152 24h48v48h-48z"/>
    <path fill="#00a0d2" d="M216 24h48v48h-48zm64 0h48v48h-48zm64 0h48v48h-48zm64 0h48v48h-48zm64 0h48v48h-48zm64 0h48v48h-48z"/>
    <path fill="#333" d="M24 88h48v48H24z"/>
    <path fill="#00a0d2" d="M88 88h48v48H88z"/>
    <path fill="#d54e21" d="M152 88h48v48h-48z"/>
    <path fill="#00a0d2" d="M216 88h48v48h-48zm64 0h48v48h-48zm64 0h48v48h-48zm64 0h48v48h-48z"/>
    <path fill="#333" d="M472 88h48v48h-48z"/>
    <path fill="#999" d="M39.9 45.7a.7.7 0 0 0-.7.7v3.3a.7.7 0 0 0 .7.7h3.3a.7.7 0 0 0 .7-.7v-3.3a.7.7 0 0 0-.7-.7h-3.3zm6.5 0a.7.7 0 0 0-.7.7v3.3a.7.7 0 0 0 .7.7h3.3a.7.7 0 0 0 .7-.7v-3.3a.7.7 0 0 0-.7-.7h-3.3zm6.4 0a.7.7 0 0 0-.7.7v3.3a.7.7 0 0 0 .7.7h3.3a.7.7 0 0 0 .7-.7v-3.3a.7.7 0 0 0-.7-.7h-3.3z"/>
    <path fill="#fff" d="M235.3 52.4h3.1v-8.8l-3.2.7v-2.4l3.2-.7h3.3v11.2h3.1v2.4h-9.5v-2.4m67.2-.2h6v2.6h-9.9v-2.6l5-4.4c.4-.4.8-.8 1-1.2s.3-.8.3-1.2c0-.6-.2-1.2-.6-1.5-.4-.4-1-.6-1.7-.6-.5 0-1.1.1-1.8.4-.7.2-1.3.6-2.1 1v-3c.8-.3 1.6-.5 2.3-.6.8-.1 1.5-.2 2.3-.2 1.6 0 2.9.4 3.8 1.1s1.4 1.7 1.4 3c0 .7-.2 1.4-.6 2.1-.4.6-1.2 1.5-2.4 2.6l-2.9 2.6m67.2-4.8c.9.2 1.6.7 2.1 1.2.5.6.7 1.3.7 2.2 0 1.4-.5 2.4-1.6 3.1-1 .7-2.5 1-4.5 1-.7 0-1.4-.1-2.1-.2s-1.4-.3-2.1-.5v-2.7c.7.3 1.3.6 2 .7.7.2 1.3.2 1.9.2.9 0 1.6-.2 2.1-.5s.7-.8.7-1.4-.3-1.1-.8-1.4-1.3-.5-2.2-.5h-1.4v-2.3h1.5c.9 0 1.5-.1 2-.4.4-.3.6-.7.6-1.3 0-.5-.2-.9-.6-1.2s-1-.4-1.8-.4c-.6 0-1.1.1-1.7.2s-1.2.3-1.7.6v-2.6c.7-.2 1.4-.3 2.1-.4s1.4-.1 2-.1c1.8 0 3.1.3 4 .9s1.3 1.5 1.3 2.6c0 .8-.2 1.5-.6 2s-1 .9-1.9 1.1m62.2-3.3-3.8 5.7h3.8v-5.7m-.6-2.9h3.9v8.6h1.9v2.5h-1.9v2.5H432v-2.5h-6v-3l5.5-8.1m59.6 0h8.7v2.6h-5.9v2.1c.3-.1.5-.1.8-.2.3 0 .6-.1.8-.1 1.7 0 3 .4 3.9 1.2s1.4 2 1.4 3.5-.5 2.6-1.5 3.5c-1 .8-2.4 1.2-4.2 1.2-.8 0-1.5-.1-2.3-.2s-1.5-.4-2.3-.7v-2.8c.7.4 1.4.7 2.1 1 .7.2 1.3.3 1.9.3.9 0 1.5-.2 2-.6s.7-1 .7-1.7-.2-1.3-.7-1.7-1.2-.6-2-.6c-.5 0-1 .1-1.6.2s-1.2.3-1.8.6v-7.7m68.7 7c-.6 0-1.1.2-1.4.6s-.5 1-.5 1.8.2 1.4.5 1.8.8.6 1.4.6 1.1-.2 1.4-.6.5-1 .5-1.8-.2-1.4-.5-1.8-.8-.6-1.4-.6m4.3-6.5v2.5c-.6-.3-1.1-.5-1.6-.6s-1-.2-1.5-.2c-1 0-1.9.3-2.4.9-.6.6-.9 1.4-1 2.6.4-.3.8-.5 1.3-.7s1-.2 1.5-.2c1.4 0 2.5.4 3.4 1.2s1.3 1.9 1.3 3.2c0 1.5-.5 2.6-1.4 3.5-1 .9-2.2 1.3-3.8 1.3-1.8 0-3.1-.6-4.1-1.8s-1.5-2.9-1.5-5.1c0-2.3.6-4 1.7-5.3s2.7-1.9 4.7-1.9c.6 0 1.2 0 1.8.1s1.2.2 1.8.4m-397.6 68.8v3.5c0 .3.3.6.6.6h17.4c.3 0 .6-.3.6-.6v-3.5c0-.3-.3-.6-.6-.6h-17.3c-.3 0-.6.3-.6.6m-110.1-.6h-6.4v-6.4c0-.3-.3-.6-.6-.6h-3.5c-.3 0-.6.3-.6.6v6.4h-6.4c-.3 0-.6.3-.6.6v3.5c0 .3.3.6.6.6h6.4v6.4c0 .3.3.6.6.6h3.5c.3 0 .6-.3.6-.6v-6.4h6.4c.3 0 .6-.3.6-.6v-3.5c0-.3-.3-.6-.6-.6m62.9-5.3c-.2-.2-.6-.2-.8 0l-9 9-4.5-4.5c-.2-.2-.6-.2-.8 0l-2.5 2.5c-.2.2-.2.6 0 .8l7.3 7.3c.4.4.7.2.9 0l11.9-11.9c.2-.2.2-.6 0-.8l-2.5-2.5m114.7.9h10.3v2l-5.3 11.6h-3.4l5-11h-6.6v-2.6m69.3 7.5c-.7 0-1.2.2-1.5.5-.4.4-.5.9-.5 1.5 0 .7.2 1.2.5 1.5.4.4.9.5 1.5.5.7 0 1.1-.2 1.5-.5.3-.4.5-.9.5-1.5 0-.7-.2-1.2-.5-1.5-.3-.4-.8-.5-1.5-.5m-2.6-1.2c-.8-.2-1.5-.6-1.9-1.1s-.6-1.2-.6-1.9c0-1.1.4-2 1.3-2.6s2.1-.9 3.8-.9c1.6 0 2.9.3 3.8.9s1.3 1.5 1.3 2.6c0 .8-.2 1.4-.6 1.9s-1 .9-1.9 1.1c.9.3 1.6.7 2.1 1.2.5.6.7 1.3.7 2.2 0 1.4-.5 2.4-1.4 3.1s-2.2 1-4 1-3.1-.3-4-1-1.4-1.7-1.4-3.1c0-.9.2-1.6.7-2.2s1.2-1 2.1-1.2m.8-2.7c0 .5.1 1 .4 1.2.3.3.7.4 1.3.4.5 0 1-.1 1.3-.4s.4-.7.4-1.2-.1-1-.4-1.2c-.3-.3-.7-.4-1.3-.4s-1 .1-1.3.4-.4.7-.4 1.2m61.2 9.7V116c.6.3 1.1.5 1.6.6s1 .2 1.5.2c1 0 1.9-.3 2.4-.9.6-.6.9-1.4 1-2.6-.4.3-.9.5-1.3.7-.5.2-1 .2-1.5.2-1.4 0-2.5-.4-3.4-1.2s-1.3-1.9-1.3-3.2c0-1.5.5-2.6 1.4-3.5 1-.9 2.2-1.3 3.8-1.3 1.8 0 3.2.6 4.1 1.8 1 1.2 1.5 2.9 1.5 5.1 0 2.3-.6 4-1.7 5.3s-2.7 1.9-4.7 1.9c-.6 0-1.2 0-1.8-.1s-1.2-.2-1.7-.4m4.3-6.6c.6 0 1.1-.2 1.4-.6s.5-1 .5-1.8-.2-1.4-.5-1.8-.8-.6-1.4-.6-1.1.2-1.4.6-.5 1-.5 1.8.2 1.4.5 1.8.8.6 1.4.6m55 6.5V116c.6.3 1.1.5 1.6.6s1 .2 1.5.2c1 0 1.9-.3 2.4-.9.6-.6.9-1.4 1-2.6-.4.3-.9.5-1.3.7-.5.2-1 .2-1.5.2-1.4 0-2.5-.4-3.4-1.2s-1.3-1.9-1.3-3.2c0-1.5.5-2.6 1.4-3.5 1-.9 2.2-1.3 3.8-1.3 1.8 0 3.2.6 4.1 1.8 1 1.2 1.5 2.9 1.5 5.1 0 2.3-.6 4-1.7 5.3s-2.7 1.9-4.7 1.9c-.6 0-1.2 0-1.8-.1s-1.2-.2-1.7-.4m4.3-6.6c.6 0 1.1-.2 1.4-.6s.5-1 .5-1.8-.2-1.4-.5-1.8-.8-.6-1.4-.6-1.1.2-1.4.6-.5 1-.5 1.8.2 1.4.5 1.8.8.6 1.4.6m16-1.1h-3v-3c0-.2-.1-.3-.3-.3h-1.6c-.2 0-.3.1-.3.3v3h-3c-.2 0-.3.1-.3.3v1.6c0 .2.1.3.3.3h3v3c0 .2.1.3.3.3h1.6c.2 0 .3-.1.3-.3v-3h3c.2 0 .3-.1.3-.3v-1.6c0-.2-.1-.3-.3-.3m47.9 2.8-1.4 7 7.2-1.6 9.8-10c.4-.6.4-1.4 0-1.9l-3.7-3.6c-.6-.5-1.4-.5-2 0l-9.9 10.1m8.7-6.5 1.3 1.3-7 7.2-1.3-1.3 7-7.2m1.9 2 1.3 1.3-7 7.2-1.3-1.3 7-7.2"/>
    <path fill="#f2890a" d="M536 88h48v48h-48z"/>
    <circle fill="#fff" cx="553.4" cy="118.6" r="2.4"/>
    <path fill="#fff" d="M550.9 102.9v3c8.4 0 15.2 6.8 15.2 15.2h3c0-10.1-8.1-18.2-18.2-18.2"/>
    <path fill="#fff" d="M550.9 109v3c5 0 9.1 4.1 9.1 9.1h3c0-6.7-5.4-12.1-12.1-12.1"/>
    <path fill="#d54e21" d="M600.23 24h48v48h-48z"/>
    <path fill="#fff" d="m186 40.4-9.1 10.4-.8-1-2 2.3 2.9 3.3 11-12.7zm-7.2.1-9.1 10.3-3.9-4.4-2 2.3 6 6.7 11-12.6zm-75.3 8.213 1.984-2.25 3.911 4.406 9.118-10.331 1.984 2.25-11.044 12.676zm520.73-11.296-4.934 8.546-4.934 8.547h19.737l-4.935-8.547zm-1.095 4.454h1.874v4.598l-.232 2.507h-1.397l-.245-2.507zm0 8.494h1.874v1.987h-1.874z"/>
    <path fill="#f2890a" d="M600 88h48v48h-48z"/>
    <path fill="#fff" d="M624 103.703c.643 0 1.201.215 1.674.64.473.426.712.955.712 1.59 0 .634-.239 1.163-.712 1.59-.474.425-1.03.64-1.674.64a2.423 2.423 0 0 1-1.674-.64 2.054 2.054 0 0 1-.712-1.591c0-.634.24-1.163.712-1.589a2.416 2.416 0 0 1 1.674-.64zm-1.959 5.834h3.904v11.075h-3.902v-11.075Z"/>
</svg>
