<svg xmlns="http://www.w3.org/2000/svg" viewBox="0 0 609.4 515.6" height="550" width="650">
  <rect x="128.9" y="222.6" width="70.3" height="70.3" fill="#fe5621"/>
  <path d="" style="fill:#feb877;stroke-width:1px"/>
  <rect x="410.2" y="222.7" width="70.3" height="70.3" fill="#9b26af"/>
  <circle cx="445.3" cy="257.8" r="16.3" fill="#ff8af6"/>
  <rect x="410.2" y="316.4" width="70.3" height="70.3" fill="#e81d62"/>
  <rect width="24.8" height="70.3" x="410.2" y="316.4" fill="#f278a2"/>
  <rect width="24.9" height="70.3" x="455.6" y="316.4" fill="#c61451"/>
  <rect x="35.2" y="128.9" width="70.3" height="70.3" fill="#e81d62"/>
  <path d="m62.1 140.6c-11.9 0-25.2 10.5-25.2 23.4 0 12.9 13.2 23.4 25.2 23.4l43.4 0v-46.9l-43.4 0" fill="#ff98c5"/>
  <path d="m35.2 35.2h70.3V105.5H35.2V35.2" fill="#9b26af"/>
  <path d="m35.2 94.4v11.1h70.3l0-24.8L74.9 53.5Z" fill="#cb52e0"/>
  <path d="m36.6 105.5h68.8V92.8L75 65.7Z" fill="#ff8af6"/>
  <rect x="222.7" y="410.2" width="70.3" height="70.3" fill="#b3b3b3"/>
  <path d="m253.5 452.6c-7.1 0-12.8 5.7-12.8 12.8v15.1h34.2v-15.1c0-7.1-5.7-12.8-12.8-12.8-1.5 0.3-3 0.7-4.3 0.7-1.6-0.1-3-0.4-4.3-0.7z" fill="#fff"/>
  <rect x="128.9" y="35.2" width="70.3" height="70.3" fill="#2095f2"/>
  <path d="m129.2 66c-0.1 0-0.2 0-0.3 0v23.2c0.1 0 0.2 0 0.3 0h29.6c7.4 0 13.4-5.2 13.4-11.6 0-6.4-6-11.6-13.4-11.6l-29.6 0" fill="#4dc5ff"/>
  <path d="m129.2 51.4c-0.1 0-0.2 0-0.3 0v23.2c0.1 0 0.2 0 0.3 0h29.6c7.4 0 13.4-5.2 13.4-11.6 0-6.4-6-11.6-13.4-11.6l-29.6 0" fill="#4dc5ff"/>
  <path d="m129.2 66c-0.1 0-0.2 0-0.3 0v8.6c0.1 0 0.2 0 0.3 0h29.6c4.2 0 8-1.7 10.4-4.3-2.4-2.6-6.2-4.3-10.4-4.3l-29.6 0" fill="#abdbff"/>
  <rect x="316.4" y="35.2" width="70.3" height="70.3" fill="#fec006"/>
  <rect x="410.2" y="35.2" width="70.3" height="70.3" fill="#009587"/>
  <rect x="421.9" y="35.2" width="58.6" height="27.4" fill="#00cbb8"/>
  <rect x="421.9" y="78.1" width="58.6" height="27.4" fill="#00cbb8"/>
  <rect x="430.3" y="62.5" width="23.7" height="15.7" fill="#06ffed"/>
  <rect x="410.2" y="35.2" width="29.3" height="70.3" fill="#006e64"/>
  <rect x="222.7" y="35.2" width="70.3" height="70.3" fill="#8ac249"/>
  <rect x="503.9" y="35.2" width="70.3" height="70.3" fill="#fe5621"/>
  <rect x="515.6" y="35.2" width="58.6" height="27.4" fill="#fe8542"/>
  <rect x="524" y="62.5" width="23.7" height="15.7" fill="#feb877"/>
  <rect x="503.9" y="35.2" width="29.3" height="70.3" fill="#f83c01"/>
  <rect x="128.9" y="128.9" width="70.3" height="70.3" fill="#3e50b4"/>
  <rect x="152.2" y="156.2" width="23.7" height="15.7" fill="#a4ade0"/>
  <rect x="128.9" y="128.9" width="29.3" height="70.3" fill="#435be6"/>
  <rect x="169.9" y="128.9" width="29.3" height="70.3" fill="#6073e0"/>
  <rect x="222.7" y="128.9" width="70.3" height="70.3" fill="#9b26af"/>
  <rect x="249" y="128.9" width="17.6" height="70.3" fill="#ff8af6"/>
  <path d="m76.2 151.2c-8.7 0-15.7 5.7-15.7 12.8 0 7.1 7 12.8 15.7 12.8 2.1 0 24 0 29.3 0v-25.6c-4.6 0-27.2 0-29.3 0" fill="#c61451"/>
  <path d="m79 157.8h26.5v12.5H71.3l7.7-12.5" fill="#e81d62"/>
  <rect x="316.4" y="128.9" width="70.3" height="70.3" fill="#2095f2"/>
  <path d="m 140.54139,249.17804 11.47173,-13.34764 35.59472,30.53892 -11.47173,13.34764 -35.59472,-30.53892" fill="#feb877"/>
  <path d="m344.1 167.2h25.1v32h-52.8l27.7-32" fill="#4dc5ff"/>
  <rect x="354.5" y="128.9" width="32.2" height="70.3" fill="#abdbff"/>
  <rect x="410.2" y="128.9" width="70.3" height="70.3" fill="#8ac249"/>
  <rect x="410.2" y="128.9" width="29.3" height="70.3" fill="#c6ffa4"/>
  <path d="m474.6 128.9-35.2 35.2 35.2 35.1h5.8v-70.3h-5.8" fill="#a8eb5c"/>
  <rect x="503.9" y="128.9" width="70.3" height="70.3" fill="#fec006"/>
  <path d="m503.9 199.2h70.3v-30.7h-70.3z" fill="#ffdb6f"/>
  <path d="m503.9 199.2h31.6v-70.3h-31.6z" fill="#eba200"/>
  <rect x="35.2" y="222.6" width="70.3" height="70.3" fill="#009587"/>
  <rect x="35.2" y="222.6" width="26.4" height="70.3" fill="#00cbb8"/>
  <rect x="79.1" y="222.6" width="26.4" height="70.3" fill="#006e64"/>
  <path d="M35.2 228.5 70.3 263.6 105.5 228.5V222.6H35.2v5.8" fill="#06ffed"/>
  <rect x="222.7" y="222.7" width="70.3" height="70.3" fill="#e81d62"/>
  <circle rx="18.8" ry="18.8" cx="257.8" cy="257.8" fill="#f278a2"/>
  <circle rx="7.5" ry="7.5" cx="257.8" cy="257.8" fill="#9d0539"/>
  <rect x="316.4" y="222.7" width="70.3" height="70.3" fill="#3e50b4"/>
  <rect x="316.4" y="234.4" width="29.3" height="58.6" fill="#6073e0"/>
  <path d="m345.7 234.4v28.9c4.7 0 9.2-1.5 12.5-4.2 3.3-2.7 5.2-6.4 5.2-10.2 0-3.8-1.9-7.5-5.2-10.2-3.3-2.7-7.8-4.2-12.5-4.2" fill="#a4ade0"/>
  <rect x="503.9" y="222.6" width="70.3" height="70.3" fill="#2095f2"/>
  <path d="m533.2 234.4h-17.6v28.9h17.6c9.8 0 17.7-6.5 17.7-14.4 0-8-7.9-14.4-17.7-14.4" fill="#abdbff"/>
  <path d="M503.9 292.9H574.2L518.7 234.4H503.9Z" fill="#4dc5ff"/>
  <circle rx="18.8" ry="18.8" cx="445.3" cy="257.8" fill="#ff8af6"/>
  <path d="m452.1 256.3-8.8 8.8 27.9 27.8h9.3v-8.3l-28.4-28.3" fill="#cb52e0"/>
  <ellipse ry="7.5" rx="7.5" cx="445.3" cy="257.8" fill="#780f89"/>
  <rect x="128.9" y="222.6" width="29.3" height="70.3" fill="#fe8542"/>
  <rect x="169.9" y="222.6" width="29.3" height="70.3" fill="#fe835c"/>
  <rect x="128.9" y="316.4" width="70.3" height="70.3" fill="#fec825"/>
  <rect transform="rotate(-90)" x="-345.7" y="128.9" width="17.6" height="31.1" fill="#ffb511"/>
  <rect transform="rotate(-90)" x="-345.7" y="160.6" width="17.6" height="38.7" fill="#ffdb6f"/>
  <rect x="155.3" y="328.1" width="17.6" height="58.6" fill="#e79b00"/>
  <rect x="128.9" y="410.1" width="70.3" height="70.3" fill="#3e50b4"/>
  <rect x="503.9" y="316.4" width="70.3" height="70.3" fill="#3e50b4"/>
  <path d="m574.2 316.4-35.2 35.2c0 0 35.2 35.2 35.2 35.2v-70.3" fill="#a4ade0"/>
  <path d="m503.9 316.4v70.3c0 0 35.2-35.2 35.2-35.2l-35.2-35.2" fill="#6073e0"/>
  <rect x="35.2" y="410.2" width="70.3" height="70.3" fill="#9b26af"/>
  <path d="m70.3 462.4 35.2-52.3H35.2Z" fill="#cb52e0"/>
  <rect x="61.5" y="410.6" width="17.6" height="69.4" fill="#ff8af6"/>
  <rect x="35.2" y="316.4" width="70.3" height="70.3" fill="#8ac249"/>
  <path d="m105 356.9c0.1 0 0.2 0 0.3 0v-28.7c-0.1 0-0.2 0-0.3 0H68.3c-8 0-14.4 6.4-14.4 14.4 0 8 6.4 14.4 14.4 14.4l36.7 0" fill="#a8eb5c"/>
  <path d="m35.3 375c0.1 0 37 0 37 0 8 0 14.4-6.4 14.4-14.4 0-8-6.4-14.4-14.4-14.4l-37 0c-0.1 0 0 28.8 0 28.8z" fill="#a8eb5c"/>
  <path d="m54.4 346.2c1.6 6.2 7.2 10.7 13.9 10.7h17.8c-1.6-6.2-7.2-10.7-13.9-10.7H54.4" fill="#c6ffa4"/>
  <rect x="222.7" y="316" width="70.3" height="70.3" fill="#009587"/>
  <path d="m234.4 364.4c3.4 12.3 12.8 20.7 23.4 20.7 10.6 0 20.1-8.3 23.4-20.6L281.2 316h-46.9l0 48.5" fill="#006e64"/>
  <path d="m245 342.6c0 8.7 5.7 15.7 12.8 15.7 7.1 0 12.8-7 12.8-15.7 0-2.1 0-21.5 0-26.8h-25.7c0 4.6 0 24.7 0 26.8" fill="#00cbb8"/>
  <rect x="316.4" y="316.4" width="70.3" height="70.3" fill="#fe5621"/>
  <path d="m316.4 316.4v70.3l56.5 0-56.5-70.3" fill="#fe8542"/>
  <ellipse ry="9.3" rx="9.3" cx="257.8" cy="441" fill="#fff"/>
  <path d="m354.5 46.6c7.6 0 14.9 2.5 20.2 7 5.4 4.5 8.4 10.5 8.4 16.8 0 13.1-12.8 23.8-28.6 23.8-3.8 0-19.1-0.6-22.6-1.9V48.5c3.5-1.2 18.8-1.9 22.6-1.9" fill="#ffdb6f"/>
  <path d="m345.2 57.6c4.1 0 8 1.4 10.9 3.8 2.9 2.4 4.5 5.7 4.5 9.1 0 7.1-6.9 12.8-15.4 12.8-2.1 0-4.1-0.3-6-1v-23.6c1.9-0.7 3.9-1 6-1" fill="#eba200"/>
  <rect x="316.4" y="35.1" width="27.6" height="70.3" fill="#ffb511"/>
  <rect x="266.6" y="128.9" width="26.4" height="70.3" fill="#cb52e0"/>
  <rect y="468.8" x="-46.9" height="46.9" width="46.9" fill="#0ff"/>
  <path d="M480.4 380.9 445.3 345.7 410.1 380.9v5.8h70.3v-5.8" fill="#ff98c5"/>
  <path d="M386.7 386.7H340.8l45.9-70.3z" fill="#feb877"/>
  <path d="m252.7 47.2c-6.4 0-12.5 2.5-17 6.9-4.5 4.4-7 10.4-7 16.6 0 12.9 10.7 23.4 24 23.4L293 94.1V47.2Z" fill="#a8eb5c"/>
  <path d="m270.1 57.5c-4.2 0-8.1 1.4-11.1 3.8-2.9 2.4-4.6 5.7-4.6 9.1 0 7.1 7 12.8 15.7 12.8 1.3 0 17.8 0 22.8 0V57.5c-5.2 0-21.5 0-22.8 0z" fill="#c6ffa4"/>
  <path d="m128.9 410.1h70.3v6.6l-22.2 22.7-48.1 0z" fill="#a4ade0"/>
  <path d="m190.3 410.1-49.7 52.3h25.4l33.2-34.7v-17.6h-8.9" fill="#435be6"/>
  <path d="m199.2 480.4h-70.3v-6.6l22.2-22.7 48.1 0z" fill="#6073e0"/>
  <circle cx="257.9" cy="257.9" r="16.3" fill="#ff98c5"/>
  <circle r="7.5" cx="257.9" cy="257.9" fill="#c61451"/>
</svg>
