<?xml version="1.0" encoding="UTF-8" standalone="no"?>
<svg width="1248" height="352" version="1.1" viewBox="0 0 1248 352" xml:space="preserve" id="svg418"
	xmlns="http://www.w3.org/2000/svg" xmlns:svg="http://www.w3.org/2000/svg"><defs id="defs4"><style id="style2">.cls-1{fill:none;}</style></defs><g fill="#dcdcdc" id="g40"><path d="m24 24h48v48h-48z" id="path6" /><path d="m88 24h48v48h-48z" id="path8" /><path d="m152 24h48v48h-48z" id="path10" /><path d="m344 72h48v-48h-48z" id="path12" /><path d="m280 24h48v48h-48z" id="path14" /><path d="m216 24h48v48h-48z" id="path16" /><path d="m408 24h48v48h-48z" id="path18" /><path d="m536 24h48v48h-48z" id="path20" /><path d="m600 72h48v-48h-48z" id="path22" /><path d="m472 24h48v48h-48z" id="path24" /><path d="m664 24h48v48h-48z" id="path26" /><path d="m728 24h48v48h-48z" id="path28" /><path d="m114 105.3h3.3v-4h-3.3c-2.6 0-4.7 2.1-4.7 4.7v2h-2.7v4h2.7v10.7h4v-10.7h3.3l0.7-4h-4v-2c0-0.4 0.3-0.7 0.7-0.7" id="path30" /><path d="m54.204 102.25h3.308l-7.227 8.26 8.502 11.24h-6.657l-5.214-6.817-5.966 6.817h-3.31l7.73-8.835-8.156-10.665h6.826l4.713 6.231zm-1.161 17.52h1.833l-11.832-15.644h-1.967z" id="path32" /><path d="m296.7 103.3c-1.1 0-2 0.9-2 2s0.9 2 2 2 2-0.9 2-2-0.9-2-2-2m-2 5.3v12h4v-12h-4m6.7 0v12h3.8v-5.8c0-1.5 0.3-3 2.3-3s2 1.7 2 3.1v5.7h3.8v-6.4c0-3.2-0.7-5.6-4.6-5.6-1.9 0-3.1 1-3.6 1.9h-0.1v-1.9h-3.7" id="path34" /><path d="m369.9 103.4c-0.4 0-0.8 0.4-0.8 0.8s0.4 0.8 0.8 0.8 0.8-0.4 0.8-0.8-0.4-0.8-0.8-0.8m-0.8 2.1v4.8h1.6v-4.8h-1.6m2.6 0v4.8h1.5v-2.3c0-0.6 0.1-1.2 0.9-1.2s0.8 0.7 0.8 1.2v2.3h1.5v-2.5c0-1.3-0.3-2.2-1.8-2.2-0.7 0-1.2 0.4-1.4 0.8v-0.8h-1.5" id="path36" /><path d="m359.4 120.7h8.6v-17.2h-8.6v17.2m5.4-15.1h2.2v2.2h-2.2v-2.2m0 4.3h2.2v2.2h-2.2v-2.2m0 4.3h2.2v2.2h-2.2v-2.2m-4.3-8.6h2.2v2.2h-2.2v-2.2m0 4.3h2.2v2.2h-2.2v-2.2m0 4.3h2.2v2.2h-2.2v-2.2m8.6 6.5h2.2v-4.3h3.2v4.3h2.2v-9.4h-7.6v9.4" id="path38" /></g><path d="m24 152h48v48h-48z" id="path42" /><path d="m88 152h48v48h-48z" fill="#45619d" id="path44" /><path d="m152 152h48v48h-48z" fill="#45619d" id="path46" /><path d="m114 169.3h3.3v-4h-3.3c-2.6 0-4.7 2.1-4.7 4.7v2h-2.7v4h2.7v10.7h4v-10.7h3.3l0.7-4h-4v-2c0-0.4 0.3-0.7 0.7-0.7" fill="#fff" id="path48" /><path d="m344 200h48v-48h-48z" fill="#1c86bd" id="path50" /><path d="m280 152h48v48h-48z" fill="#1c86bd" id="path52" /><path d="m296.7 167.3c-1.1 0-2 0.9-2 2s0.9 2 2 2 2-0.9 2-2-0.9-2-2-2m-2 5.3v12h4v-12h-4m6.7 0v12h3.8v-5.8c0-1.5 0.3-3 2.3-3s2 1.7 2 3.1v5.7h3.8v-6.4c0-3.2-0.7-5.6-4.6-5.6-1.9 0-3.1 1-3.6 1.9h-0.1v-1.9h-3.7" fill="#fff" id="path54" /><path d="m216 152h48v48h-48z" fill="#45619d" id="path56" /><path d="m359.4 167.4v17.3h8.6v-17.3zm10.5 0c-0.4 0-0.8 0.4-0.8 0.8 0 0.5 0.4 0.8 0.8 0.8s0.8-0.3 0.8-0.8c0-0.4-0.4-0.8-0.8-0.8zm-0.8 2.2v4.7h1.6v-4.7zm2.7 0v4.7h1.5v-2.3c0-0.6 0.1-1.2 0.9-1.2s0.8 0.7 0.8 1.3v2.2h1.5v-2.5c0-1.3-0.3-2.2-1.8-2.2-0.8 0-1.3 0.3-1.5 0.7v-0.7zm-11.3 0h2.1v2.1h-2.1zm4.3 0h2.1v2.1h-2.1zm-4.3 4.3h2.1v2.2h-2.1zm4.3 0h2.1v2.2h-2.1zm4.3 1.4v9.4h2.1v-4.3h3.3v4.3h2.1v-9.4zm-8.6 2.9h2.1v2.2h-2.1zm4.3 0h2.1v2.2h-2.1z" fill="#fff" id="path58" /><g fill="#fafafa" id="g66"><path d="m114 41.3h3.3v-4h-3.3c-2.6 0-4.7 2.1-4.7 4.7v2h-2.7v4h2.7v10.7h4v-10.7h3.3l0.7-4h-4v-2c0-0.4 0.3-0.7 0.7-0.7" id="path60" /><path d="m296.7 39.3c-1.1 0-2 0.9-2 2s0.9 2 2 2 2-0.9 2-2-0.9-2-2-2m-2 5.3v12h4v-12h-4m6.7 0v12h3.8v-5.8c0-1.5 0.3-3 2.3-3s2 1.7 2 3.1v5.7h3.8v-6.4c0-3.2-0.7-5.6-4.6-5.6-1.9 0-3.1 1-3.6 1.9h-0.1v-1.9h-3.7" id="path62" /><path d="m359.4 39.4v17.3h8.6v-17.3zm10.5 0c-0.4 0-0.8 0.4-0.8 0.8 0 0.5 0.4 0.8 0.8 0.8s0.8-0.3 0.8-0.8c0-0.4-0.4-0.8-0.8-0.8zm-0.8 2.2v4.7h1.6v-4.7zm2.7 0v4.7h1.5v-2.3c0-0.6 0.1-1.2 0.9-1.2s0.8 0.7 0.8 1.3v2.2h1.5v-2.5c0-1.3-0.3-2.2-1.8-2.2-0.8 0-1.3 0.3-1.5 0.7v-0.7zm-11.3 0h2.1v2.1h-2.1zm4.3 0h2.1v2.1h-2.1zm-4.3 4.3h2.1v2.2h-2.1zm4.3 0h2.1v2.2h-2.1zm4.3 1.4v9.4h2.1v-4.3h3.3v4.3h2.1v-9.4zm-8.6 2.9h2.1v2.2h-2.1zm4.3 0h2.1v2.2h-2.1z" id="path64" /></g><path d="m427.7 104.5c-4.1 0-7.5 3.4-7.5 7.5s3.4 7.5 7.5 7.5c4.3 0 7.2-3 7.2-7.3 0-0.5-0.1-0.9-0.1-1.2h-7.1v2.6h4.3c-0.2 1.1-1.3 3.2-4.3 3.2-2.6 0-4.7-2.1-4.7-4.7s2.1-4.7 4.7-4.7c1.5 0 2.4 0.6 3 1.2l2-2c-1.3-1.2-3-2-5-2m11.7 4v2.2h-2.2v2.2h2.2v2.2h2.2v-2.2h2.2v-2.2h-2.2v-2.2h-2.2" fill="#dcdcdc" id="path68" /><path d="m408 152h48v48h-48z" fill="#e44040" id="path70" /><path d="m427.7 168.5c-4.1 0-7.5 3.4-7.5 7.5s3.4 7.5 7.5 7.5c4.3 0 7.2-3 7.2-7.3 0-0.5-0.1-0.9-0.1-1.2h-7.1v2.6h4.3c-0.2 1.1-1.3 3.2-4.3 3.2-2.6 0-4.7-2.1-4.7-4.7s2.1-4.7 4.7-4.7c1.5 0 2.4 0.6 3 1.2l2-2c-1.3-1.2-3-2-5-2m11.7 4v2.2h-2.2v2.2h2.2v2.2h2.2v-2.2h2.2v-2.2h-2.2v-2.2h-2.2" fill="#fff" id="path72" /><path d="m427.7 40.5c-4.1 0-7.5 3.4-7.5 7.5s3.4 7.5 7.5 7.5c4.3 0 7.2-3 7.2-7.3 0-0.5-0.1-0.9-0.1-1.2h-7.1v2.6h4.3c-0.2 1.1-1.3 3.2-4.3 3.2-2.6 0-4.7-2.1-4.7-4.7s2.1-4.7 4.7-4.7c1.5 0 2.4 0.6 3 1.2l2-2c-1.3-1.2-3-2-5-2m11.7 4v2.2h-2.2v2.2h2.2v2.2h2.2v-2.2h2.2v-2.2h-2.2v-2.2h-2.2" fill="#fafafa" id="path74" /><path d="m616 109.4c0-0.9 0.2-1.7 0.5-2.5s0.7-1.4 1.2-2 1.1-1.1 1.8-1.5 1.4-0.7 2.2-0.9 1.6-0.3 2.4-0.3c1.3 0 2.5 0.3 3.6 0.8s2 1.3 2.7 2.3 1 2.2 1 3.5c0 0.8-0.1 1.5-0.2 2.3-0.2 0.7-0.4 1.5-0.7 2.1-0.3 0.7-0.7 1.3-1.2 1.8s-1.1 0.9-1.8 1.2-1.5 0.5-2.3 0.5c-0.5 0-1.1-0.1-1.6-0.4s-0.9-0.6-1.2-1.1c-0.1 0.3-0.2 0.8-0.3 1.4s-0.2 1-0.3 1.1c0 0.2-0.1 0.5-0.2 0.9s-0.2 0.7-0.3 0.9l-0.4 0.8-0.6 0.9c-0.2 0.3-0.5 0.6-0.7 1l-0.2 0.1-0.1-0.1c-0.1-1.3-0.2-2-0.2-2.3 0-0.7 0.1-1.6 0.3-2.5s0.4-2.1 0.8-3.5 0.6-2.2 0.6-2.5c-0.3-0.5-0.4-1.2-0.4-2 0-0.7 0.2-1.3 0.6-1.9s1-0.9 1.6-0.9c0.5 0 0.9 0.2 1.1 0.5 0.3 0.3 0.4 0.7 0.4 1.2s-0.2 1.3-0.5 2.3c-0.4 1-0.5 1.8-0.5 2.3s0.2 0.9 0.5 1.3c0.4 0.3 0.8 0.5 1.3 0.5 0.4 0 0.9-0.1 1.2-0.3 0.4-0.2 0.7-0.5 0.9-0.8 0.3-0.3 0.5-0.7 0.7-1.1s0.4-0.9 0.5-1.3c0.1-0.5 0.2-0.9 0.2-1.3 0.1-0.4 0.1-0.8 0.1-1.2 0-1.4-0.4-2.5-1.3-3.3s-2-1.2-3.4-1.2c-1.6 0-3 0.5-4 1.6-1.1 1-1.6 2.4-1.6 4 0 0.4 0.1 0.7 0.2 1s0.2 0.6 0.3 0.8 0.2 0.4 0.3 0.5c0.1 0.2 0.2 0.3 0.2 0.4 0 0.2-0.1 0.5-0.2 0.9s-0.3 0.5-0.4 0.5h-0.2c-0.4-0.1-0.8-0.3-1.1-0.7-0.3-0.3-0.6-0.7-0.7-1.1-0.2-0.4-0.3-0.9-0.4-1.3s-0.1-0.9-0.1-1.3" fill="#dcdcdc" id="path76" /><path d="m536 152h48v48h-48z" fill="#e350bb" id="path78" /><path d="m600 200h48v-48h-48z" fill="#d01d15" id="path80" /><path d="m616 173.4c0-0.9 0.2-1.7 0.5-2.5s0.7-1.4 1.2-2 1.1-1.1 1.8-1.5 1.4-0.7 2.2-0.9 1.6-0.3 2.4-0.3c1.3 0 2.5 0.3 3.6 0.8s2 1.3 2.7 2.3 1 2.2 1 3.5c0 0.8-0.1 1.5-0.2 2.3-0.2 0.7-0.4 1.5-0.7 2.1-0.3 0.7-0.7 1.3-1.2 1.8s-1.1 0.9-1.8 1.2-1.5 0.5-2.3 0.5c-0.5 0-1.1-0.1-1.6-0.4s-0.9-0.6-1.2-1.1c-0.1 0.3-0.2 0.8-0.3 1.4s-0.2 1-0.3 1.1c0 0.2-0.1 0.5-0.2 0.9s-0.2 0.7-0.3 0.9l-0.4 0.8-0.6 0.9c-0.2 0.3-0.5 0.6-0.7 1l-0.2 0.1-0.1-0.1c-0.1-1.3-0.2-2-0.2-2.3 0-0.7 0.1-1.6 0.3-2.5s0.4-2.1 0.8-3.5 0.6-2.2 0.6-2.5c-0.3-0.5-0.4-1.2-0.4-2 0-0.7 0.2-1.3 0.6-1.9s1-0.9 1.6-0.9c0.5 0 0.9 0.2 1.1 0.5 0.3 0.3 0.4 0.7 0.4 1.2s-0.2 1.3-0.5 2.3c-0.4 1-0.5 1.8-0.5 2.3s0.2 0.9 0.5 1.3c0.4 0.3 0.8 0.5 1.3 0.5 0.4 0 0.9-0.1 1.2-0.3 0.4-0.2 0.7-0.5 0.9-0.8 0.3-0.3 0.5-0.7 0.7-1.1s0.4-0.9 0.5-1.3c0.1-0.5 0.2-0.9 0.2-1.3 0.1-0.4 0.1-0.8 0.1-1.2 0-1.4-0.4-2.5-1.3-3.3s-2-1.2-3.4-1.2c-1.6 0-3 0.5-4 1.6-1.1 1-1.6 2.4-1.6 4 0 0.4 0.1 0.7 0.2 1s0.2 0.6 0.3 0.8 0.2 0.4 0.3 0.5c0.1 0.2 0.2 0.3 0.2 0.4 0 0.2-0.1 0.5-0.2 0.9s-0.3 0.5-0.4 0.5h-0.2c-0.4-0.1-0.8-0.3-1.1-0.7-0.3-0.3-0.6-0.7-0.7-1.1-0.2-0.4-0.3-0.9-0.4-1.3s-0.1-0.9-0.1-1.3" fill="#fff" id="path82" /><path d="m616 45.4c0-0.9 0.2-1.7 0.5-2.5s0.7-1.4 1.2-2 1.1-1.1 1.8-1.5 1.4-0.7 2.2-0.9 1.6-0.3 2.4-0.3c1.3 0 2.5 0.3 3.6 0.8s2 1.3 2.7 2.3 1 2.2 1 3.5c0 0.8-0.1 1.5-0.2 2.3-0.2 0.7-0.4 1.5-0.7 2.1-0.3 0.7-0.7 1.3-1.2 1.8s-1.1 0.9-1.8 1.2-1.5 0.5-2.3 0.5c-0.5 0-1.1-0.1-1.6-0.4s-0.9-0.6-1.2-1.1c-0.1 0.3-0.2 0.8-0.3 1.4s-0.2 1-0.3 1.1c0 0.2-0.1 0.5-0.2 0.9s-0.2 0.7-0.3 0.9l-0.4 0.8-0.6 0.9c-0.2 0.3-0.5 0.6-0.7 1l-0.2 0.1-0.1-0.1c-0.1-1.3-0.2-2-0.2-2.3 0-0.7 0.1-1.6 0.3-2.5s0.4-2.1 0.8-3.5 0.6-2.2 0.6-2.5c-0.3-0.5-0.4-1.2-0.4-2 0-0.7 0.2-1.3 0.6-1.9s1-0.9 1.6-0.9c0.5 0 0.9 0.2 1.1 0.5 0.3 0.3 0.4 0.7 0.4 1.2s-0.2 1.3-0.5 2.3c-0.4 1-0.5 1.8-0.5 2.3s0.2 0.9 0.5 1.3c0.4 0.3 0.8 0.5 1.3 0.5 0.4 0 0.9-0.1 1.2-0.3 0.4-0.2 0.7-0.5 0.9-0.8 0.3-0.3 0.5-0.7 0.7-1.1s0.4-0.9 0.5-1.3c0.1-0.5 0.2-0.9 0.2-1.3 0.1-0.4 0.1-0.8 0.1-1.2 0-1.4-0.4-2.5-1.3-3.3s-2-1.2-3.4-1.2c-1.6 0-3 0.5-4 1.6-1.1 1-1.6 2.4-1.6 4 0 0.4 0.1 0.7 0.2 1s0.2 0.6 0.3 0.8 0.2 0.4 0.3 0.5c0.1 0.2 0.2 0.3 0.2 0.4 0 0.2-0.1 0.5-0.2 0.9s-0.3 0.5-0.4 0.5h-0.2c-0.4-0.1-0.8-0.3-1.1-0.7-0.3-0.3-0.6-0.7-0.7-1.1-0.2-0.4-0.3-0.9-0.4-1.3s-0.1-0.9-0.1-1.3" fill="#fafafa" id="path84" /><path d="m233.6 41.2c0.4-0.2 0.8-0.1 1.1 0.2 1.3 1.3 3.3 1.3 4.6 0 2-2 5.4-2 7.4 0 0.2 0.2 0.3 0.4 0.3 0.7v13c0 0.6-0.4 1-1 1s-1-0.4-1-1v-4.6c-1.3-1-3.1-0.9-4.3 0.3-2 2-5.4 2-7.4 0-0.2-0.2-0.3-0.4-0.3-0.7v-8c0-0.4 0.2-0.8 0.6-0.9" fill="#fafafa" id="path86" /><path d="m233.6 105.2c0.4-0.2 0.8-0.1 1.1 0.2 1.3 1.3 3.3 1.3 4.6 0 2-2 5.4-2 7.4 0 0.2 0.2 0.3 0.4 0.3 0.7v13c0 0.6-0.4 1-1 1s-1-0.4-1-1v-4.6c-1.3-1-3.1-0.9-4.3 0.3-2 2-5.4 2-7.4 0-0.2-0.2-0.3-0.4-0.3-0.7v-8c0-0.4 0.2-0.8 0.6-0.9" fill="#dcdcdc" id="path88" /><path d="m233.6 169.2c0.4-0.2 0.8-0.1 1.1 0.2 1.3 1.3 3.3 1.3 4.6 0 2-2 5.4-2 7.4 0 0.2 0.2 0.3 0.4 0.3 0.7v13c0 0.6-0.4 1-1 1s-1-0.4-1-1v-4.6c-1.3-1-3.1-0.9-4.3 0.3-2 2-5.4 2-7.4 0-0.2-0.2-0.3-0.4-0.3-0.7v-8c0-0.4 0.2-0.8 0.6-0.9" fill="#fff" id="path90" /><path d="m162.6 182.3c0-0.2 0-0.6 0.2-0.7 0.3-0.2 1.5-0.8 2.5-1.2 0.5-0.2 0.9-0.4 1-0.5s0.2-0.3 0.2-0.5c0.1-0.2 0.2-0.4 0.3-0.5 0.2-0.2 0.3-1 0.1-1.3-0.2-0.4-0.7-1.9-0.7-2.3 0-0.2 0.1-0.4 0.1-0.5 0.1-0.1 0.1-0.4 0.1-1.2 0-0.9 0-1.1 0.2-1.3 0.2-0.4 0.8-0.9 1.4-1.1 0.4-0.2 1.2-0.2 1.6 0s1.1 0.7 1.3 1 0.2 0.3 0.2 1.4c0 0.9 0 1.2 0.1 1.3s0.1 0.2 0.1 0.5c-0.1 0.5-0.5 1.8-0.6 2.1-0.2 0.2-0.2 0.3-0.2 0.8 0 0.3 0 0.4 0.2 0.6 0.1 0.1 0.2 0.3 0.2 0.3v0.2c0 0.1-0.1 0.2-0.4 0.3-0.7 0.3-1.9 1-2.2 1.3-0.2 0.2-0.2 0.3-0.2 0.8v0.8h-5.5v-0.3m6.3 0.2c0-0.3 0-0.9 0.2-1 0.4-0.3 1.7-1 2.9-1.4 0.6-0.3 1.2-0.5 1.3-0.6s0.2-0.3 0.3-0.6 0.3-0.5 0.4-0.6c0.2-0.1 0.2-0.2 0.2-0.7s0-0.6-0.2-0.9-0.4-0.9-0.7-2.1c-0.2-0.7-0.2-0.8 0-1 0.1-0.1 0.1-0.2 0.2-1.3 0-0.7 0-1.3 0.1-1.5 0.1-0.4 0.7-1 1.3-1.3s1.7-0.6 2.5-0.7h0.5l-0.2 0.2c-0.1 0.1-0.2 0.2-0.2 0.3 0 0 0.3 0.4 0.7 0.7s0.7 0.7 0.8 0.9 0.1 0.6 0.1 1.5c0 1.1 0 1.3 0.1 1.4s0.1 0.2 0.1 0.7c0 0.3-0.1 0.6-0.1 0.7 0 0-0.2 0.4-0.3 0.7s-0.3 0.8-0.4 0.9c-0.1 0.2-0.2 0.4-0.2 1 0 0.5 0 0.7 0.1 0.7s0.2 0.3 0.3 0.6l0.2 0.6 0.8 0.3c2 0.8 2.3 1 2.8 1.2 0.8 0.4 1 1.1 1 1.5v1.5h-14.6v-1.5m15.6-0.7-0.2-0.5-0.4-0.4c-0.3-0.3-0.7-0.5-1.5-0.9-1.2-0.6-1.2-0.6-0.7-0.8 0.1 0 0.3-0.2 0.3-0.2 0.1-0.2 0.2-1.1 0.1-1.3 0-0.1-0.3-0.3-0.7-0.4-0.3-0.1-0.6-0.3-0.6-0.3s0-0.4 0.2-0.9c0.2-0.8 0.3-1.1 0.4-2.7 0.1-0.5 0.1-0.8 0.3-1.1 0.2-0.4 0.3-0.4 0.8-0.7 0.9-0.4 1.6-0.4 2.3 0.2 0.5 0.4 0.7 0.8 0.8 1.7 0.2 1.6 0.2 2 0.4 2.7l0.2 0.8s-0.3 0.2-0.6 0.3c-0.4 0.1-0.6 0.3-0.7 0.4-0.1 0.2 0 1.1 0.1 1.3 0 0.1 0.2 0.2 0.3 0.2s0.4 0.2 0.5 0.3l1 0.5c1.2 0.5 1.7 0.8 2 1s0.5 1 0.6 1.4l0.1 0.2h-5v-0.8" fill="#fff" id="path92" /><path d="m162.6 118.3c0-0.2 0-0.6 0.2-0.7 0.3-0.2 1.5-0.8 2.5-1.2 0.5-0.2 0.9-0.4 1-0.5s0.2-0.3 0.2-0.5c0.1-0.2 0.2-0.4 0.3-0.5 0.2-0.2 0.3-1 0.1-1.3-0.2-0.4-0.7-1.9-0.7-2.3 0-0.2 0.1-0.4 0.1-0.5 0.1-0.1 0.1-0.4 0.1-1.2 0-0.9 0-1.1 0.2-1.3 0.2-0.4 0.8-0.9 1.4-1.1 0.4-0.2 1.2-0.2 1.6 0s1.1 0.7 1.3 1 0.2 0.3 0.2 1.4c0 0.9 0 1.2 0.1 1.3s0.1 0.2 0.1 0.5c-0.1 0.5-0.5 1.8-0.6 2.1-0.2 0.2-0.2 0.3-0.2 0.8 0 0.3 0 0.4 0.2 0.6 0.1 0.1 0.2 0.3 0.2 0.3v0.2c0 0.1-0.1 0.2-0.4 0.3-0.7 0.3-1.9 1-2.2 1.3-0.2 0.2-0.2 0.3-0.2 0.8v0.8h-5.5v-0.3m6.3 0.2c0-0.3 0-0.9 0.2-1 0.4-0.3 1.7-1 2.9-1.4 0.6-0.3 1.2-0.5 1.3-0.6s0.2-0.3 0.3-0.6 0.3-0.5 0.4-0.6c0.2-0.1 0.2-0.2 0.2-0.7s0-0.6-0.2-0.9-0.4-0.9-0.7-2.1c-0.2-0.7-0.2-0.8 0-1 0.1-0.1 0.1-0.2 0.2-1.3 0-0.7 0-1.3 0.1-1.5 0.1-0.4 0.7-1 1.3-1.3s1.7-0.6 2.5-0.7h0.5l-0.2 0.2c-0.1 0.1-0.2 0.2-0.2 0.3 0 0 0.3 0.4 0.7 0.7s0.7 0.7 0.8 0.9 0.1 0.6 0.1 1.5c0 1.1 0 1.3 0.1 1.4s0.1 0.2 0.1 0.7c0 0.3-0.1 0.6-0.1 0.7 0 0-0.2 0.4-0.3 0.7s-0.3 0.8-0.4 0.9c-0.1 0.2-0.2 0.4-0.2 1 0 0.5 0 0.7 0.1 0.7s0.2 0.3 0.3 0.6l0.2 0.6 0.8 0.3c2 0.8 2.3 1 2.8 1.2 0.8 0.4 1 1.1 1 1.5v1.5h-14.6v-1.5m15.6-0.7-0.2-0.5-0.4-0.4c-0.3-0.3-0.7-0.5-1.5-0.9-1.2-0.6-1.2-0.6-0.7-0.8 0.1 0 0.3-0.2 0.3-0.2 0.1-0.2 0.2-1.1 0.1-1.3 0-0.1-0.3-0.3-0.7-0.4-0.3-0.1-0.6-0.3-0.6-0.3s0-0.4 0.2-0.9c0.2-0.8 0.3-1.1 0.4-2.7 0.1-0.5 0.1-0.8 0.3-1.1 0.2-0.4 0.3-0.4 0.8-0.7 0.9-0.4 1.6-0.4 2.3 0.2 0.5 0.4 0.7 0.8 0.8 1.7 0.2 1.6 0.2 2 0.4 2.7l0.2 0.8s-0.3 0.2-0.6 0.3c-0.4 0.1-0.6 0.3-0.7 0.4-0.1 0.2 0 1.1 0.1 1.3 0 0.1 0.2 0.2 0.3 0.2s0.4 0.2 0.5 0.3l1 0.5c1.2 0.5 1.7 0.8 2 1s0.5 1 0.6 1.4l0.1 0.2h-5v-0.8" fill="#dcdcdc" id="path94" /><path d="m162.6 54.3c0-0.2 0-0.6 0.2-0.7 0.3-0.2 1.5-0.8 2.5-1.2 0.5-0.2 0.9-0.4 1-0.5s0.2-0.3 0.2-0.5c0.1-0.2 0.2-0.4 0.3-0.5 0.2-0.2 0.3-1 0.1-1.3-0.2-0.4-0.7-1.9-0.7-2.3 0-0.2 0.1-0.4 0.1-0.5 0.1-0.1 0.1-0.4 0.1-1.2 0-0.9 0-1.1 0.2-1.3 0.2-0.4 0.8-0.9 1.4-1.1 0.4-0.2 1.2-0.2 1.6 0s1.1 0.7 1.3 1 0.2 0.3 0.2 1.4c0 0.9 0 1.2 0.1 1.3s0.1 0.2 0.1 0.5c-0.1 0.5-0.5 1.8-0.6 2.1-0.2 0.2-0.2 0.3-0.2 0.8 0 0.3 0 0.4 0.2 0.6 0.1 0.1 0.2 0.3 0.2 0.3v0.2c0 0.1-0.1 0.2-0.4 0.3-0.7 0.3-1.9 1-2.2 1.3-0.2 0.2-0.2 0.3-0.2 0.8v0.8h-5.5v-0.3m6.3 0.2c0-0.3 0-0.9 0.2-1 0.4-0.3 1.7-1 2.9-1.4 0.6-0.3 1.2-0.5 1.3-0.6s0.2-0.3 0.3-0.6 0.3-0.5 0.4-0.6c0.2-0.1 0.2-0.2 0.2-0.7s0-0.6-0.2-0.9-0.4-0.9-0.7-2.1c-0.2-0.7-0.2-0.8 0-1 0.1-0.1 0.1-0.2 0.2-1.3 0-0.7 0-1.3 0.1-1.5 0.1-0.4 0.7-1 1.3-1.3s1.7-0.6 2.5-0.7h0.5l-0.2 0.2c-0.1 0.1-0.2 0.2-0.2 0.3 0 0 0.3 0.4 0.7 0.7s0.7 0.7 0.8 0.9 0.1 0.6 0.1 1.5c0 1.1 0 1.3 0.1 1.4s0.1 0.2 0.1 0.7c0 0.3-0.1 0.6-0.1 0.7 0 0-0.2 0.4-0.3 0.7s-0.3 0.8-0.4 0.9c-0.1 0.2-0.2 0.4-0.2 1 0 0.5 0 0.7 0.1 0.7s0.2 0.3 0.3 0.6l0.2 0.6 0.8 0.3c2 0.8 2.3 1 2.8 1.2 0.8 0.4 1 1.1 1 1.5v1.5h-14.6v-1.5m15.6-0.7-0.2-0.5-0.4-0.4c-0.3-0.3-0.7-0.5-1.5-0.9-1.2-0.6-1.2-0.6-0.7-0.8 0.1 0 0.3-0.2 0.3-0.2 0.1-0.2 0.2-1.1 0.1-1.3 0-0.1-0.3-0.3-0.7-0.4-0.3-0.1-0.6-0.3-0.6-0.3s0-0.4 0.2-0.9c0.2-0.8 0.3-1.1 0.4-2.7 0.1-0.5 0.1-0.8 0.3-1.1 0.2-0.4 0.3-0.4 0.8-0.7 0.9-0.4 1.6-0.4 2.3 0.2 0.5 0.4 0.7 0.8 0.8 1.7 0.2 1.6 0.2 2 0.4 2.7l0.2 0.8s-0.3 0.2-0.6 0.3c-0.4 0.1-0.6 0.3-0.7 0.4-0.1 0.2 0 1.1 0.1 1.3 0 0.1 0.2 0.2 0.3 0.2s0.4 0.2 0.5 0.3l1 0.5c1.2 0.5 1.7 0.8 2 1s0.5 1 0.6 1.4l0.1 0.2h-5v-0.8" fill="#fafafa" id="path96" /><path d="m472 152h48v48h-48z" fill="#e44040" id="path98" /><path d="m556.6 48c0-1.9 1.5-3.4 3.4-3.4s3.4 1.5 3.4 3.4-1.5 3.4-3.4 3.4-3.4-1.5-3.4-3.4m-1.9 0c0 2.9 2.4 5.3 5.3 5.3s5.3-2.4 5.3-5.3-2.4-5.3-5.3-5.3-5.3 2.4-5.3 5.3m9.5-5.5c0 0.7 0.6 1.2 1.2 1.2 0.7 0 1.2-0.6 1.2-1.2 0-0.7-0.6-1.2-1.2-1.2-0.7 0-1.2 0.6-1.2 1.2m-8.4 13.8c-1 0-1.5-0.2-1.9-0.4-0.5-0.2-0.8-0.4-1.2-0.8s-0.6-0.7-0.8-1.2c-0.1-0.4-0.3-0.9-0.4-1.9 0-1.1-0.1-1.4-0.1-4.2 0-2.7 0-3.1 0.1-4.2 0-1 0.2-1.5 0.4-1.9 0.2-0.5 0.4-0.8 0.8-1.2s0.7-0.6 1.2-0.8c0.4-0.1 0.9-0.3 1.9-0.4 1.1 0 1.4-0.1 4.2-0.1 2.7 0 3.1 0 4.2 0.1 1 0 1.5 0.2 1.9 0.4 0.5 0.2 0.8 0.4 1.2 0.8s0.6 0.7 0.8 1.2c0.1 0.4 0.3 0.9 0.4 1.9 0.1 1.1 0.1 1.4 0.1 4.2 0 2.7 0 3.1-0.1 4.2 0 1-0.2 1.5-0.4 1.9-0.2 0.5-0.4 0.8-0.8 1.2s-0.7 0.6-1.2 0.8c-0.4 0.1-0.9 0.3-1.9 0.4-1.1 0-1.4 0.1-4.2 0.1-2.7 0-3.1 0-4.2-0.1m-0.1-18.6c-1.1 0-1.8 0.2-2.5 0.5s-1.2 0.6-1.8 1.2-0.9 1.1-1.2 1.8-0.4 1.4-0.5 2.5-0.1 1.4-0.1 4.2 0 3.1 0.1 4.2 0.2 1.8 0.5 2.5 0.6 1.2 1.2 1.8 1.1 0.9 1.8 1.2 1.4 0.4 2.5 0.5c1.1 0 1.4 0.1 4.2 0.1s3.1 0 4.2-0.1c1.1 0 1.8-0.2 2.5-0.5s1.2-0.6 1.8-1.2 0.9-1.1 1.2-1.8 0.4-1.4 0.5-2.5 0.1-1.4 0.1-4.2 0-3.1-0.1-4.2c0-1.1-0.2-1.8-0.5-2.5s-0.6-1.2-1.2-1.8-1.1-0.9-1.8-1.2-1.4-0.4-2.5-0.5c-1.1 0-1.4-0.1-4.2-0.1s-3.1 0-4.2 0.1" fill="#fafafa" id="path100" /><path d="m556.6 112c0-1.9 1.5-3.4 3.4-3.4s3.4 1.5 3.4 3.4-1.5 3.4-3.4 3.4-3.4-1.5-3.4-3.4m-1.9 0c0 2.9 2.4 5.3 5.3 5.3s5.3-2.4 5.3-5.3-2.4-5.3-5.3-5.3-5.3 2.4-5.3 5.3m9.5-5.5c0 0.7 0.6 1.2 1.2 1.2 0.7 0 1.2-0.6 1.2-1.2 0-0.7-0.6-1.2-1.2-1.2-0.7 0-1.2 0.6-1.2 1.2m-8.4 13.8c-1 0-1.5-0.2-1.9-0.4-0.5-0.2-0.8-0.4-1.2-0.8s-0.6-0.7-0.8-1.2c-0.1-0.4-0.3-0.9-0.4-1.9 0-1.1-0.1-1.4-0.1-4.2 0-2.7 0-3.1 0.1-4.2 0-1 0.2-1.5 0.4-1.9 0.2-0.5 0.4-0.8 0.8-1.2s0.7-0.6 1.2-0.8c0.4-0.1 0.9-0.3 1.9-0.4 1.1 0 1.4-0.1 4.2-0.1 2.7 0 3.1 0 4.2 0.1 1 0 1.5 0.2 1.9 0.4 0.5 0.2 0.8 0.4 1.2 0.8s0.6 0.7 0.8 1.2c0.1 0.4 0.3 0.9 0.4 1.9 0.1 1.1 0.1 1.4 0.1 4.2 0 2.7 0 3.1-0.1 4.2 0 1-0.2 1.5-0.4 1.9-0.2 0.5-0.4 0.8-0.8 1.2s-0.7 0.6-1.2 0.8c-0.4 0.1-0.9 0.3-1.9 0.4-1.1 0-1.4 0.1-4.2 0.1-2.7 0-3.1 0-4.2-0.1m-0.1-18.6c-1.1 0-1.8 0.2-2.5 0.5s-1.2 0.6-1.8 1.2-0.9 1.1-1.2 1.8-0.4 1.4-0.5 2.5-0.1 1.4-0.1 4.2 0 3.1 0.1 4.2 0.2 1.8 0.5 2.5 0.6 1.2 1.2 1.8 1.1 0.9 1.8 1.2 1.4 0.4 2.5 0.5c1.1 0 1.4 0.1 4.2 0.1s3.1 0 4.2-0.1c1.1 0 1.8-0.2 2.5-0.5s1.2-0.6 1.8-1.2 0.9-1.1 1.2-1.8 0.4-1.4 0.5-2.5 0.1-1.4 0.1-4.2 0-3.1-0.1-4.2c0-1.1-0.2-1.8-0.5-2.5s-0.6-1.2-1.2-1.8-1.1-0.9-1.8-1.2-1.4-0.4-2.5-0.5c-1.1 0-1.4-0.1-4.2-0.1s-3.1 0-4.2 0.1" fill="#dcdcdc" id="path102" /><path d="m556.6 176c0-1.9 1.5-3.4 3.4-3.4s3.4 1.5 3.4 3.4-1.5 3.4-3.4 3.4-3.4-1.5-3.4-3.4m-1.9 0c0 2.9 2.4 5.3 5.3 5.3s5.3-2.4 5.3-5.3-2.4-5.3-5.3-5.3-5.3 2.4-5.3 5.3m9.5-5.5c0 0.7 0.6 1.2 1.2 1.2 0.7 0 1.2-0.6 1.2-1.2 0-0.7-0.6-1.2-1.2-1.2-0.7 0-1.2 0.6-1.2 1.2m-8.4 13.8c-1 0-1.5-0.2-1.9-0.4-0.5-0.2-0.8-0.4-1.2-0.8s-0.6-0.7-0.8-1.2c-0.1-0.4-0.3-0.9-0.4-1.9 0-1.1-0.1-1.4-0.1-4.2 0-2.7 0-3.1 0.1-4.2 0-1 0.2-1.5 0.4-1.9 0.2-0.5 0.4-0.8 0.8-1.2s0.7-0.6 1.2-0.8c0.4-0.1 0.9-0.3 1.9-0.4 1.1 0 1.4-0.1 4.2-0.1 2.7 0 3.1 0 4.2 0.1 1 0 1.5 0.2 1.9 0.4 0.5 0.2 0.8 0.4 1.2 0.8s0.6 0.7 0.8 1.2c0.1 0.4 0.3 0.9 0.4 1.9 0.1 1.1 0.1 1.4 0.1 4.2 0 2.7 0 3.1-0.1 4.2 0 1-0.2 1.5-0.4 1.9-0.2 0.5-0.4 0.8-0.8 1.2s-0.7 0.6-1.2 0.8c-0.4 0.1-0.9 0.3-1.9 0.4-1.1 0-1.4 0.1-4.2 0.1-2.7 0-3.1 0-4.2-0.1m-0.1-18.6c-1.1 0-1.8 0.2-2.5 0.5s-1.2 0.6-1.8 1.2-0.9 1.1-1.2 1.8-0.4 1.4-0.5 2.5-0.1 1.4-0.1 4.2 0 3.1 0.1 4.2 0.2 1.8 0.5 2.5 0.6 1.2 1.2 1.8 1.1 0.9 1.8 1.2 1.4 0.4 2.5 0.5c1.1 0 1.4 0.1 4.2 0.1s3.1 0 4.2-0.1c1.1 0 1.8-0.2 2.5-0.5s1.2-0.6 1.8-1.2 0.9-1.1 1.2-1.8 0.4-1.4 0.5-2.5 0.1-1.4 0.1-4.2 0-3.1-0.1-4.2c0-1.1-0.2-1.8-0.5-2.5s-0.6-1.2-1.2-1.8-1.1-0.9-1.8-1.2-1.4-0.4-2.5-0.5c-1.1 0-1.4-0.1-4.2-0.1s-3.1 0-4.2 0.1" fill="#fff" id="path104" /><path d="m488.6 166.3v19.4h14.9v-16.1l-3.5-3.3h-11.3m1.6 1.6h8.9v2.9h2.8v13.3h-7.9c1.6-0.5 2.5-1.8 2.5-3.6 0-0.3 0-0.5-0.1-0.6h-3.7v1.3h2.2c-0.1 0.6-0.7 1.7-2.2 1.7-1.3 0-2.4-1.1-2.4-2.5s1.1-2.5 2.4-2.5c0.8 0 1.3 0.3 1.5 0.6l1.1-1c-0.7-0.6-1.6-1-2.6-1s-1.9 0.4-2.5 1v-9.6m8.6 10.7v1.1h-1.1v1.1h1.1v1.1h1.1v-1.1h1.1v-1.1h-1.1v-1.1h-1.1m-8.6 4.7c0.4 0.4 0.9 0.6 1.4 0.8h-1.4v-0.8" fill="#fff" id="path106" /><path d="m488.6 102.3v19.4h14.9v-16.1l-3.5-3.3h-11.3m1.6 1.6h8.9v3.2h2.8v13.1h-7.9c1.6-0.5 2.5-1.8 2.5-3.6 0-0.3 0-0.5-0.1-0.6h-3.7v1.3h2.2c-0.1 0.6-0.7 1.7-2.2 1.7-1.3 0-2.4-1.1-2.4-2.5s1.1-2.5 2.4-2.5c0.8 0 1.3 0.3 1.5 0.6l1.1-1c-0.7-0.6-1.6-1-2.6-1s-1.9 0.4-2.5 1v-9.6m8.6 10.7v1.1h-1.1v1.1h1.1v1.1h1.1v-1.1h1.1v-1.1h-1.1v-1.1h-1.1m-8.6 4.7c0.4 0.4 0.9 0.6 1.4 0.8h-1.4v-0.8" fill="#dcdcdc" id="path108" /><path d="m488.6 38.3v19.4h14.9v-16.1l-3.5-3.3h-11.3m1.6 1.6h8.9v3.2h2.8v13.1h-7.9c1.6-0.5 2.5-1.8 2.5-3.6 0-0.3 0-0.5-0.1-0.6h-3.7v1.3h2.2c-0.1 0.6-0.7 1.7-2.2 1.7-1.3 0-2.4-1.1-2.4-2.5s1.1-2.5 2.4-2.5c0.8 0 1.3 0.3 1.5 0.6l1.1-1c-0.7-0.6-1.6-1-2.6-1s-1.9 0.4-2.5 1v-9.6m8.6 10.7v1.1h-1.1v1.1h1.1v1.1h1.1v-1.1h1.1v-1.1h-1.1v-1.1h-1.1m-8.6 4.7c0.4 0.4 0.9 0.6 1.4 0.8h-1.4v-0.8" fill="#fafafa" id="path110" /><path d="m664 152h48v48h-48z" fill="#29445d" id="path112" /><path d="m686.1 165.7c0 4.3-3.5 5.8-3.5 5.8v2.7h2.2v8.6c0 4 4.7 4 8.5 2.7v-3.3c-3.3 1.9-5 0.7-5-1.7v-6.3h4.5v-3.2h-4.5v-5.4h-2.2" fill="#fff" id="path114" /><path d="m686.1 37.7c0 4.3-3.5 5.8-3.5 5.8v2.7h2.2v8.6c0 4 4.7 4 8.5 2.7v-3.3c-3.3 1.9-5 0.7-5-1.7v-6.3h4.5v-3.2h-4.5v-5.4h-2.2" fill="#fafafa" id="path116" /><path d="m686.1 101.9c0 4.3-3.5 5.8-3.5 5.8v2.7h2.2v8.6c0 4 4.7 4 8.5 2.7v-3.3c-3.3 1.9-5 0.7-5-1.7v-6.3h4.5v-3.2h-4.5v-5.4h-2.2" fill="#dcdcdc" id="path118" /><path d="m24 216h48v48h-48z" id="path120" /><path d="m88 216h48v48h-48z" fill="#45619d" id="path122" /><path d="m152 216h48v48h-48z" fill="#45619d" id="path124" /><path d="m114 233.3h3.3v-4h-3.3c-2.6 0-4.7 2.1-4.7 4.7v2h-2.7v4h2.7v10.7h4v-10.7h3.3l0.7-4h-4v-2c0-0.4 0.3-0.7 0.7-0.7" fill="#fff" id="path126" /><path d="m344 264h48v-48h-48z" fill="#fff" id="path128" /><path d="m280 216h48v48h-48z" fill="#1c86bd" id="path130" /><path d="m296.7 231.3c-1.1 0-2 0.9-2 2s0.9 2 2 2 2-0.9 2-2-0.9-2-2-2m-2 5.3v12h4v-12h-4m6.7 0v12h3.8v-5.8c0-1.5 0.3-3 2.3-3s2 1.7 2 3.1v5.7h3.8v-6.4c0-3.2-0.7-5.6-4.6-5.6-1.9 0-3.1 1-3.6 1.9h-0.1v-1.9h-3.7" fill="#fff" id="path132" /><path d="m216 216h48v48h-48z" fill="#45619d" id="path134" /><path d="m408 216h48v48h-48z" fill="#e44040" id="path136" /><path d="m427.7 232.5c-4.1 0-7.5 3.4-7.5 7.5s3.4 7.5 7.5 7.5c4.3 0 7.2-3 7.2-7.3 0-0.5-0.1-0.9-0.1-1.2h-7.1v2.6h4.3c-0.2 1.1-1.3 3.2-4.3 3.2-2.6 0-4.7-2.1-4.7-4.7s2.1-4.7 4.7-4.7c1.5 0 2.4 0.6 3 1.2l2-2c-1.3-1.2-3-2-5-2m11.7 4v2.2h-2.2v2.2h2.2v2.2h2.2v-2.2h2.2v-2.2h-2.2v-2.2h-2.2" fill="#fff" id="path138" /><path d="m536 216h48v48h-48z" fill="#e350bb" id="path140" /><path d="m600 264h48v-48h-48z" fill="#d01d15" id="path142" /><path d="m616 237.4c0-0.9 0.2-1.7 0.5-2.5s0.7-1.4 1.2-2 1.1-1.1 1.8-1.5 1.4-0.7 2.2-0.9 1.6-0.3 2.4-0.3c1.3 0 2.5 0.3 3.6 0.8s2 1.3 2.7 2.3 1 2.2 1 3.5c0 0.8-0.1 1.5-0.2 2.3-0.2 0.7-0.4 1.5-0.7 2.1-0.3 0.7-0.7 1.3-1.2 1.8s-1.1 0.9-1.8 1.2-1.5 0.5-2.3 0.5c-0.5 0-1.1-0.1-1.6-0.4s-0.9-0.6-1.2-1.1c-0.1 0.3-0.2 0.8-0.3 1.4s-0.2 1-0.3 1.1c0 0.2-0.1 0.5-0.2 0.9s-0.2 0.7-0.3 0.9l-0.4 0.8-0.6 0.9c-0.2 0.3-0.5 0.6-0.7 1l-0.2 0.1-0.1-0.1c-0.1-1.3-0.2-2-0.2-2.3 0-0.7 0.1-1.6 0.3-2.5s0.4-2.1 0.8-3.5 0.6-2.2 0.6-2.5c-0.3-0.5-0.4-1.2-0.4-2 0-0.7 0.2-1.3 0.6-1.9s1-0.9 1.6-0.9c0.5 0 0.9 0.2 1.1 0.5 0.3 0.3 0.4 0.7 0.4 1.2s-0.2 1.3-0.5 2.3c-0.4 1-0.5 1.8-0.5 2.3s0.2 0.9 0.5 1.3c0.4 0.3 0.8 0.5 1.3 0.5 0.4 0 0.9-0.1 1.2-0.3 0.4-0.2 0.7-0.5 0.9-0.8 0.3-0.3 0.5-0.7 0.7-1.1s0.4-0.9 0.5-1.3c0.1-0.5 0.2-0.9 0.2-1.3 0.1-0.4 0.1-0.8 0.1-1.2 0-1.4-0.4-2.5-1.3-3.3s-2-1.2-3.4-1.2c-1.6 0-3 0.5-4 1.6-1.1 1-1.6 2.4-1.6 4 0 0.4 0.1 0.7 0.2 1s0.2 0.6 0.3 0.8 0.2 0.4 0.3 0.5c0.1 0.2 0.2 0.3 0.2 0.4 0 0.2-0.1 0.5-0.2 0.9s-0.3 0.5-0.4 0.5h-0.2c-0.4-0.1-0.8-0.3-1.1-0.7-0.3-0.3-0.6-0.7-0.7-1.1-0.2-0.4-0.3-0.9-0.4-1.3s-0.1-0.9-0.1-1.3" fill="#fff" id="path144" /><path d="m472 216h48v48h-48z" fill="#e44040" id="path146" /><path d="m556.6 240c0-1.9 1.5-3.4 3.4-3.4s3.4 1.5 3.4 3.4-1.5 3.4-3.4 3.4-3.4-1.5-3.4-3.4m-1.9 0c0 2.9 2.4 5.3 5.3 5.3s5.3-2.4 5.3-5.3-2.4-5.3-5.3-5.3-5.3 2.4-5.3 5.3m9.5-5.5c0 0.7 0.6 1.2 1.2 1.2 0.7 0 1.2-0.6 1.2-1.2 0-0.7-0.6-1.2-1.2-1.2-0.7 0-1.2 0.6-1.2 1.2m-8.4 13.8c-1 0-1.5-0.2-1.9-0.4-0.5-0.2-0.8-0.4-1.2-0.8s-0.6-0.7-0.8-1.2c-0.1-0.4-0.3-0.9-0.4-1.9 0-1.1-0.1-1.4-0.1-4.2 0-2.7 0-3.1 0.1-4.2 0-1 0.2-1.5 0.4-1.9 0.2-0.5 0.4-0.8 0.8-1.2s0.7-0.6 1.2-0.8c0.4-0.1 0.9-0.3 1.9-0.4 1.1 0 1.4-0.1 4.2-0.1 2.7 0 3.1 0 4.2 0.1 1 0 1.5 0.2 1.9 0.4 0.5 0.2 0.8 0.4 1.2 0.8s0.6 0.7 0.8 1.2c0.1 0.4 0.3 0.9 0.4 1.9 0.1 1.1 0.1 1.4 0.1 4.2 0 2.7 0 3.1-0.1 4.2 0 1-0.2 1.5-0.4 1.9-0.2 0.5-0.4 0.8-0.8 1.2s-0.7 0.6-1.2 0.8c-0.4 0.1-0.9 0.3-1.9 0.4-1.1 0-1.4 0.1-4.2 0.1-2.7 0-3.1 0-4.2-0.1m-0.1-18.6c-1.1 0-1.8 0.2-2.5 0.5s-1.2 0.6-1.8 1.2-0.9 1.1-1.2 1.8-0.4 1.4-0.5 2.5-0.1 1.4-0.1 4.2 0 3.1 0.1 4.2 0.2 1.8 0.5 2.5 0.6 1.2 1.2 1.8 1.1 0.9 1.8 1.2 1.4 0.4 2.5 0.5c1.1 0 1.4 0.1 4.2 0.1s3.1 0 4.2-0.1c1.1 0 1.8-0.2 2.5-0.5s1.2-0.6 1.8-1.2 0.9-1.1 1.2-1.8 0.4-1.4 0.5-2.5 0.1-1.4 0.1-4.2 0-3.1-0.1-4.2c0-1.1-0.2-1.8-0.5-2.5s-0.6-1.2-1.2-1.8-1.1-0.9-1.8-1.2-1.4-0.4-2.5-0.5c-1.1 0-1.4-0.1-4.2-0.1s-3.1 0-4.2 0.1" fill="#fff" id="path148" /><path d="m664 216h48v48h-48z" fill="#29445d" id="path150" /><path d="m686.1 229.7c0 4.3-3.5 5.8-3.5 5.8v2.7h2.2v8.6c0 4 4.7 4 8.5 2.7v-3.3c-3.3 1.9-5 0.7-5-1.7v-6.3h4.5v-3.2h-4.5v-5.4h-2.2" fill="#fff" id="path152" /><path d="m728 216h48v48h-48z" fill="#4981e6" id="path154" /><path d="m752.2 231.8c-4.5 0-8.2 3.7-8.2 8.2s3.7 8.2 8.2 8.2c4.7 0 7.9-3.3 7.9-8 0-0.5-0.1-1-0.1-1.4h-7.8v2.8h4.6c-0.2 1.2-1.4 3.5-4.6 3.5-2.8 0-5.1-2.3-5.1-5.2s2.3-5.2 5.1-5.2c1.6 0 2.6 0.7 3.3 1.3l2.2-2.1c-1.4-1.3-3.3-2.1-5.5-2.1" fill="#fff" id="path156" /><rect x="728" y="152" width="48" height="48" fill="#4981e6" id="rect158" /><path d="m752 166.35h-7.3c-0.5 0-1 0.1-1.4 0.5-0.4 0.3-0.6 0.7-0.8 1.2v0.1l-1.5 5.8v0.3c0 0.8 0.4 1.3 0.9 1.7 0.1 0.1 0.3 0.2 0.4 0.3v7.7c0 0.9 0.8 1.7 1.7 1.7h16c0.9 0 1.7-0.8 1.7-1.7v-7.7c0.2-0.1 0.3-0.2 0.4-0.3 0.5-0.4 0.9-0.9 0.9-1.7v-0.3l-1.5-5.8v-0.1c-0.2-0.5-0.4-0.9-0.8-1.2s-0.9-0.5-1.4-0.5zm-0.4 2.1h7.6s0.1 0.1 0.1 0.2l1.4 5.5c0-0.1 0-0.1-0.2 0.1s-0.6 0.4-0.9 0.5-0.7 0.1-1 0-0.6-0.4-0.9-1h-1.9c-1.1 2.3-3.1 0.5-3.1 0.1h-1.8c0 0.5-2 2.2-3.1-0.1h-1.9c-0.3 0.7-0.6 0.9-0.9 1s-0.6 0.1-1 0c-0.3-0.1-0.7-0.3-0.9-0.5s-0.2-0.3-0.2-0.1l1.4-5.5 0.1-0.2h7zm-4.4 7.3c1.5 1.3 3.5 1.3 4.8 0.2 1.3 1 3.3 1.1 4.7-0.2 0.4 0.4 0.8 0.7 1.2 0.9 0.5 0.2 1.1 0.3 1.6 0.3v6.5h-15.1v-6.5c0.5 0 1.1 0 1.6-0.3 0.4-0.2 0.8-0.5 1.2-0.9zm9 1.5c-1.6 0-2.8 1.3-2.8 2.8 0 1.6 1.3 2.8 2.8 2.8 1.6 0 2.7-1.1 2.7-2.7v-0.5h-2.7v1h1.6c-0.1 0.4-0.5 1.2-1.6 1.2-1 0-1.7-0.8-1.7-1.8s0.8-1.8 1.7-1.8c0.5 0 0.9 0.2 1.1 0.4l0.8-0.7c-0.5-0.5-1.1-0.7-1.9-0.7z" fill="#fff" id="path160" /><path d="m752 102.6h-7.3c-0.5 0-1 0.1-1.4 0.5-0.4 0.3-0.6 0.7-0.8 1.2v0.1l-1.5 5.8v0.3c0 0.8 0.4 1.3 0.9 1.7 0.1 0.1 0.3 0.2 0.4 0.3v7.7c0 0.9 0.8 1.7 1.7 1.7h16c0.9 0 1.7-0.8 1.7-1.7v-7.7c0.2-0.1 0.3-0.2 0.4-0.3 0.5-0.4 0.9-0.9 0.9-1.7v-0.3l-1.5-5.8v-0.1c-0.2-0.5-0.4-0.9-0.8-1.2s-0.9-0.5-1.4-0.5zm-0.4 2.1h7.6s0.1 0.1 0.1 0.2l1.4 5.5c0-0.1 0-0.1-0.2 0.1s-0.6 0.4-0.9 0.5-0.7 0.1-1 0-0.6-0.4-0.9-1h-1.9c-1.1 2.3-3.1 0.5-3.1 0.1h-1.8c0 0.5-2 2.2-3.1-0.1h-1.9c-0.3 0.7-0.6 0.9-0.9 1s-0.6 0.1-1 0c-0.3-0.1-0.7-0.3-0.9-0.5s-0.2-0.3-0.2-0.1l1.4-5.5 0.1-0.2h7zm-4.4 7.3c1.5 1.3 3.5 1.3 4.8 0.2 1.3 1 3.3 1.1 4.7-0.2 0.4 0.4 0.8 0.7 1.2 0.9 0.5 0.2 1.1 0.3 1.6 0.3v6.5h-15.1v-6.5c0.5 0 1.1 0 1.6-0.3 0.4-0.2 0.8-0.5 1.2-0.9zm9 1.5c-1.6 0-2.8 1.3-2.8 2.8 0 1.6 1.3 2.8 2.8 2.8 1.6 0 2.7-1.1 2.7-2.7v-0.5h-2.7v1h1.6c-0.1 0.4-0.5 1.2-1.6 1.2-1 0-1.7-0.8-1.7-1.8s0.8-1.8 1.7-1.8c0.5 0 0.9 0.2 1.1 0.4l0.8-0.7c-0.5-0.5-1.1-0.7-1.9-0.7z" fill="#dcdcdc" id="path162" /><path d="m752 38.4h-7.3c-0.5 0-1 0.1-1.4 0.5-0.4 0.3-0.6 0.7-0.8 1.2v0.1l-1.5 5.8v0.3c0 0.8 0.4 1.3 0.9 1.7 0.1 0.1 0.3 0.2 0.4 0.3v7.7c0 0.9 0.8 1.7 1.7 1.7h16c0.9 0 1.7-0.8 1.7-1.7v-7.7c0.2-0.1 0.3-0.2 0.4-0.3 0.5-0.4 0.9-0.9 0.9-1.7v-0.3l-1.5-5.8v-0.1c-0.2-0.5-0.4-0.9-0.8-1.2s-0.9-0.5-1.4-0.5zm-0.4 2.1h7.6s0.1 0.1 0.1 0.2l1.4 5.5c0-0.1 0-0.1-0.2 0.1s-0.6 0.4-0.9 0.5-0.7 0.1-1 0-0.6-0.4-0.9-1h-1.9c-1.1 2.3-3.1 0.5-3.1 0.1h-1.8c0 0.5-2 2.2-3.1-0.1h-1.9c-0.3 0.7-0.6 0.9-0.9 1s-0.6 0.1-1 0c-0.3-0.1-0.7-0.3-0.9-0.5s-0.2-0.3-0.2-0.1l1.4-5.5 0.1-0.2h7zm-4.4 7.3c1.5 1.3 3.5 1.3 4.8 0.2 1.3 1 3.3 1.1 4.7-0.2 0.4 0.4 0.8 0.7 1.2 0.9 0.5 0.2 1.1 0.3 1.6 0.3v6.5h-15.1v-6.5c0.5 0 1.1 0 1.6-0.3 0.4-0.2 0.8-0.5 1.2-0.9zm9 1.5c-1.6 0-2.8 1.3-2.8 2.8 0 1.6 1.3 2.8 2.8 2.8 1.6 0 2.7-1.1 2.7-2.7v-0.5h-2.7v1h1.6c-0.1 0.4-0.5 1.2-1.6 1.2-1 0-1.7-0.8-1.7-1.8s0.8-1.8 1.7-1.8c0.5 0 0.9 0.2 1.1 0.4l0.8-0.7c-0.5-0.5-1.1-0.7-1.9-0.7z" fill="#fafafa" id="path164" /><path d="m178 233.3h3.3v-4h-3.3c-2.6 0-4.7 2.1-4.7 4.7v2h-2.7v4h2.7v10.7h4v-10.7h3.3l0.7-4h-4v-2c0-0.4 0.3-0.7 0.7-0.7" fill="#fff" id="path166" /><path d="m242 233.3h3.3v-4h-3.3c-2.6 0-4.7 2.1-4.7 4.7v2h-2.7v4h2.7v10.7h4v-10.7h3.3l0.7-4h-4v-2c0-0.4 0.3-0.7 0.7-0.7" fill="#fff" id="path168" /><path d="m360.7 231.3c-1.1 0-2 0.9-2 2s0.9 2 2 2 2-0.9 2-2-0.9-2-2-2m-2 5.3v12h4v-12h-4m6.7 0v12h3.8v-5.8c0-1.5 0.3-3 2.3-3s2 1.7 2 3.1v5.7h3.8v-6.4c0-3.2-0.7-5.6-4.6-5.6-1.9 0-3.1 1-3.6 1.9h-0.1v-1.9h-3.7" fill="#1c86bd" id="path170" /><path d="m491.7 232.5c-4.1 0-7.5 3.4-7.5 7.5s3.4 7.5 7.5 7.5c4.3 0 7.2-3 7.2-7.3 0-0.5-0.1-0.9-0.1-1.2h-7.1v2.6h4.3c-0.2 1.1-1.3 3.2-4.3 3.2-2.6 0-4.7-2.1-4.7-4.7s2.1-4.7 4.7-4.7c1.5 0 2.4 0.6 3 1.2l2-2c-1.3-1.2-3-2-5-2m11.7 4v2.2h-2.2v2.2h2.2v2.2h2.2v-2.2h2.2v-2.2h-2.2v-2.2h-2.2" fill="#fff" id="path172" /><g fill="#dcdcdc" id="g184"><path d="m24 280h48v48h-48z" id="path174" /><path d="m88 280h48v48h-48z" id="path176" /><path d="m152 280h48v48h-48z" id="path178" /><path d="m344 328h48v-48h-48z" id="path180" /><path d="m280 280h48v48h-48z" id="path182" /></g><path d="m296.7 295.3c-1.1 0-2 0.9-2 2s0.9 2 2 2 2-0.9 2-2-0.9-2-2-2m-2 5.3v12h4v-12h-4m6.7 0v12h3.8v-5.8c0-1.5 0.3-3 2.3-3s2 1.7 2 3.1v5.7h3.8v-6.4c0-3.2-0.7-5.6-4.6-5.6-1.9 0-3.1 1-3.6 1.9h-0.1v-1.9h-3.7" fill="#fff" id="path186" /><path d="m216 280h48v48h-48z" fill="#dcdcdc" id="path188" /><path d="m408 280h48v48h-48z" fill="#dcdcdc" id="path190" /><path d="m427.7 296.5c-4.1 0-7.5 3.4-7.5 7.5s3.4 7.5 7.5 7.5c4.3 0 7.2-3 7.2-7.3 0-0.5-0.1-0.9-0.1-1.2h-7.1v2.6h4.3c-0.2 1.1-1.3 3.2-4.3 3.2-2.6 0-4.7-2.1-4.7-4.7s2.1-4.7 4.7-4.7c1.5 0 2.4 0.6 3 1.2l2-2c-1.3-1.2-3-2-5-2m11.7 4v2.2h-2.2v2.2h2.2v2.2h2.2v-2.2h2.2v-2.2h-2.2v-2.2h-2.2" fill="#fff" id="path192" /><path d="m536 280h48v48h-48z" fill="#dcdcdc" id="path194" /><path d="m600 328h48v-48h-48z" fill="#dcdcdc" id="path196" /><path d="m616 301.4c0-0.9 0.2-1.7 0.5-2.5s0.7-1.4 1.2-2 1.1-1.1 1.8-1.5 1.4-0.7 2.2-0.9 1.6-0.3 2.4-0.3c1.3 0 2.5 0.3 3.6 0.8s2 1.3 2.7 2.3 1 2.2 1 3.5c0 0.8-0.1 1.5-0.2 2.3-0.2 0.7-0.4 1.5-0.7 2.1-0.3 0.7-0.7 1.3-1.2 1.8s-1.1 0.9-1.8 1.2-1.5 0.5-2.3 0.5c-0.5 0-1.1-0.1-1.6-0.4s-0.9-0.6-1.2-1.1c-0.1 0.3-0.2 0.8-0.3 1.4s-0.2 1-0.3 1.1c0 0.2-0.1 0.5-0.2 0.9s-0.2 0.7-0.3 0.9l-0.4 0.8-0.6 0.9c-0.2 0.3-0.5 0.6-0.7 1l-0.2 0.1-0.1-0.1c-0.1-1.3-0.2-2-0.2-2.3 0-0.7 0.1-1.6 0.3-2.5s0.4-2.1 0.8-3.5 0.6-2.2 0.6-2.5c-0.3-0.5-0.4-1.2-0.4-2 0-0.7 0.2-1.3 0.6-1.9s1-0.9 1.6-0.9c0.5 0 0.9 0.2 1.1 0.5 0.3 0.3 0.4 0.7 0.4 1.2s-0.2 1.3-0.5 2.3c-0.4 1-0.5 1.8-0.5 2.3s0.2 0.9 0.5 1.3c0.4 0.3 0.8 0.5 1.3 0.5 0.4 0 0.9-0.1 1.2-0.3 0.4-0.2 0.7-0.5 0.9-0.8 0.3-0.3 0.5-0.7 0.7-1.1s0.4-0.9 0.5-1.3c0.1-0.5 0.2-0.9 0.2-1.3 0.1-0.4 0.1-0.8 0.1-1.2 0-1.4-0.4-2.5-1.3-3.3s-2-1.2-3.4-1.2c-1.6 0-3 0.5-4 1.6-1.1 1-1.6 2.4-1.6 4 0 0.4 0.1 0.7 0.2 1s0.2 0.6 0.3 0.8 0.2 0.4 0.3 0.5c0.1 0.2 0.2 0.3 0.2 0.4 0 0.2-0.1 0.5-0.2 0.9s-0.3 0.5-0.4 0.5h-0.2c-0.4-0.1-0.8-0.3-1.1-0.7-0.3-0.3-0.6-0.7-0.7-1.1-0.2-0.4-0.3-0.9-0.4-1.3s-0.1-0.9-0.1-1.3" fill="#fff" id="path198" /><path d="m472 280h48v48h-48z" fill="#dcdcdc" id="path200" /><path d="m556.6 304c0-1.9 1.5-3.4 3.4-3.4s3.4 1.5 3.4 3.4-1.5 3.4-3.4 3.4-3.4-1.5-3.4-3.4m-1.9 0c0 2.9 2.4 5.3 5.3 5.3s5.3-2.4 5.3-5.3-2.4-5.3-5.3-5.3-5.3 2.4-5.3 5.3m9.5-5.5c0 0.7 0.6 1.2 1.2 1.2 0.7 0 1.2-0.6 1.2-1.2 0-0.7-0.6-1.2-1.2-1.2-0.7 0-1.2 0.6-1.2 1.2m-8.4 13.8c-1 0-1.5-0.2-1.9-0.4-0.5-0.2-0.8-0.4-1.2-0.8s-0.6-0.7-0.8-1.2c-0.1-0.4-0.3-0.9-0.4-1.9 0-1.1-0.1-1.4-0.1-4.2 0-2.7 0-3.1 0.1-4.2 0-1 0.2-1.5 0.4-1.9 0.2-0.5 0.4-0.8 0.8-1.2s0.7-0.6 1.2-0.8c0.4-0.1 0.9-0.3 1.9-0.4 1.1 0 1.4-0.1 4.2-0.1 2.7 0 3.1 0 4.2 0.1 1 0 1.5 0.2 1.9 0.4 0.5 0.2 0.8 0.4 1.2 0.8s0.6 0.7 0.8 1.2c0.1 0.4 0.3 0.9 0.4 1.9 0.1 1.1 0.1 1.4 0.1 4.2 0 2.7 0 3.1-0.1 4.2 0 1-0.2 1.5-0.4 1.9-0.2 0.5-0.4 0.8-0.8 1.2s-0.7 0.6-1.2 0.8c-0.4 0.1-0.9 0.3-1.9 0.4-1.1 0-1.4 0.1-4.2 0.1-2.7 0-3.1 0-4.2-0.1m-0.1-18.6c-1.1 0-1.8 0.2-2.5 0.5s-1.2 0.6-1.8 1.2-0.9 1.1-1.2 1.8-0.4 1.4-0.5 2.5-0.1 1.4-0.1 4.2 0 3.1 0.1 4.2 0.2 1.8 0.5 2.5 0.6 1.2 1.2 1.8 1.1 0.9 1.8 1.2 1.4 0.4 2.5 0.5c1.1 0 1.4 0.1 4.2 0.1s3.1 0 4.2-0.1c1.1 0 1.8-0.2 2.5-0.5s1.2-0.6 1.8-1.2 0.9-1.1 1.2-1.8 0.4-1.4 0.5-2.5 0.1-1.4 0.1-4.2 0-3.1-0.1-4.2c0-1.1-0.2-1.8-0.5-2.5s-0.6-1.2-1.2-1.8-1.1-0.9-1.8-1.2-1.4-0.4-2.5-0.5c-1.1 0-1.4-0.1-4.2-0.1s-3.1 0-4.2 0.1" fill="#fff" id="path202" /><path d="m664 280h48v48h-48z" fill="#dcdcdc" id="path204" /><path d="m686.1 293.7c0 4.3-3.5 5.8-3.5 5.8v2.7h2.2v8.6c0 4 4.7 4 8.5 2.7v-3.3c-3.3 1.9-5 0.7-5-1.7v-6.3h4.5v-3.2h-4.5v-5.4h-2.2" fill="#fff" id="path206" /><path d="m728 280h48v48h-48z" fill="#dcdcdc" id="path208" /><g fill="#fff" id="g220"><path d="m752.2 295.8c-4.5 0-8.2 3.7-8.2 8.2s3.7 8.2 8.2 8.2c4.7 0 7.9-3.3 7.9-8 0-0.5-0.1-1-0.1-1.4h-7.7v2.8h4.6c-0.2 1.2-1.4 3.5-4.6 3.5-2.8 0-5.1-2.3-5.1-5.2s2.3-5.2 5.1-5.2c1.6 0 2.6 0.7 3.3 1.3l2.2-2.1c-1.4-1.3-3.3-2.1-5.5-2.1" id="path210" /><path d="m178 297.3h3.3v-4h-3.3c-2.6 0-4.7 2.1-4.7 4.7v2h-2.7v4h2.7v10.7h4v-10.7h3.3l0.7-4h-4v-2c0-0.4 0.3-0.7 0.7-0.7" id="path212" /><path d="m242 297.3h3.3v-4h-3.3c-2.6 0-4.7 2.1-4.7 4.7v2h-2.7v4h2.7v10.7h4v-10.7h3.3l0.7-4h-4v-2c0-0.4 0.3-0.7 0.7-0.7" id="path214" /><path d="m360.7 295.3c-1.1 0-2 0.9-2 2s0.9 2 2 2 2-0.9 2-2-0.9-2-2-2m-2 5.3v12h4v-12h-4m6.7 0v12h3.8v-5.8c0-1.5 0.3-3 2.3-3s2 1.7 2 3.1v5.7h3.8v-6.4c0-3.2-0.7-5.6-4.6-5.6-1.9 0-3.1 1-3.6 1.9h-0.1v-1.9h-3.7" id="path216" /><path d="m491.7 296.5c-4.1 0-7.5 3.4-7.5 7.5s3.4 7.5 7.5 7.5c4.3 0 7.2-3 7.2-7.3 0-0.5-0.1-0.9-0.1-1.2h-7.1v2.6h4.3c-0.2 1.1-1.3 3.2-4.3 3.2-2.6 0-4.7-2.1-4.7-4.7s2.1-4.7 4.7-4.7c1.5 0 2.4 0.6 3 1.2l2-2c-1.3-1.2-3-2-5-2m11.7 4v2.2h-2.2v2.2h2.2v2.2h2.2v-2.2h2.2v-2.2h-2.2v-2.2h-2.2" id="path218" /></g><g fill="#0ff" stroke-width=".75" id="g232"><path d="m1224 328h24v24h-24z" id="path222" /><path d="m1224 0h24v24h-24z" id="path224" /><path d="m0 328h24v24h-24z" id="path226" /><path d="m0 0h24v24h-24z" id="path228" /><path d="m0 0h24v24h-24z" id="path230" /></g><path d="m792 24h48v48h-48z" fill="#dcdcdc" id="path234" /><path d="m792 216h48v48h-48z" fill="#ff4500" id="path236" /><rect x="792" y="152" width="48" height="48" fill="#ff4500" id="rect238" /><path d="m792 280h48v48h-48z" fill="#dcdcdc" id="path240" /><g fill="#fff" id="g250"><path d="m823.21 37.737c-0.20358-1e-3 -0.4083 0.0324-0.60851 0.10181-0.39831 0.13819-0.73969 0.41728-0.94959 0.7763-0.0292 0.05-0.0566 0.0966-0.0608 0.10362-6e-3 0.01-0.25624-0.0399-1.1529-0.22994-3.3622-0.71271-3.0501-0.64892-3.1551-0.64487-0.0831 3e-3 -0.10267 8e-3 -0.16122 0.0365-0.0816 0.0402-0.15937 0.11593-0.1957 0.19059-0.0215 0.0442-0.15735 0.66975-0.66882 3.0799-0.35301 1.6635-0.64393 3.0336-0.64651 3.0447-5e-3 0.0193-0.0161 0.0207-0.26168 0.0324-1.8769 0.0896-3.6858 0.54474-5.2207 1.3135-0.40258 0.20165-0.74159 0.39884-1.1152 0.64867-0.13336 0.0892-0.24433 0.16215-0.24661 0.16215-2e-3 0-0.0516-0.0404-0.1097-0.0899-0.35063-0.29848-0.79742-0.50296-1.2607-0.57698-0.1354-0.0216-0.47521-0.0298-0.62288-0.0151-0.67355 0.0674-1.3036 0.4091-1.7216 0.93365-0.15007 0.1883-0.31906 0.48687-0.39398 0.69602-0.17602 0.49149-0.20391 1.0012-0.0813 1.4864 0.17861 0.70689 0.63502 1.286 1.2816 1.6261l0.11719 0.0617-0.0123 0.0839c-0.0569 0.38892-0.0599 0.89437-7e-3 1.3032 0.0616 0.48159 0.20258 0.98067 0.40854 1.4464 0.8328 1.883 2.794 3.4538 5.3615 4.2942 1.1852 0.38793 2.4525 0.60726 3.796 0.65694 0.26541 0.01 0.88972 5e-3 1.1798-0.01 2.7111-0.13498 5.1898-1.0014 6.9504-2.4295 0.71535-0.58023 1.3035-1.2533 1.7076-1.954 0.17304-0.30009 0.35969-0.71222 0.46328-1.023 0.23769-0.71306 0.31896-1.4933 0.22814-2.1906-0.0106-0.0815-0.0193-0.15568-0.0194-0.16496-1.3e-4 -0.0116 0.034-0.0344 0.10962-0.073 0.1253-0.0641 0.31492-0.188 0.42929-0.28052 0.10007-0.081 0.28801-0.2689 0.36897-0.36897 0.28504-0.35232 0.47454-0.78454 0.54437-1.2415 0.0285-0.18706 0.031-0.52578 5e-3 -0.70447-0.14339-0.9873-0.80669-1.7759-1.7428-2.0721-0.69048-0.21846-1.4622-0.1225-2.0782 0.25842-0.0999 0.0618-0.2862 0.20137-0.37433 0.28047-0.0417 0.0374-0.0609 0.0489-0.0705 0.042-0.10293-0.0737-0.48473-0.32239-0.61749-0.40224-0.48865-0.2939-1.0244-0.56024-1.5747-0.78284-1.3294-0.53773-2.878-0.86943-4.381-0.93839-0.0801-4e-3 -0.14563-9e-3 -0.14563-0.0128 0-3e-3 0.25768-1.2116 0.57262-2.6849s0.57262-2.6827 0.57262-2.6876c0-5e-3 8e-3 -9e-3 0.0172-9e-3 9e-3 6e-5 0.8524 0.17912 1.8731 0.3979l1.8558 0.39776 0.0128 0.11797c0.0886 0.81936 0.71346 1.4678 1.5315 1.5893 0.13339 0.0198 0.38868 0.0199 0.51695 1.9e-4 0.52623-0.0808 0.98757-0.38273 1.2634-0.82672 0.20924-0.33684 0.30575-0.7502 0.26415-1.1314-0.0686-0.62861-0.44718-1.1694-1.0064-1.4376-0.24601-0.11796-0.50585-0.17822-0.76758-0.18012zm-11.207 10.431c0.11114-5.1e-4 0.2263 7e-3 0.30955 0.0208 0.37751 0.0646 0.69442 0.22708 0.96359 0.49391 0.22268 0.22074 0.3694 0.46259 0.45737 0.75397 0.0475 0.15756 0.0661 0.27533 0.0721 0.45663 0.01 0.2996-0.0445 0.56604-0.1687 0.82773-0.15721 0.3313-0.43637 0.62523-0.76703 0.80761-0.15334 0.0846-0.37217 0.15857-0.56222 0.19011-0.11371 0.0189-0.37232 0.0267-0.47389 0.0143-0.21577-0.0263-0.39439-0.0778-0.58038-0.16751-0.46228-0.22286-0.79717-0.61256-0.94382-1.0982-0.0469-0.15548-0.066-0.27424-0.0723-0.45226-0.0111-0.3093 0.0426-0.56293 0.1786-0.84367 0.25995-0.53653 0.75516-0.89849 1.3521-0.98833 0.0647-0.01 0.14864-0.0147 0.23508-0.0151zm7.9313 0.0264c0.26963-4e-4 0.35501 0.0121 0.57017 0.0838 0.56984 0.18969 1.0107 0.65883 1.1616 1.2361 0.0481 0.18401 0.0552 0.24418 0.0548 0.46178-4.7e-4 0.22829-0.0136 0.32498-0.0698 0.51105-0.0863 0.28564-0.2213 0.51373-0.43293 0.73149-0.29807 0.3067-0.66904 0.4879-1.0934 0.53401-0.0898 0.01-0.27181 0.0119-0.33855 4e-3 -0.37366-0.0444-0.65501-0.1525-0.9219-0.35414-0.39451-0.29806-0.6445-0.73652-0.70306-1.2331-0.0146-0.12366-6e-3 -0.38527 0.0158-0.50918 0.11559-0.64333 0.57587-1.1752 1.1956-1.3815 0.21811-0.0726 0.29304-0.0839 0.56169-0.0842zm-7.8493 5.7314c0.0425 3.5e-4 0.0706 5e-3 0.11095 0.0177 0.0794 0.0243 0.1263 0.0558 0.25357 0.17069 0.18723 0.16896 0.35252 0.27903 0.61831 0.41172 1.0807 0.53948 2.8025 0.72623 4.3292 0.46951 0.9808-0.16492 1.7123-0.46553 2.1694-0.89155 0.1115-0.10391 0.15137-0.13085 0.23631-0.15955 0.0511-0.0172 0.0796-0.0204 0.15626-0.0173 0.0804 3e-3 0.10348 8e-3 0.1614 0.0355 0.0909 0.0426 0.14026 0.0836 0.18604 0.15442 0.06 0.0928 0.0806 0.17436 0.075 0.29796-5e-3 0.096-7e-3 0.108-0.0453 0.1848-0.0331 0.0669-0.0567 0.0976-0.12753 0.16585-0.35902 0.3461-0.87954 0.64317-1.4954 0.85345-0.64057 0.21873-1.4052 0.35532-2.2344 0.39913-0.16666 9e-3 -0.74853 0.0112-0.87867 4e-3 -0.57215-0.0334-0.9768-0.0823-1.4167-0.17121-1.0063-0.20334-1.7515-0.52846-2.3022-1.0044-0.18825-0.1627-0.25076-0.25092-0.27535-0.38856-0.0348-0.19473 0.0728-0.39503 0.26253-0.48881 0.0683-0.0338 0.0858-0.0381 0.16828-0.0417 0.0183-7.9e-4 0.0341-1e-3 0.0484-1e-3z" id="path242" /><path d="m823.21 165.74c-0.20358-1e-3 -0.4083 0.0323-0.60851 0.10181-0.39831 0.13819-0.73969 0.41727-0.94959 0.7763-0.0292 0.0499-0.0566 0.0966-0.0608 0.10362-6e-3 0.01-0.25624-0.0399-1.1529-0.22994-3.3622-0.71271-3.0501-0.64892-3.1551-0.64487-0.0831 3e-3 -0.10267 8e-3 -0.16122 0.0365-0.0816 0.0402-0.15937 0.11592-0.1957 0.19059-0.0215 0.0442-0.15735 0.66975-0.66882 3.0799-0.35301 1.6635-0.64393 3.0336-0.64651 3.0447-5e-3 0.0193-0.0161 0.0207-0.26168 0.0324-1.8769 0.0896-3.6858 0.54474-5.2207 1.3135-0.40258 0.20165-0.74159 0.39884-1.1152 0.64867-0.13336 0.0892-0.24433 0.16215-0.24661 0.16215-2e-3 0-0.0516-0.0404-0.1097-0.0899-0.35063-0.29848-0.79742-0.50296-1.2607-0.57698-0.1354-0.0216-0.47521-0.0298-0.62288-0.0151-0.67355 0.0674-1.3036 0.4091-1.7216 0.93365-0.15007 0.18829-0.31906 0.48687-0.39398 0.69602-0.17602 0.4915-0.20391 1.0012-0.0813 1.4864 0.17861 0.70689 0.63502 1.286 1.2816 1.6261l0.11719 0.0617-0.0123 0.0839c-0.0569 0.38892-0.0599 0.89438-7e-3 1.3032 0.0616 0.48159 0.20258 0.98067 0.40854 1.4464 0.8328 1.883 2.794 3.4538 5.3615 4.2942 1.1852 0.38792 2.4525 0.60726 3.796 0.65694 0.26541 0.01 0.88972 5e-3 1.1798-0.01 2.7111-0.13498 5.1898-1.0014 6.9504-2.4295 0.71535-0.58024 1.3035-1.2533 1.7076-1.954 0.17304-0.30009 0.35969-0.71222 0.46328-1.023 0.23769-0.71305 0.31896-1.4933 0.22814-2.1906-0.0106-0.0815-0.0193-0.15569-0.0194-0.16497-1.3e-4 -0.0116 0.034-0.0344 0.10962-0.073 0.1253-0.0641 0.31492-0.188 0.42929-0.28052 0.10007-0.081 0.28801-0.2689 0.36897-0.36897 0.28504-0.35233 0.47454-0.78454 0.54437-1.2415 0.0285-0.18706 0.031-0.52578 5e-3 -0.70448-0.14339-0.9873-0.80669-1.7759-1.7428-2.0721-0.69048-0.21846-1.4622-0.1225-2.0782 0.25843-0.0999 0.0618-0.2862 0.20137-0.37433 0.28046-0.0417 0.0374-0.0609 0.0489-0.0705 0.042-0.10293-0.0737-0.48473-0.32238-0.61749-0.40223-0.48865-0.2939-1.0244-0.56025-1.5747-0.78284-1.3294-0.53773-2.878-0.86943-4.381-0.93839-0.0801-4e-3 -0.14563-9e-3 -0.14563-0.0128 0-3e-3 0.25768-1.2116 0.57262-2.6849s0.57262-2.6828 0.57262-2.6876c0-5e-3 8e-3 -9e-3 0.0172-9e-3 9e-3 6e-5 0.8524 0.17912 1.8731 0.3979l1.8558 0.39776 0.0128 0.11797c0.0886 0.81936 0.71346 1.4678 1.5315 1.5893 0.13339 0.0198 0.38868 0.0199 0.51695 1.9e-4 0.52623-0.0808 0.98757-0.38274 1.2634-0.82673 0.20924-0.33684 0.30575-0.7502 0.26415-1.1314-0.0686-0.62861-0.44718-1.1694-1.0064-1.4376-0.24601-0.11796-0.50585-0.17822-0.76758-0.18012zm-11.207 10.431c0.11114-5.1e-4 0.2263 7e-3 0.30955 0.0208 0.37751 0.0646 0.69442 0.22708 0.96359 0.49391 0.22268 0.22074 0.3694 0.46259 0.45737 0.75397 0.0475 0.15755 0.0661 0.27533 0.0721 0.45663 0.01 0.2996-0.0445 0.56605-0.1687 0.82773-0.15721 0.3313-0.43637 0.62523-0.76703 0.80761-0.15334 0.0846-0.37217 0.15857-0.56222 0.19011-0.11371 0.0189-0.37232 0.0267-0.47389 0.0143-0.21577-0.0263-0.39439-0.0778-0.58038-0.16751-0.46228-0.22286-0.79717-0.61255-0.94382-1.0982-0.0469-0.15548-0.066-0.27424-0.0723-0.45226-0.0111-0.30929 0.0426-0.56293 0.1786-0.84367 0.25995-0.53653 0.75516-0.89849 1.3521-0.98833 0.0647-0.01 0.14864-0.0147 0.23508-0.0151zm7.9313 0.0264c0.26963-3.9e-4 0.35501 0.0121 0.57017 0.0838 0.56984 0.18969 1.0107 0.65884 1.1616 1.2361 0.0481 0.184 0.0552 0.24418 0.0548 0.46178-4.7e-4 0.22829-0.0136 0.32498-0.0698 0.51104-0.0863 0.28564-0.2213 0.51373-0.43293 0.73149-0.29807 0.3067-0.66904 0.4879-1.0934 0.53401-0.0898 0.01-0.27181 0.0119-0.33855 4e-3 -0.37366-0.0444-0.65501-0.1525-0.9219-0.35414-0.39451-0.29806-0.6445-0.73652-0.70306-1.2331-0.0146-0.12366-6e-3 -0.38527 0.0158-0.50917 0.11559-0.64333 0.57587-1.1752 1.1956-1.3815 0.21811-0.0726 0.29304-0.0839 0.56169-0.0842zm-7.8493 5.7314c0.0425 3.5e-4 0.0706 5e-3 0.11095 0.0177 0.0794 0.0243 0.1263 0.0558 0.25357 0.17069 0.18723 0.16897 0.35252 0.27903 0.61831 0.41172 1.0807 0.53949 2.8025 0.72623 4.3292 0.46952 0.9808-0.16493 1.7123-0.46553 2.1694-0.89155 0.1115-0.10392 0.15137-0.13085 0.23631-0.15955 0.0511-0.0172 0.0796-0.0204 0.15626-0.0173 0.0804 3e-3 0.10348 8e-3 0.1614 0.0355 0.0909 0.0426 0.14026 0.0836 0.18604 0.15442 0.06 0.0928 0.0806 0.17435 0.075 0.29795-5e-3 0.096-7e-3 0.108-0.0453 0.1848-0.0331 0.0669-0.0567 0.0976-0.12753 0.16585-0.35902 0.3461-0.87954 0.64318-1.4954 0.85346-0.64057 0.21873-1.4052 0.35531-2.2344 0.39913-0.16666 9e-3 -0.74853 0.0112-0.87867 4e-3 -0.57215-0.0334-0.9768-0.0823-1.4167-0.17121-1.0063-0.20335-1.7515-0.52846-2.3022-1.0044-0.18825-0.1627-0.25076-0.25092-0.27535-0.38856-0.0348-0.19473 0.0728-0.39503 0.26253-0.48882 0.0683-0.0338 0.0858-0.0381 0.16828-0.0417 0.0183-7.9e-4 0.0341-1e-3 0.0484-1e-3z" id="path244" /><path d="m823.21 229.74c-0.20358-1e-3 -0.4083 0.0324-0.60851 0.10181-0.39831 0.1382-0.73969 0.41728-0.94959 0.7763-0.0292 0.0499-0.0566 0.0966-0.0608 0.10363-6e-3 0.01-0.25624-0.0399-1.1529-0.22995-3.3622-0.7127-3.0501-0.64891-3.1551-0.64486-0.0831 3e-3 -0.10267 8e-3 -0.16122 0.0365-0.0816 0.0402-0.15937 0.11592-0.1957 0.19058-0.0215 0.0442-0.15735 0.66976-0.66882 3.0799-0.35301 1.6635-0.64393 3.0336-0.64651 3.0447-5e-3 0.0193-0.0161 0.0207-0.26168 0.0324-1.8769 0.0896-3.6858 0.54475-5.2207 1.3135-0.40258 0.20164-0.74159 0.39884-1.1152 0.64867-0.13336 0.0892-0.24433 0.16214-0.24661 0.16214-2e-3 0-0.0516-0.0404-0.1097-0.0899-0.35063-0.29847-0.79742-0.50296-1.2607-0.57697-0.1354-0.0216-0.47521-0.0298-0.62288-0.0151-0.67355 0.0674-1.3036 0.4091-1.7216 0.93365-0.15007 0.18829-0.31906 0.48686-0.39398 0.69602-0.17602 0.49149-0.20391 1.0012-0.0813 1.4864 0.17861 0.7069 0.63502 1.286 1.2816 1.6261l0.11719 0.0617-0.0123 0.0839c-0.0569 0.38892-0.0599 0.89437-7e-3 1.3032 0.0616 0.48158 0.20258 0.98067 0.40854 1.4464 0.8328 1.883 2.794 3.4538 5.3615 4.2942 1.1852 0.38793 2.4525 0.60726 3.796 0.65694 0.26541 0.01 0.88972 5e-3 1.1798-0.01 2.7111-0.13498 5.1898-1.0014 6.9504-2.4295 0.71535-0.58023 1.3035-1.2533 1.7076-1.954 0.17304-0.30009 0.35969-0.71222 0.46328-1.023 0.23769-0.71306 0.31896-1.4933 0.22814-2.1906-0.0106-0.0814-0.0193-0.15568-0.0194-0.16496-1.3e-4 -0.0116 0.034-0.0344 0.10962-0.073 0.1253-0.0641 0.31492-0.188 0.42929-0.28052 0.10007-0.081 0.28801-0.2689 0.36897-0.36898 0.28504-0.35232 0.47454-0.78453 0.54437-1.2415 0.0285-0.18706 0.031-0.52577 5e-3 -0.70447-0.14339-0.9873-0.80669-1.7759-1.7428-2.0721-0.69048-0.21846-1.4622-0.1225-2.0782 0.25842-0.0999 0.0618-0.2862 0.20137-0.37433 0.28047-0.0417 0.0374-0.0609 0.0489-0.0705 0.042-0.10293-0.0737-0.48473-0.32239-0.61749-0.40224-0.48865-0.29389-1.0244-0.56024-1.5747-0.78283-1.3294-0.53774-2.878-0.86944-4.381-0.93839-0.0801-4e-3 -0.14563-9e-3 -0.14563-0.0128 0-3e-3 0.25768-1.2116 0.57262-2.6849s0.57262-2.6827 0.57262-2.6876c0-5e-3 8e-3 -9e-3 0.0172-9e-3 9e-3 6e-5 0.8524 0.17912 1.8731 0.3979l1.8558 0.39776 0.0128 0.11797c0.0886 0.81936 0.71346 1.4678 1.5315 1.5893 0.13339 0.0198 0.38868 0.0199 0.51695 2e-4 0.52623-0.0808 0.98757-0.38274 1.2634-0.82673 0.20924-0.33684 0.30575-0.7502 0.26415-1.1314-0.0686-0.62861-0.44718-1.1694-1.0064-1.4376-0.24601-0.11795-0.50585-0.17821-0.76758-0.18011zm-11.207 10.431c0.11114-5.1e-4 0.2263 7e-3 0.30955 0.0208 0.37751 0.0646 0.69442 0.22708 0.96359 0.49391 0.22268 0.22073 0.3694 0.46259 0.45737 0.75397 0.0475 0.15755 0.0661 0.27532 0.0721 0.45663 0.01 0.29959-0.0445 0.56604-0.1687 0.82772-0.15721 0.33131-0.43637 0.62524-0.76703 0.80762-0.15334 0.0846-0.37217 0.15857-0.56222 0.19011-0.11371 0.0189-0.37232 0.0267-0.47389 0.0143-0.21577-0.0263-0.39439-0.0778-0.58038-0.16751-0.46228-0.22286-0.79717-0.61256-0.94382-1.0982-0.0469-0.15547-0.066-0.27423-0.0723-0.45225-0.0111-0.3093 0.0426-0.56293 0.1786-0.84367 0.25995-0.53653 0.75516-0.89849 1.3521-0.98833 0.0647-0.01 0.14864-0.0147 0.23508-0.0151zm7.9313 0.0264c0.26963-4e-4 0.35501 0.0121 0.57017 0.0838 0.56984 0.18969 1.0107 0.65883 1.1616 1.2361 0.0481 0.18401 0.0552 0.24418 0.0548 0.46178-4.7e-4 0.22829-0.0136 0.32499-0.0698 0.51105-0.0863 0.28564-0.2213 0.51373-0.43293 0.73149-0.29807 0.3067-0.66904 0.48789-1.0934 0.53401-0.0898 0.01-0.27181 0.0119-0.33855 4e-3 -0.37366-0.0444-0.65501-0.1525-0.9219-0.35414-0.39451-0.29806-0.6445-0.73652-0.70306-1.2331-0.0146-0.12366-6e-3 -0.38527 0.0158-0.50918 0.11559-0.64332 0.57587-1.1752 1.1956-1.3815 0.21811-0.0726 0.29304-0.0839 0.56169-0.0842zm-7.8493 5.7314c0.0425 3.5e-4 0.0706 5e-3 0.11095 0.0177 0.0794 0.0243 0.1263 0.0559 0.25357 0.17069 0.18723 0.16896 0.35252 0.27903 0.61831 0.41172 1.0807 0.53948 2.8025 0.72623 4.3292 0.46951 0.9808-0.16492 1.7123-0.46552 2.1694-0.89155 0.1115-0.10391 0.15137-0.13085 0.23631-0.15954 0.0511-0.0172 0.0796-0.0204 0.15626-0.0173 0.0804 3e-3 0.10348 8e-3 0.1614 0.0355 0.0909 0.0426 0.14026 0.0836 0.18604 0.15441 0.06 0.0928 0.0806 0.17436 0.075 0.29796-5e-3 0.096-7e-3 0.108-0.0453 0.1848-0.0331 0.0669-0.0567 0.0976-0.12753 0.16585-0.35902 0.3461-0.87954 0.64317-1.4954 0.85345-0.64057 0.21873-1.4052 0.35532-2.2344 0.39913-0.16666 9e-3 -0.74853 0.0112-0.87867 4e-3 -0.57215-0.0334-0.9768-0.0823-1.4167-0.17121-1.0063-0.20334-1.7515-0.52846-2.3022-1.0044-0.18825-0.1627-0.25076-0.25092-0.27535-0.38857-0.0348-0.19472 0.0728-0.39503 0.26253-0.48881 0.0683-0.0338 0.0858-0.0381 0.16828-0.0417 0.0183-8e-4 0.0341-1e-3 0.0484-1e-3z" id="path246" /><path d="m823.21 293.74c-0.20358-2e-3 -0.4083 0.0324-0.60851 0.10181-0.39831 0.1382-0.73969 0.41728-0.94959 0.7763-0.0292 0.05-0.0566 0.0966-0.0608 0.10363-6e-3 0.01-0.25624-0.0399-1.1529-0.22995-3.3622-0.7127-3.0501-0.64891-3.1551-0.64487-0.0831 3e-3 -0.10267 8e-3 -0.16122 0.0365-0.0816 0.0402-0.15937 0.11593-0.1957 0.19059-0.0215 0.0442-0.15735 0.66975-0.66882 3.0799-0.35301 1.6635-0.64393 3.0336-0.64651 3.0447-5e-3 0.0193-0.0161 0.0207-0.26168 0.0324-1.8769 0.0896-3.6858 0.54474-5.2207 1.3135-0.40258 0.20164-0.74159 0.39884-1.1152 0.64867-0.13336 0.0892-0.24433 0.16214-0.24661 0.16214-2e-3 0-0.0516-0.0404-0.1097-0.0899-0.35063-0.29847-0.79742-0.50296-1.2607-0.57697-0.1354-0.0216-0.47521-0.0298-0.62288-0.0151-0.67355 0.0674-1.3036 0.4091-1.7216 0.93364-0.15007 0.1883-0.31906 0.48687-0.39398 0.69603-0.17602 0.49149-0.20391 1.0012-0.0813 1.4864 0.17861 0.7069 0.63502 1.286 1.2816 1.6261l0.11719 0.0616-0.0123 0.0839c-0.0569 0.38891-0.0599 0.89437-7e-3 1.3032 0.0616 0.48158 0.20258 0.98067 0.40854 1.4464 0.8328 1.883 2.794 3.4538 5.3615 4.2942 1.1852 0.38793 2.4525 0.60726 3.796 0.65694 0.26541 0.01 0.88972 5e-3 1.1798-0.01 2.7111-0.13498 5.1898-1.0014 6.9504-2.4295 0.71535-0.58023 1.3035-1.2533 1.7076-1.954 0.17304-0.30009 0.35969-0.71223 0.46328-1.023 0.23769-0.71306 0.31896-1.4933 0.22814-2.1906-0.0106-0.0814-0.0193-0.15568-0.0194-0.16496-1.3e-4 -0.0116 0.034-0.0344 0.10962-0.073 0.1253-0.0641 0.31492-0.188 0.42929-0.28052 0.10007-0.081 0.28801-0.2689 0.36897-0.36898 0.28504-0.35232 0.47454-0.78453 0.54437-1.2415 0.0285-0.18706 0.031-0.52578 5e-3 -0.70447-0.14339-0.9873-0.80669-1.7759-1.7428-2.0721-0.69048-0.21846-1.4622-0.1225-2.0782 0.25842-0.0999 0.0618-0.2862 0.20137-0.37433 0.28047-0.0417 0.0374-0.0609 0.0489-0.0705 0.042-0.10293-0.0737-0.48473-0.32239-0.61749-0.40224-0.48865-0.29389-1.0244-0.56024-1.5747-0.78283-1.3294-0.53774-2.878-0.86944-4.381-0.93839-0.0801-4e-3 -0.14563-9e-3 -0.14563-0.0128 0-3e-3 0.25768-1.2116 0.57262-2.6849s0.57262-2.6828 0.57262-2.6876c0-5e-3 8e-3 -9e-3 0.0172-9e-3 9e-3 6e-5 0.8524 0.17912 1.8731 0.3979l1.8558 0.39776 0.0128 0.11797c0.0886 0.81936 0.71346 1.4678 1.5315 1.5893 0.13339 0.0198 0.38868 0.0199 0.51695 1.9e-4 0.52623-0.0808 0.98757-0.38273 1.2634-0.82672 0.20924-0.33684 0.30575-0.7502 0.26415-1.1314-0.0686-0.62861-0.44718-1.1694-1.0064-1.4376-0.24601-0.11796-0.50585-0.17821-0.76758-0.18012zm-11.207 10.431c0.11114-5.1e-4 0.2263 7e-3 0.30955 0.0208 0.37751 0.0646 0.69442 0.22708 0.96359 0.4939 0.22268 0.22074 0.3694 0.4626 0.45737 0.75397 0.0475 0.15756 0.0661 0.27533 0.0721 0.45664 0.01 0.29959-0.0445 0.56604-0.1687 0.82772-0.15721 0.33131-0.43637 0.62523-0.76703 0.80762-0.15334 0.0846-0.37217 0.15857-0.56222 0.1901-0.11371 0.0189-0.37232 0.0267-0.47389 0.0143-0.21577-0.0263-0.39439-0.0778-0.58038-0.1675-0.46228-0.22286-0.79717-0.61256-0.94382-1.0982-0.0469-0.15547-0.066-0.27423-0.0723-0.45225-0.0111-0.3093 0.0426-0.56293 0.1786-0.84367 0.25995-0.53653 0.75516-0.8985 1.3521-0.98834 0.0647-0.01 0.14864-0.0147 0.23508-0.0151zm7.9313 0.0264c0.26963-4e-4 0.35501 0.0121 0.57017 0.0838 0.56984 0.18969 1.0107 0.65883 1.1616 1.2361 0.0481 0.18401 0.0552 0.24418 0.0548 0.46178-4.7e-4 0.22829-0.0136 0.32499-0.0698 0.51105-0.0863 0.28564-0.2213 0.51373-0.43293 0.73149-0.29807 0.3067-0.66904 0.48789-1.0934 0.53401-0.0898 0.01-0.27181 0.0119-0.33855 4e-3 -0.37366-0.0444-0.65501-0.1525-0.9219-0.35414-0.39451-0.29806-0.6445-0.73653-0.70306-1.2331-0.0146-0.12366-6e-3 -0.38527 0.0158-0.50918 0.11559-0.64333 0.57587-1.1752 1.1956-1.3815 0.21811-0.0726 0.29304-0.0839 0.56169-0.0843zm-7.8493 5.7314c0.0425 3.5e-4 0.0706 5e-3 0.11095 0.0177 0.0794 0.0243 0.1263 0.0559 0.25357 0.17069 0.18723 0.16896 0.35252 0.27903 0.61831 0.41172 1.0807 0.53948 2.8025 0.72622 4.3292 0.46951 0.9808-0.16492 1.7123-0.46553 2.1694-0.89155 0.1115-0.10391 0.15137-0.13085 0.23631-0.15955 0.0511-0.0172 0.0796-0.0204 0.15626-0.0173 0.0804 3e-3 0.10348 8e-3 0.1614 0.0355 0.0909 0.0426 0.14026 0.0836 0.18604 0.15442 0.06 0.0928 0.0806 0.17436 0.075 0.29796-5e-3 0.096-7e-3 0.108-0.0453 0.1848-0.0331 0.0669-0.0567 0.0976-0.12753 0.16585-0.35902 0.3461-0.87954 0.64317-1.4954 0.85345-0.64057 0.21873-1.4052 0.35532-2.2344 0.39913-0.16666 9e-3 -0.74853 0.0112-0.87867 4e-3 -0.57215-0.0334-0.9768-0.0823-1.4167-0.17121-1.0063-0.20334-1.7515-0.52846-2.3022-1.0044-0.18825-0.1627-0.25076-0.25093-0.27535-0.38857-0.0348-0.19472 0.0728-0.39503 0.26253-0.48881 0.0683-0.0338 0.0858-0.0381 0.16828-0.0417 0.0183-8e-4 0.0341-1e-3 0.0484-1e-3z" id="path248" /></g><path d="m823.21 101.99c-0.20358-2e-3 -0.4083 0.0323-0.60851 0.10181-0.39831 0.13819-0.73969 0.41728-0.94959 0.7763-0.0292 0.05-0.0566 0.0966-0.0608 0.10363-6e-3 0.01-0.25624-0.0399-1.1529-0.22995-3.3622-0.71271-3.0501-0.64892-3.1551-0.64487-0.0831 3e-3 -0.10267 8e-3 -0.16122 0.0365-0.0816 0.0402-0.15937 0.11593-0.1957 0.19059-0.0215 0.0442-0.15735 0.66975-0.66882 3.0799-0.35301 1.6635-0.64393 3.0336-0.64651 3.0447-5e-3 0.0193-0.0161 0.0207-0.26168 0.0324-1.8769 0.0896-3.6858 0.54474-5.2207 1.3135-0.40258 0.20164-0.74159 0.39884-1.1152 0.64867-0.13336 0.0892-0.24433 0.16214-0.24661 0.16214-2e-3 0-0.0516-0.0404-0.1097-0.0899-0.35063-0.29847-0.79742-0.50296-1.2607-0.57697-0.1354-0.0216-0.47521-0.0298-0.62288-0.0151-0.67355 0.0674-1.3036 0.4091-1.7216 0.93364-0.15007 0.1883-0.31906 0.48687-0.39398 0.69603-0.17602 0.49149-0.20391 1.0012-0.0813 1.4864 0.17861 0.7069 0.63502 1.286 1.2816 1.6261l0.11719 0.0617-0.0123 0.0839c-0.0569 0.38891-0.0599 0.89437-7e-3 1.3032 0.0616 0.48158 0.20258 0.98067 0.40854 1.4464 0.8328 1.883 2.794 3.4538 5.3615 4.2942 1.1852 0.38793 2.4525 0.60726 3.796 0.65694 0.26541 0.01 0.88972 5e-3 1.1798-0.01 2.7111-0.13498 5.1898-1.0014 6.9504-2.4295 0.71535-0.58023 1.3035-1.2533 1.7076-1.954 0.17304-0.30009 0.35969-0.71223 0.46328-1.023 0.23769-0.71306 0.31896-1.4933 0.22814-2.1906-0.0106-0.0815-0.0193-0.15568-0.0194-0.16496-1.3e-4 -0.0116 0.034-0.0344 0.10962-0.073 0.1253-0.0641 0.31492-0.188 0.42929-0.28052 0.10007-0.081 0.28801-0.2689 0.36897-0.36898 0.28504-0.35232 0.47454-0.78453 0.54437-1.2415 0.0285-0.18706 0.031-0.52578 5e-3 -0.70447-0.14339-0.9873-0.80669-1.7759-1.7428-2.0721-0.69048-0.21846-1.4622-0.1225-2.0782 0.25842-0.0999 0.0618-0.2862 0.20137-0.37433 0.28047-0.0417 0.0374-0.0609 0.0489-0.0705 0.042-0.10293-0.0737-0.48473-0.32239-0.61749-0.40224-0.48865-0.29389-1.0244-0.56024-1.5747-0.78283-1.3294-0.53774-2.878-0.86944-4.381-0.93839-0.0801-4e-3 -0.14563-9e-3 -0.14563-0.0128 0-3e-3 0.25768-1.2116 0.57262-2.6849s0.57262-2.6828 0.57262-2.6876c0-5e-3 8e-3 -9e-3 0.0172-9e-3 9e-3 6e-5 0.8524 0.17912 1.8731 0.39789l1.8558 0.39777 0.0128 0.11797c0.0886 0.81936 0.71346 1.4678 1.5315 1.5893 0.13339 0.0198 0.38868 0.0199 0.51695 1.9e-4 0.52623-0.0808 0.98757-0.38273 1.2634-0.82672 0.20924-0.33684 0.30575-0.7502 0.26415-1.1314-0.0686-0.62861-0.44718-1.1694-1.0064-1.4376-0.24601-0.11796-0.50585-0.17822-0.76758-0.18012zm-11.207 10.431c0.11114-5.1e-4 0.2263 7e-3 0.30955 0.0208 0.37751 0.0646 0.69442 0.22708 0.96359 0.4939 0.22268 0.22074 0.3694 0.4626 0.45737 0.75397 0.0475 0.15756 0.0661 0.27533 0.0721 0.45664 0.01 0.29959-0.0445 0.56604-0.1687 0.82772-0.15721 0.33131-0.43637 0.62523-0.76703 0.80762-0.15334 0.0846-0.37217 0.15857-0.56222 0.1901-0.11371 0.0189-0.37232 0.0267-0.47389 0.0143-0.21577-0.0263-0.39439-0.0778-0.58038-0.1675-0.46228-0.22286-0.79717-0.61256-0.94382-1.0982-0.0469-0.15547-0.066-0.27423-0.0723-0.45225-0.0111-0.3093 0.0426-0.56293 0.1786-0.84367 0.25995-0.53653 0.75516-0.8985 1.3521-0.98834 0.0647-0.01 0.14864-0.0147 0.23508-0.0151zm7.9313 0.0264c0.26963-4e-4 0.35501 0.0121 0.57017 0.0838 0.56984 0.18969 1.0107 0.65883 1.1616 1.2361 0.0481 0.18401 0.0552 0.24418 0.0548 0.46178-4.7e-4 0.22829-0.0136 0.32499-0.0698 0.51105-0.0863 0.28564-0.2213 0.51373-0.43293 0.73149-0.29807 0.3067-0.66904 0.48789-1.0934 0.53401-0.0898 0.01-0.27181 0.0119-0.33855 4e-3 -0.37366-0.0444-0.65501-0.1525-0.9219-0.35414-0.39451-0.29806-0.6445-0.73653-0.70306-1.2331-0.0146-0.12366-6e-3 -0.38527 0.0158-0.50918 0.11559-0.64333 0.57587-1.1752 1.1956-1.3815 0.21811-0.0726 0.29304-0.0839 0.56169-0.0842zm-7.8493 5.7314c0.0425 3.5e-4 0.0706 5e-3 0.11095 0.0177 0.0794 0.0243 0.1263 0.0559 0.25357 0.17069 0.18723 0.16896 0.35252 0.27903 0.61831 0.41172 1.0807 0.53948 2.8025 0.72622 4.3292 0.46951 0.9808-0.16492 1.7123-0.46553 2.1694-0.89155 0.1115-0.10391 0.15137-0.13085 0.23631-0.15955 0.0511-0.0173 0.0796-0.0204 0.15626-0.0173 0.0804 3e-3 0.10348 8e-3 0.1614 0.0355 0.0909 0.0426 0.14026 0.0836 0.18604 0.15442 0.06 0.0928 0.0806 0.17436 0.075 0.29796-5e-3 0.096-7e-3 0.108-0.0453 0.1848-0.0331 0.0669-0.0567 0.0976-0.12753 0.16585-0.35902 0.3461-0.87954 0.64317-1.4954 0.85345-0.64057 0.21873-1.4052 0.35532-2.2344 0.39913-0.16666 9e-3 -0.74853 0.0112-0.87867 4e-3 -0.57215-0.0334-0.9768-0.0823-1.4167-0.17121-1.0063-0.20334-1.7515-0.52846-2.3022-1.0044-0.18825-0.1627-0.25076-0.25093-0.27535-0.38857-0.0348-0.19472 0.0728-0.39503 0.26253-0.48881 0.0683-0.0338 0.0858-0.0381 0.16828-0.0417 0.0183-8e-4 0.0341-1e-3 0.0484-1e-3z" fill="#dcdcdc" id="path252" /><path d="m856 24h48v48h-48z" fill="#dcdcdc" id="path254" /><path d="m856 216h48v48h-48z" fill="#ee1d52" id="path256" /><rect x="856" y="152" width="48" height="48" fill="#ee1d52" id="rect258" /><path d="m856 280h48v48h-48z" fill="#dcdcdc" id="path260" /><path d="m889.02 46.146v-3.4822c-2.801-0.25457-4.7582-2.1202-4.9161-4.998h-3.5505v14.339c0.0479 0.2872-0.13921 2.713-3.1989 2.7911-1.5682 0.04-2.8427-1.2795-2.8572-3.0596-0.0139-1.7002 1.6594-3.3971 3.9258-2.8451v-3.5505c-3.3599-0.63145-7.3919 2.2192-7.4359 5.9907-0.0382 3.2652 1.872 7.0035 6.4109 7.0035 4.7198 0 6.7058-3.9222 6.7058-6.1663v-7.5653c0.90055 0.87135 3.6287 1.5634 4.9161 1.5431z" fill="#fff" id="path262" /><path d="m889.02 110.15v-3.4822c-2.801-0.25457-4.7582-2.1202-4.9161-4.998h-3.5505v14.339c0.0479 0.28719-0.13921 2.713-3.1989 2.7911-1.5682 0.0401-2.8427-1.2795-2.8572-3.0596-0.0139-1.7002 1.6594-3.3971 3.9258-2.8451v-3.5505c-3.3599-0.63146-7.3919 2.2192-7.4359 5.9907-0.0382 3.2652 1.872 7.0035 6.4109 7.0035 4.7198 0 6.7058-3.9222 6.7058-6.1663v-7.5653c0.90055 0.87135 3.6287 1.5634 4.9161 1.5431z" fill="#dcdcdc" id="path264" /><g fill="#fff" id="g272"><path d="m889.02 174.15v-3.4822c-2.801-0.25457-4.7582-2.1202-4.9161-4.998h-3.5505v14.339c0.0479 0.28719-0.13921 2.713-3.1989 2.7911-1.5682 0.0401-2.8427-1.2795-2.8572-3.0596-0.0139-1.7002 1.6594-3.3971 3.9258-2.8451v-3.5505c-3.3599-0.63145-7.3919 2.2192-7.4359 5.9907-0.0382 3.2652 1.872 7.0035 6.4109 7.0035 4.7198 0 6.7058-3.9222 6.7058-6.1664v-7.5653c0.90055 0.87136 3.6287 1.5634 4.9161 1.5431z" id="path266" /><path d="m889.02 238.15v-3.4822c-2.801-0.25457-4.7582-2.1202-4.9161-4.998h-3.5505v14.339c0.0479 0.28719-0.13921 2.713-3.1989 2.7911-1.5682 0.0401-2.8427-1.2795-2.8572-3.0596-0.0139-1.7002 1.6594-3.3971 3.9258-2.8451v-3.5505c-3.3599-0.63145-7.3919 2.2192-7.4359 5.9907-0.0382 3.2652 1.872 7.0035 6.4109 7.0035 4.7198 0 6.7058-3.9222 6.7058-6.1664v-7.5653c0.90055 0.87135 3.6287 1.5634 4.9161 1.5431z" id="path268" /><path d="m889.02 302.15v-3.4822c-2.801-0.25457-4.7582-2.1202-4.9161-4.998h-3.5505v14.339c0.0479 0.28719-0.13921 2.713-3.1989 2.7911-1.5682 0.04-2.8427-1.2795-2.8572-3.0596-0.0139-1.7002 1.6594-3.3971 3.9258-2.8451v-3.5505c-3.3599-0.63146-7.3919 2.2192-7.4359 5.9907-0.0382 3.2652 1.872 7.0035 6.4109 7.0035 4.7198 0 6.7058-3.9222 6.7058-6.1664v-7.5653c0.90055 0.87135 3.6287 1.5634 4.9161 1.5431z" id="path270" /></g><path d="m920 24h48v48h-48z" fill="#dcdcdc" id="path274" /><path d="m920 152h48v48h-48z" fill="#28a7e8" id="path276" /><path d="m920 216h48v48h-48z" fill="#fff" id="path278" /><path d="m920 280h48v48h-48z" fill="#dcdcdc" id="path280" /><g clip-rule="evenodd" fill-rule="evenodd" id="g290"><path d="m933.68 176.07c5.6295-2.4448 9.3772-4.0693 11.259-4.8575 5.3561-2.2357 6.482-2.6217 7.2058-2.6378 0.1608 0 0.5147 0.0322 0.756 0.22518 0.1929 0.16085 0.2412 0.36994 0.2734 0.53079 0.032 0.16084 0.065 0.4986 0.032 0.75596-0.2896 3.056-1.5441 10.471-2.1875 13.881-0.2735 1.4476-0.8042 1.9301-1.3189 1.9784-1.1259 0.0965-1.9784-0.73988-3.056-1.4476-1.705-1.1098-2.6539-1.8014-4.3106-2.8952-1.9141-1.2546-0.6756-1.9462 0.4182-3.0721 0.2894-0.28951 5.2273-4.7931 5.3239-5.1952 0.016-0.0483 0.016-0.24126-0.097-0.33777-0.1125-0.0965-0.2734-0.0643-0.4021-0.0322-0.1769 0.0322-2.8791 1.8336-8.1387 5.3882-0.772 0.53078-1.4636 0.78813-2.0909 0.77204-0.6916-0.0161-2.0105-0.38602-3.0077-0.7077-1.2063-0.38603-2.1714-0.59513-2.091-1.2707 0.0483-0.35386 0.53079-0.70771 1.4315-1.0776z" fill="#fff" id="path282" /><path d="m933.68 304.07c5.6295-2.4448 9.3772-4.0693 11.259-4.8575 5.3561-2.2357 6.482-2.6217 7.2058-2.6378 0.1608 0 0.5147 0.0322 0.756 0.22518 0.1929 0.16085 0.2412 0.36994 0.2734 0.53079 0.032 0.16084 0.065 0.4986 0.032 0.75596-0.2896 3.056-1.5441 10.471-2.1875 13.881-0.2735 1.4476-0.8042 1.9301-1.3189 1.9784-1.1259 0.0965-1.9784-0.73988-3.056-1.4476-1.705-1.1098-2.6539-1.8014-4.3106-2.8952-1.9141-1.2546-0.6756-1.9462 0.4182-3.0721 0.2894-0.28951 5.2273-4.7931 5.3239-5.1952 0.016-0.0483 0.016-0.24126-0.097-0.33777-0.1125-0.0965-0.2734-0.0643-0.4021-0.0322-0.1769 0.0322-2.8791 1.8336-8.1387 5.3882-0.772 0.53078-1.4636 0.78813-2.0909 0.77204-0.6916-0.0161-2.0105-0.38602-3.0077-0.7077-1.2063-0.38603-2.1714-0.59513-2.091-1.2707 0.0483-0.35386 0.53079-0.70771 1.4315-1.0776z" fill="#fff" id="path284" /><path d="m933.58 111.97c5.6294-2.4448 9.3772-4.0693 11.259-4.8575 5.3561-2.2357 6.482-2.6217 7.2058-2.6378 0.1608 0 0.5147 0.0322 0.756 0.22518 0.1929 0.16085 0.2412 0.36994 0.2734 0.53079 0.032 0.16084 0.065 0.4986 0.032 0.75596-0.2896 3.056-1.5441 10.471-2.1875 13.881-0.2735 1.4476-0.8042 1.9301-1.3189 1.9784-1.1259 0.0965-1.9784-0.73988-3.056-1.4476-1.705-1.1098-2.6539-1.8014-4.3106-2.8952-1.9141-1.2546-0.6756-1.9462 0.4182-3.0721 0.2894-0.28951 5.2273-4.7931 5.3239-5.1952 0.016-0.0483 0.016-0.24126-0.097-0.33777-0.1125-0.0965-0.2734-0.0643-0.4021-0.0322-0.1769 0.0322-2.8791 1.8336-8.1387 5.3882-0.772 0.53078-1.4636 0.78813-2.0909 0.77204-0.6916-0.0161-2.0105-0.38602-3.0077-0.7077-1.2063-0.38603-2.1714-0.59513-2.091-1.2707 0.0483-0.35386 0.53079-0.70771 1.4315-1.0776z" fill="#dcdcdc" id="path286" /><path d="m933.68 48.072c5.6294-2.4448 9.3772-4.0693 11.259-4.8575 5.3561-2.2357 6.482-2.6217 7.2058-2.6378 0.1608 0 0.5147 0.0322 0.756 0.22518 0.1929 0.16084 0.2412 0.36994 0.2734 0.53078 0.032 0.16084 0.065 0.49861 0.032 0.75596-0.2896 3.056-1.5441 10.471-2.1875 13.881-0.2735 1.4476-0.8042 1.9301-1.3189 1.9784-1.1259 0.0965-1.9784-0.73988-3.056-1.4476-1.705-1.1098-2.6539-1.8014-4.3106-2.8952-1.9141-1.2546-0.6756-1.9462 0.4182-3.0721 0.2894-0.28951 5.2273-4.7931 5.3239-5.1952 0.016-0.04826 0.016-0.24126-0.097-0.33777-0.1125-0.0965-0.2734-0.06432-0.4021-0.0322-0.1769 0.0322-2.8791 1.8336-8.1387 5.3882-0.772 0.53078-1.4636 0.78813-2.0909 0.77205-0.6916-0.01606-2.0105-0.38602-3.0077-0.7077-1.2063-0.38603-2.1714-0.59513-2.091-1.2707 0.0483-0.35386 0.53079-0.70771 1.4315-1.0777z" fill="#fff" id="path288" /></g><path d="m920 216h48v48h-48z" fill="#28a7e8" id="path292" /><path d="m933.68 240.07c5.6294-2.4448 9.3772-4.0693 11.259-4.8575 5.3561-2.2357 6.482-2.6217 7.2058-2.6378 0.1608 0 0.5147 0.0322 0.756 0.22518 0.1929 0.16085 0.2412 0.36994 0.2734 0.53079 0.032 0.16084 0.065 0.4986 0.032 0.75596-0.2896 3.056-1.5441 10.471-2.1875 13.881-0.2735 1.4476-0.8042 1.9301-1.3189 1.9784-1.1259 0.0965-1.9784-0.73988-3.056-1.4476-1.705-1.1098-2.6539-1.8014-4.3106-2.8952-1.9141-1.2546-0.6756-1.9462 0.4182-3.0721 0.2894-0.28951 5.2273-4.7931 5.3239-5.1952 0.016-0.0483 0.016-0.24126-0.097-0.33777-0.1125-0.0965-0.2734-0.0643-0.4021-0.0322-0.1769 0.0322-2.8791 1.8336-8.1387 5.3882-0.772 0.53078-1.4636 0.78813-2.0909 0.77204-0.6916-0.0161-2.0105-0.38602-3.0078-0.7077-1.2063-0.38603-2.1713-0.59513-2.091-1.2707 0.0485-0.35386 0.53077-0.70771 1.4316-1.0776z" clip-rule="evenodd" fill="#fff" fill-rule="evenodd" id="path294" /><path d="m984 24h48v48h-48z" fill="#dcdcdc" id="path296" /><path d="m984 152h48v48h-48z" fill="#6260fb" id="path298" /><path d="m984 216h48v48h-48z" fill="#fff" id="path300" /><path d="m984 280h48v48h-48z" fill="#dcdcdc" id="path302" /><path d="m984 216h48v48h-48z" fill="#6260fb" id="path304" /><path d="m1008 100.86c-2.8232 0.023-5.5404 0.32835-7.123 1.0552 0 0-3.1382 1.4052-3.1382 6.1959 0 1.097-0.022 2.4074 0.013 3.7984 0.1141 4.685 0.8603 9.3032 5.192 10.45 1.9971 0.52864 3.7103 0.63917 5.0913 0.56326 2.5045-0.13884 3.9118-0.89427 3.9118-0.89427l-0.082-1.816s-1.7903 0.56438-3.8002 0.49561c-1.9914-0.0683-4.0945-0.21594-4.4166-2.6609-0.03-0.21476-0.044-0.44462-0.044-0.68579 0 0 1.9538 0.47902 4.4312 0.59252 1.5149 0.0695 2.9371-0.0893 4.3799-0.26152 2.767-0.3304 5.1763-2.0357 5.4791-3.5936 0.4771-2.454 0.437-5.9874 0.437-5.9874 0-4.7906-3.1381-6.1959-3.1381-6.1959-1.5826-0.72686-4.2998-1.0321-7.1231-1.0552zm-3.1966 3.7435c1.176 0 2.0665 0.45098 2.6553 1.3551l0.5724 0.96012 0.5725-0.96012c0.5888-0.90414 1.4811-1.3551 2.6572-1.3551 1.0163 0 1.8343 0.35638 2.4597 1.0534 0.6062 0.69699 0.9071 1.6399 0.9071 2.8255v5.8009h-2.297v-5.6308c0-1.1868-0.499-1.7886-1.4978-1.7886-1.1044 0-1.6587 0.71385-1.6587 2.1269v3.0815h-2.2841v-3.0815c0-1.413-0.5543-2.1269-1.6587-2.1269-0.9988 0-1.4978 0.6017-1.4978 1.7886v5.6308h-2.2988v-5.8009c0-1.1855 0.3027-2.1285 0.9089-2.8255 0.6253-0.69699 1.4434-1.0534 2.4598-1.0534z" fill="#dcdcdc" stroke-width=".095185" id="path306" /><g fill="#fff" stroke-width=".095185" id="g316"><path d="m1008 36.958c-2.8232 0.02308-5.5404 0.32835-7.123 1.0552 0 0-3.1382 1.4053-3.1382 6.1959 0 1.097-0.022 2.4074 0.013 3.7984 0.1141 4.685 0.8603 9.3031 5.192 10.45 1.9971 0.52864 3.7103 0.63917 5.0913 0.56326 2.5045-0.13885 3.9118-0.89427 3.9118-0.89427l-0.082-1.816s-1.7903 0.56437-3.8002 0.4956c-1.9914-0.0683-4.0945-0.21593-4.4166-2.6609-0.03-0.21476-0.044-0.44462-0.044-0.68579 0 0 1.9538 0.47902 4.4312 0.59252 1.5149 0.06949 2.9371-0.08935 4.3799-0.26152 2.767-0.33041 5.1763-2.0357 5.4791-3.5936 0.4771-2.454 0.437-5.9874 0.437-5.9874 0-4.7907-3.1381-6.1959-3.1381-6.1959-1.5826-0.72686-4.2998-1.0321-7.1231-1.0552zm-3.1966 3.7435c1.176 0 2.0665 0.45099 2.6553 1.3551l0.5724 0.96011 0.5725-0.96011c0.5888-0.90414 1.4811-1.3551 2.6572-1.3551 1.0163 0 1.8343 0.35639 2.4597 1.0534 0.6062 0.69699 0.9071 1.6399 0.9071 2.8255v5.8009h-2.297v-5.6308c0-1.1868-0.499-1.7885-1.4978-1.7885-1.1044 0-1.6587 0.71385-1.6587 2.1269v3.0815h-2.2841v-3.0815c0-1.413-0.5543-2.1269-1.6587-2.1269-0.9988 0-1.4978 0.60171-1.4978 1.7885v5.6308h-2.2988v-5.8009c0-1.1855 0.3027-2.1285 0.9089-2.8255 0.6253-0.69699 1.4434-1.0534 2.4598-1.0534z" id="path308" /><path d="m1008 164.96c-2.8232 0.0231-5.5404 0.32835-7.123 1.0552 0 0-3.1382 1.4053-3.1382 6.1959 0 1.097-0.022 2.4074 0.013 3.7984 0.1141 4.685 0.8603 9.3032 5.192 10.45 1.9971 0.52864 3.7103 0.63917 5.0913 0.56326 2.5045-0.13884 3.9118-0.89427 3.9118-0.89427l-0.082-1.816s-1.7903 0.56437-3.8002 0.4956c-1.9914-0.0683-4.0945-0.21593-4.4166-2.6609-0.03-0.21477-0.044-0.44462-0.044-0.68579 0 0 1.9538 0.47901 4.4312 0.59252 1.5149 0.0695 2.9371-0.0893 4.3799-0.26152 2.767-0.3304 5.1763-2.0357 5.4791-3.5936 0.4771-2.454 0.437-5.9874 0.437-5.9874 0-4.7906-3.1381-6.1959-3.1381-6.1959-1.5826-0.72685-4.2998-1.0321-7.1231-1.0552zm-3.1966 3.7435c1.176 0 2.0665 0.45098 2.6553 1.3551l0.5724 0.96011 0.5725-0.96011c0.5888-0.90414 1.4811-1.3551 2.6572-1.3551 1.0163 0 1.8343 0.35637 2.4597 1.0534 0.6062 0.69699 0.9071 1.6399 0.9071 2.8255v5.8009h-2.297v-5.6308c0-1.1868-0.499-1.7885-1.4978-1.7885-1.1044 0-1.6587 0.71385-1.6587 2.1269v3.0815h-2.2841v-3.0815c0-1.413-0.5543-2.1269-1.6587-2.1269-0.9988 0-1.4978 0.6017-1.4978 1.7885v5.6308h-2.2988v-5.8009c0-1.1855 0.3027-2.1285 0.9089-2.8255 0.6253-0.697 1.4434-1.0534 2.4598-1.0534z" id="path310" /><path d="m1008 228.96c-2.8232 0.0231-5.5404 0.32835-7.123 1.0552 0 0-3.1382 1.4053-3.1382 6.1959 0 1.097-0.022 2.4074 0.013 3.7984 0.1141 4.685 0.8603 9.3032 5.192 10.45 1.9971 0.52864 3.7103 0.63917 5.0913 0.56326 2.5045-0.13884 3.9118-0.89427 3.9118-0.89427l-0.082-1.816s-1.7903 0.56437-3.8002 0.4956c-1.9914-0.0683-4.0945-0.21593-4.4166-2.6609-0.03-0.21477-0.044-0.44462-0.044-0.68579 0 0 1.9538 0.47901 4.4312 0.59252 1.5149 0.0695 2.9371-0.0893 4.3799-0.26152 2.767-0.3304 5.1763-2.0357 5.4791-3.5936 0.4771-2.454 0.437-5.9874 0.437-5.9874 0-4.7906-3.1381-6.1959-3.1381-6.1959-1.5826-0.72685-4.2998-1.0321-7.1231-1.0552zm-3.1966 3.7435c1.176 0 2.0665 0.45098 2.6553 1.3551l0.5724 0.96011 0.5725-0.96011c0.5888-0.90414 1.4811-1.3551 2.6572-1.3551 1.0163 0 1.8343 0.35637 2.4597 1.0534 0.6062 0.69699 0.9071 1.6399 0.9071 2.8255v5.8009h-2.297v-5.6308c0-1.1868-0.499-1.7885-1.4978-1.7885-1.1044 0-1.6587 0.71385-1.6587 2.1269v3.0815h-2.2841v-3.0815c0-1.413-0.5543-2.1269-1.6587-2.1269-0.9988 0-1.4978 0.6017-1.4978 1.7885v5.6308h-2.2988v-5.8009c0-1.1855 0.3027-2.1285 0.9089-2.8255 0.6253-0.697 1.4434-1.0534 2.4598-1.0534z" id="path312" /><path d="m1008 292.96c-2.8232 0.0231-5.5404 0.32835-7.123 1.0552 0 0-3.1382 1.4053-3.1382 6.1959 0 1.097-0.022 2.4074 0.013 3.7984 0.1141 4.685 0.8603 9.3032 5.192 10.45 1.9971 0.52864 3.7103 0.63917 5.0913 0.56326 2.5045-0.13884 3.9118-0.89427 3.9118-0.89427l-0.082-1.816s-1.7903 0.56437-3.8002 0.4956c-1.9914-0.0683-4.0945-0.21593-4.4166-2.6609-0.03-0.21477-0.044-0.44462-0.044-0.68579 0 0 1.9538 0.47901 4.4312 0.59252 1.5149 0.0695 2.9371-0.0893 4.3799-0.26152 2.767-0.3304 5.1763-2.0357 5.4791-3.5936 0.4771-2.454 0.437-5.9874 0.437-5.9874 0-4.7906-3.1381-6.1959-3.1381-6.1959-1.5826-0.72685-4.2998-1.0321-7.1231-1.0552zm-3.1966 3.7435c1.176 0 2.0665 0.45098 2.6553 1.3551l0.5724 0.96011 0.5725-0.96011c0.5888-0.90414 1.4811-1.3551 2.6572-1.3551 1.0163 0 1.8343 0.35637 2.4597 1.0534 0.6062 0.69699 0.9071 1.6399 0.9071 2.8255v5.8009h-2.297v-5.6308c0-1.1868-0.499-1.7885-1.4978-1.7885-1.1044 0-1.6587 0.71385-1.6587 2.1269v3.0815h-2.2841v-3.0815c0-1.413-0.5543-2.1269-1.6587-2.1269-0.9988 0-1.4978 0.6017-1.4978 1.7885v5.6308h-2.2988v-5.8009c0-1.1855 0.3027-2.1285 0.9089-2.8255 0.6253-0.697 1.4434-1.0534 2.4598-1.0534z" id="path314" /></g><path d="m1048 24h48v48h-48z" fill="#dcdcdc" id="path318" /><path d="m1048 152h48v48h-48z" fill="#0b7aff" id="path320" /><path d="m1048 216h48v48h-48z" fill="#fff" id="path322" /><path d="m1048 280h48v48h-48z" fill="#dcdcdc" id="path324" /><path d="m1048 216h48v48h-48z" fill="#0b7aff" id="path326" /><g fill="#fff" id="g336"><path d="m54.204 38.25h3.308l-7.227 8.26 8.502 11.24h-6.657l-5.214-6.817-5.966 6.817h-3.31l7.73-8.835-8.156-10.665h6.826l4.713 6.231zm-1.161 17.52h1.833l-11.832-15.644h-1.967z" id="path328" /><path d="m54.204 166.25h3.308l-7.227 8.26 8.502 11.24h-6.657l-5.214-6.817-5.966 6.817h-3.31l7.73-8.835-8.156-10.665h6.826l4.713 6.231zm-1.161 17.52h1.833l-11.832-15.644h-1.967z" id="path330" /><path d="m54.204 230.25h3.308l-7.227 8.26 8.502 11.24h-6.657l-5.214-6.817-5.966 6.817h-3.31l7.73-8.835-8.156-10.665h6.826l4.713 6.231zm-1.161 17.52h1.833l-11.832-15.644h-1.967z" id="path332" /><path d="m54.204 294.25h3.308l-7.227 8.26 8.502 11.24h-6.657l-5.214-6.817-5.966 6.817h-3.31l7.73-8.835-8.156-10.665h6.826l4.713 6.231zm-1.161 17.52h1.833l-11.832-15.644h-1.967z" id="path334" /></g><path d="m1112 152h48v48h-48z" id="path338" /><path d="m1112 216h48v48h-48z" id="path340" /><path d="m1112 280h48v48h-48z" fill="#dcdcdc" id="path342" /><path d="m1066.1 40c2.4077 1.8075 4.9973 5.4723 5.9481 7.439 0.9508-1.9666 3.5402-5.6316 5.9479-7.439 1.7372-1.3042 4.5521-2.3133 4.5521 0.89774 0 0.64129-0.3678 5.3872-0.5833 6.1577-0.7497 2.6787-3.4811 3.3619-5.9107 2.9484 4.247 0.72282 5.3274 3.1171 2.9941 5.5114-4.4313 4.5472-6.3691-1.1409-6.8658-2.5984-0.091-0.2672-0.1336-0.39219-0.1343-0.28591-6e-4 -0.10629-0.043 0.01866-0.1342 0.28591-0.4966 1.4575-2.4344 7.1457-6.8659 2.5984-2.3333-2.3943-1.2528-4.7887 2.9942-5.5114-2.4297 0.41351-5.1613-0.2697-5.9108-2.9484-0.2156-0.77055-0.5833-5.5164-0.5833-6.1577 0-3.2111 2.8149-2.2019 4.5519-0.89774z" fill="#fff" id="path344" /><path d="m1112 24h48v48h-48z" fill="#dcdcdc" id="path346" /><path d="m1066.1 168c2.4077 1.8075 4.9973 5.4723 5.9481 7.439 0.9508-1.9666 3.5402-5.6316 5.9479-7.439 1.7372-1.3042 4.5521-2.3133 4.5521 0.89774 0 0.64129-0.3678 5.3872-0.5833 6.1576-0.7497 2.6787-3.4811 3.3619-5.9107 2.9484 4.247 0.72283 5.3274 3.1171 2.9941 5.5114-4.4313 4.5472-6.3691-1.1409-6.8658-2.5984-0.091-0.2672-0.1336-0.39219-0.1343-0.28591-6e-4 -0.10629-0.043 0.0187-0.1342 0.28591-0.4966 1.4575-2.4344 7.1458-6.8659 2.5984-2.3333-2.3943-1.2528-4.7887 2.9942-5.5114-2.4297 0.41352-5.1613-0.2697-5.9108-2.9484-0.2156-0.77054-0.5833-5.5164-0.5833-6.1576 0-3.2111 2.8149-2.2019 4.5519-0.89774z" fill="#fff" id="path348" /><path d="m1066.1 103.9c2.4077 1.8075 4.9973 5.4723 5.9481 7.439 0.9508-1.9666 3.5402-5.6316 5.9479-7.439 1.7372-1.3042 4.5521-2.3133 4.5521 0.89774 0 0.64129-0.3678 5.3872-0.5833 6.1576-0.7497 2.6787-3.4811 3.3619-5.9107 2.9484 4.247 0.72283 5.3274 3.1171 2.9941 5.5114-4.4313 4.5472-6.3691-1.1409-6.8658-2.5984-0.091-0.2672-0.1336-0.39219-0.1343-0.28591-6e-4 -0.10629-0.043 0.0187-0.1342 0.28591-0.4966 1.4575-2.4344 7.1458-6.8659 2.5984-2.3333-2.3943-1.2528-4.7887 2.9942-5.5114-2.4297 0.41352-5.1613-0.2697-5.9108-2.9484-0.2156-0.77054-0.5833-5.5164-0.5833-6.1576 0-3.2111 2.8149-2.2019 4.5519-0.89774z" fill="#dcdcdc" id="path350" /><g fill="#fff" id="g362"><path d="m1066.1 232c2.4077 1.8075 4.9973 5.4723 5.9481 7.439 0.9508-1.9666 3.5402-5.6316 5.9479-7.439 1.7372-1.3042 4.5521-2.3133 4.5521 0.89774 0 0.64129-0.3678 5.3872-0.5833 6.1576-0.7497 2.6787-3.4811 3.3619-5.9107 2.9484 4.247 0.72283 5.3274 3.1171 2.9941 5.5114-4.4313 4.5472-6.3691-1.1409-6.8658-2.5984-0.091-0.2672-0.1336-0.39219-0.1343-0.28591-6e-4 -0.10629-0.043 0.0187-0.1342 0.28591-0.4966 1.4575-2.4344 7.1458-6.8659 2.5984-2.3333-2.3943-1.2528-4.7887 2.9942-5.5114-2.4297 0.41352-5.1613-0.2697-5.9108-2.9484-0.2156-0.77054-0.5833-5.5164-0.5833-6.1576 0-3.2111 2.8149-2.2019 4.5519-0.89774z" id="path352" /><path d="m1066.1 296c2.4077 1.8075 4.9973 5.4723 5.9481 7.439 0.9508-1.9666 3.5402-5.6316 5.9479-7.439 1.7372-1.3042 4.5521-2.3133 4.5521 0.89774 0 0.64129-0.3678 5.3872-0.5833 6.1576-0.7497 2.6787-3.4811 3.3619-5.9107 2.9484 4.247 0.72283 5.3274 3.1171 2.9941 5.5114-4.4313 4.5472-6.3691-1.1409-6.8658-2.5984-0.091-0.2672-0.1336-0.39219-0.1343-0.28591-6e-4 -0.10629-0.043 0.0187-0.1342 0.28591-0.4966 1.4575-2.4344 7.1458-6.8659 2.5984-2.3333-2.3943-1.2528-4.7887 2.9942-5.5114-2.4297 0.41352-5.1613-0.2697-5.9108-2.9484-0.2156-0.77054-0.5833-5.5164-0.5833-6.1576 0-3.2111 2.8149-2.2019 4.5519-0.89774z" id="path354" /><path d="m1141.3 47.196a7.639 7.639 0 0 0-0.2885-0.13097c-0.1698-3.1289-1.8796-4.9202-4.7502-4.9385h-0.039c-1.7171 0-3.1451 0.73287-4.0241 2.0666l1.5788 1.083c0.6565-0.99632 1.6872-1.2086 2.4462-1.2086h0.026c0.9452 6e-3 1.6585 0.28096 2.1201 0.81684 0.336 0.39016 0.5606 0.9294 0.6719 1.6099-0.838-0.14243-1.7443-0.18631-2.7133-0.13063-2.7293 0.1571-4.484 1.749-4.3662 3.9609 0.06 1.122 0.6188 2.0872 1.5739 2.7178 0.8074 0.53303 1.8475 0.79373 2.9284 0.7347 1.4274-0.0782 2.5473-0.62287 3.3284-1.6187 0.5934-0.75624 0.9686-1.7362 1.1343-2.9711 0.6802 0.41055 1.1844 0.95081 1.4629 1.6003 0.4735 1.104 0.501 2.9182-0.9792 4.3972-1.297 1.2957-2.856 1.8562-5.2121 1.8736-2.6135-0.0194-4.5902-0.85754-5.8754-2.4913-1.2034-1.5298-1.8253-3.7394-1.8485-6.5674 0.023-2.8281 0.645-5.038 1.8485-6.5674 1.2852-1.6337 3.2617-2.4719 5.8754-2.4914 2.6325 0.0195 4.6438 0.86165 5.978 2.5033 0.6542 0.80506 1.1475 1.8173 1.4727 2.9977l1.8503-0.49362c-0.3942-1.4529-1.0145-2.7048-1.8586-3.7432-1.7106-2.1044-4.2123-3.1829-7.4358-3.2052h-0.013c-3.2169 0.0223-5.6906 1.1048-7.3525 3.2175-1.4789 1.8797-2.2417 4.4957-2.2673 7.7747l-1e-4 8e-3v7e-3c0.025 3.279 0.7885 5.8951 2.2674 7.7751 1.6619 2.1125 4.1357 3.1951 7.3525 3.2174h0.013c2.8598-0.0198 4.8757-0.76862 6.5367-2.4279 2.1728-2.1707 2.1074-4.8918 1.3912-6.5624-0.5137-1.1978-1.4933-2.1708-2.8328-2.8133zm-4.9381 4.6429c-1.1962 0.0673-2.439-0.46956-2.5002-1.6196-0.045-0.85272 0.6068-1.8042 2.5736-1.9176 0.2253-0.0131 0.4464-0.0194 0.6635-0.0194 0.7144 0 1.3827 0.0694 1.9904 0.20224-0.2267 2.8304-1.556 3.29-2.7273 3.3543z" id="path356" /><path d="m1141.3 175.2a7.639 7.639 0 0 0-0.2885-0.13097c-0.1698-3.1289-1.8796-4.9202-4.7502-4.9385h-0.039c-1.7171 0-3.1451 0.73287-4.0241 2.0666l1.5788 1.083c0.6565-0.99632 1.6872-1.2086 2.4462-1.2086h0.026c0.9452 6e-3 1.6585 0.28096 2.1201 0.81684 0.336 0.39016 0.5606 0.9294 0.6719 1.6099-0.838-0.14243-1.7443-0.18631-2.7133-0.13063-2.7293 0.1571-4.484 1.749-4.3662 3.9609 0.06 1.122 0.6188 2.0872 1.5739 2.7178 0.8074 0.53303 1.8475 0.79373 2.9284 0.7347 1.4274-0.0782 2.5473-0.62287 3.3284-1.6187 0.5934-0.75624 0.9686-1.7362 1.1343-2.9711 0.6802 0.41055 1.1844 0.95081 1.4629 1.6003 0.4735 1.104 0.501 2.9182-0.9792 4.3972-1.297 1.2957-2.856 1.8562-5.2121 1.8736-2.6135-0.0194-4.5902-0.85754-5.8754-2.4913-1.2034-1.5298-1.8253-3.7394-1.8485-6.5674 0.023-2.8281 0.645-5.038 1.8485-6.5674 1.2852-1.6337 3.2617-2.4719 5.8754-2.4914 2.6325 0.0195 4.6438 0.86165 5.978 2.5033 0.6542 0.80506 1.1475 1.8173 1.4727 2.9977l1.8504-0.49362c-0.3942-1.4529-1.0145-2.7048-1.8587-3.7432-1.7106-2.1044-4.2122-3.1829-7.4357-3.2052h-0.013c-3.2169 0.0223-5.6906 1.1048-7.3525 3.2175-1.4789 1.8797-2.2417 4.4957-2.2673 7.7747l-1e-4 8e-3v7e-3c0.025 3.279 0.7885 5.8951 2.2674 7.7751 1.6619 2.1125 4.1357 3.1951 7.3525 3.2174h0.013c2.8597-0.0198 4.8757-0.76862 6.5367-2.4279 2.1728-2.1707 2.1074-4.8918 1.3912-6.5624-0.5137-1.1978-1.4933-2.1708-2.8328-2.8133zm-4.9381 4.6429c-1.1962 0.0673-2.439-0.46956-2.5002-1.6196-0.045-0.85272 0.6068-1.8042 2.5736-1.9176 0.2253-0.0131 0.4464-0.0194 0.6635-0.0194 0.7144 0 1.3827 0.0694 1.9904 0.20224-0.2267 2.8304-1.556 3.29-2.7273 3.3543z" id="path358" /><path d="m1141.3 239.2a7.639 7.639 0 0 0-0.2885-0.13097c-0.1698-3.1289-1.8796-4.9202-4.7502-4.9385h-0.039c-1.7171 0-3.1451 0.73287-4.0241 2.0666l1.5788 1.083c0.6565-0.99632 1.6872-1.2086 2.4462-1.2086h0.026c0.9452 6e-3 1.6585 0.28096 2.1201 0.81684 0.336 0.39016 0.5606 0.9294 0.6719 1.6099-0.838-0.14243-1.7443-0.18631-2.7133-0.13063-2.7293 0.1571-4.484 1.749-4.3662 3.9609 0.06 1.122 0.6188 2.0872 1.5739 2.7178 0.8074 0.53303 1.8475 0.79373 2.9284 0.7347 1.4274-0.0782 2.5473-0.62287 3.3284-1.6187 0.5934-0.75624 0.9686-1.7362 1.1343-2.9711 0.6802 0.41055 1.1844 0.95081 1.4629 1.6003 0.4735 1.104 0.501 2.9182-0.9792 4.3972-1.297 1.2957-2.856 1.8562-5.2121 1.8736-2.6135-0.0194-4.5902-0.85754-5.8754-2.4913-1.2034-1.5298-1.8252-3.7394-1.8485-6.5674 0.023-2.8281 0.645-5.038 1.8485-6.5674 1.2853-1.6337 3.2618-2.4719 5.8754-2.4914 2.6325 0.0195 4.6438 0.86165 5.978 2.5033 0.6542 0.80506 1.1475 1.8173 1.4727 2.9977l1.8505-0.49362c-0.3942-1.4529-1.0145-2.7048-1.8587-3.7432-1.7107-2.1044-4.2122-3.1829-7.4357-3.2052h-0.013c-3.2169 0.0223-5.6906 1.1048-7.3525 3.2175-1.4789 1.8797-2.2417 4.4957-2.2673 7.7747l-1e-4 8e-3v7e-3c0.025 3.279 0.7885 5.8951 2.2674 7.7751 1.6619 2.1125 4.1357 3.1951 7.3525 3.2174h0.013c2.8596-0.0198 4.8757-0.76862 6.5367-2.4279 2.1728-2.1707 2.1074-4.8918 1.3912-6.5624-0.5137-1.1978-1.4933-2.1708-2.8328-2.8133zm-4.9381 4.6429c-1.1962 0.0673-2.439-0.46956-2.5002-1.6196-0.045-0.85272 0.6068-1.8042 2.5736-1.9176 0.2253-0.0131 0.4464-0.0194 0.6635-0.0194 0.7144 0 1.3827 0.0694 1.9904 0.20224-0.2267 2.8304-1.556 3.29-2.7273 3.3543z" id="path360" /></g><path d="m1141.3 111.1a7.639 7.639 0 0 0-0.2885-0.13097c-0.1698-3.1289-1.8796-4.9202-4.7502-4.9385h-0.039c-1.7171 0-3.1451 0.73287-4.0241 2.0666l1.5788 1.083c0.6565-0.99632 1.6872-1.2086 2.4462-1.2086h0.026c0.9452 6e-3 1.6585 0.28096 2.1201 0.81684 0.336 0.39016 0.5606 0.9294 0.6719 1.6099-0.838-0.14243-1.7443-0.18631-2.7133-0.13063-2.7293 0.1571-4.484 1.749-4.3662 3.9609 0.06 1.122 0.6188 2.0872 1.5739 2.7178 0.8074 0.53303 1.8475 0.79373 2.9284 0.7347 1.4274-0.0782 2.5473-0.62287 3.3284-1.6187 0.5934-0.75624 0.9686-1.7362 1.1343-2.9711 0.6802 0.41055 1.1844 0.95081 1.4629 1.6003 0.4735 1.104 0.501 2.9182-0.9792 4.3972-1.297 1.2957-2.856 1.8562-5.2121 1.8736-2.6135-0.0194-4.5902-0.85754-5.8754-2.4913-1.2034-1.5298-1.8253-3.7394-1.8485-6.5674 0.023-2.8281 0.645-5.038 1.8485-6.5674 1.2852-1.6337 3.2617-2.4719 5.8754-2.4914 2.6325 0.0195 4.6438 0.86165 5.978 2.5033 0.6542 0.80506 1.1475 1.8173 1.4727 2.9977l1.8504-0.49362c-0.3942-1.4529-1.0145-2.7048-1.8587-3.7432-1.7106-2.1044-4.2122-3.1829-7.4357-3.2052h-0.013c-3.2169 0.0223-5.6906 1.1048-7.3525 3.2175-1.4789 1.8797-2.2417 4.4957-2.2673 7.7747l-1e-4 8e-3v7e-3c0.025 3.279 0.7885 5.8951 2.2674 7.7751 1.6619 2.1125 4.1357 3.1951 7.3525 3.2174h0.013c2.8597-0.0198 4.8757-0.76862 6.5367-2.4279 2.1728-2.1707 2.1074-4.8918 1.3912-6.5624-0.5137-1.1978-1.4933-2.1708-2.8328-2.8133zm-4.9381 4.6429c-1.1962 0.0673-2.439-0.46956-2.5002-1.6196-0.045-0.85272 0.6068-1.8042 2.5736-1.9176 0.2253-0.0131 0.4464-0.0194 0.6635-0.0194 0.7144 0 1.3827 0.0694 1.9904 0.20224-0.2267 2.8304-1.556 3.29-2.7273 3.3543z" fill="#dcdcdc" id="path364" /><path d="m1141.3 303.2a7.639 7.639 0 0 0-0.2885-0.13097c-0.1698-3.1289-1.8796-4.9202-4.7502-4.9385h-0.039c-1.7171 0-3.1451 0.73287-4.0241 2.0666l1.5788 1.083c0.6565-0.99632 1.6872-1.2086 2.4462-1.2086h0.026c0.9452 6e-3 1.6585 0.28096 2.1201 0.81684 0.336 0.39016 0.5606 0.9294 0.6719 1.6099-0.838-0.14243-1.7443-0.18631-2.7133-0.13063-2.7293 0.1571-4.484 1.749-4.3662 3.9609 0.06 1.122 0.6188 2.0872 1.5739 2.7178 0.8074 0.53303 1.8475 0.79373 2.9284 0.7347 1.4274-0.0782 2.5473-0.62287 3.3284-1.6187 0.5934-0.75624 0.9686-1.7362 1.1343-2.9711 0.6802 0.41055 1.1844 0.95081 1.4629 1.6003 0.4735 1.104 0.501 2.9182-0.9792 4.3972-1.297 1.2957-2.856 1.8562-5.2121 1.8736-2.6135-0.0194-4.5902-0.85754-5.8754-2.4913-1.2034-1.5298-1.8252-3.7394-1.8485-6.5674 0.023-2.8281 0.645-5.038 1.8485-6.5674 1.2853-1.6337 3.2618-2.4719 5.8754-2.4914 2.6325 0.0195 4.6438 0.86165 5.978 2.5033 0.6542 0.80506 1.1475 1.8173 1.4727 2.9977l1.8505-0.49362c-0.3942-1.4529-1.0145-2.7048-1.8587-3.7432-1.7107-2.1044-4.2122-3.1829-7.4357-3.2052h-0.013c-3.2169 0.0223-5.6906 1.1048-7.3525 3.2175-1.4789 1.8797-2.2417 4.4957-2.2673 7.7747l-1e-4 8e-3v7e-3c0.025 3.279 0.7885 5.8951 2.2674 7.7751 1.6619 2.1125 4.1357 3.1951 7.3525 3.2174h0.013c2.8596-0.0198 4.8757-0.76862 6.5367-2.4279 2.1728-2.1707 2.1074-4.8918 1.3912-6.5624-0.5137-1.1978-1.4933-2.1708-2.8328-2.8133zm-4.9381 4.6429c-1.1962 0.0673-2.439-0.46956-2.5002-1.6196-0.045-0.85272 0.6068-1.8042 2.5736-1.9176 0.2253-0.0131 0.4464-0.0194 0.6635-0.0194 0.7144 0 1.3827 0.0694 1.9904 0.20224-0.2267 2.8304-1.556 3.29-2.7273 3.3543z" fill="#fff" id="path366" /><path d="m1176 152h48v48h-48z" id="path368" /><path d="m 1200.6007,176.0034 c 0,3.42373 -2.7567,6.1992 -6.157,6.1992 -3.4003,0 -6.1572,-2.7761 -6.1572,-6.1992 0,-3.4231 2.7567,-6.19941 6.1572,-6.19941 3.4005,0 6.157,2.77568 6.157,6.19941" id="path370" style="fill:#ffffff;stroke-width:1" /><path d="m 1209.0902,176.00342 c 0,3.22271 -1.3783,5.83626 -3.0786,5.83626 -1.7002,0 -3.0785,-2.61355 -3.0785,-5.83626 0,-3.22271 1.3781,-5.83626 3.0783,-5.83626 1.7003,0 3.0786,2.61272 3.0786,5.83626" id="path372" style="fill:#ffffff;stroke-width:1" /><path d="m 1212.692,176.00342 c 0,2.88675 -0.4847,5.22837 -1.0828,5.22837 -0.598,0 -1.0825,-2.34099 -1.0825,-5.22837 0,-2.88738 0.4846,-5.22837 1.0825,-5.22837 0.5978,0 1.0828,2.34078 1.0828,5.22837" id="path374" style="fill:#ffffff;stroke-width:1" /><path d="m 1176,216 h 48 v 48 h -48 z" id="path378" /><g transform="matrix(0.0209185,0,0,0.0209185,1189.1262,233.80399)" fill="#ffffff" stroke-width="47.8047" data-name="Layer 1" id="g386"><path d="m 588.67,296.36 c 0,163.67 -131.78,296.35 -294.33,296.35 C 131.79,592.71 0,460 0,296.36 0,132.72 131.78,0 294.34,0 456.9,0 588.67,132.69 588.67,296.36" id="path380" style="stroke-width:47.8047" /><path d="m 911.56,296.36 c 0,154.06 -65.89,279 -147.17,279 -81.28,0 -147.17,-124.94 -147.17,-279 0,-154.06 65.88,-279 147.16,-279 81.28,0 147.17,124.9 147.17,279" id="path382" style="stroke-width:47.8047" /><path d="m 1043.6,296.36 c 0,138 -23.17,249.94 -51.76,249.94 -28.59,0 -51.75,-111.91 -51.75,-249.94 0,-138.03 23.17,-249.94 51.75,-249.94 28.58,0 51.76,111.9 51.76,249.94" id="path384" style="stroke-width:47.8047" /></g><path d="m1176 280h48v48h-48z" fill="#dcdcdc" id="path390" /><path d="m 1200.6007,304.0034 c 0,3.42373 -2.7567,6.1992 -6.157,6.1992 -3.4003,0 -6.1572,-2.7761 -6.1572,-6.1992 0,-3.4231 2.7567,-6.19941 6.1572,-6.19941 3.4005,0 6.157,2.77568 6.157,6.19941" id="path392" style="fill:#ffffff;stroke-width:1" /><path d="m 1209.0902,304.00342 c 0,3.22271 -1.3783,5.83626 -3.0786,5.83626 -1.7002,0 -3.0785,-2.61355 -3.0785,-5.83626 0,-3.22271 1.3781,-5.83626 3.0783,-5.83626 1.7003,0 3.0786,2.61272 3.0786,5.83626" id="path394" style="fill:#ffffff;stroke-width:1" /><path d="m 1212.692,304.00342 c 0,2.88675 -0.4847,5.22837 -1.0828,5.22837 -0.598,0 -1.0825,-2.34099 -1.0825,-5.22837 0,-2.88738 0.4846,-5.22837 1.0825,-5.22837 0.5978,0 1.0828,2.34078 1.0828,5.22837" id="path396" style="fill:#ffffff;stroke-width:1" /><path d="m1176 24h48v48h-48z" fill="#dcdcdc" id="path400" /><path d="m 1200.6007,48.000401 c 0,3.423731 -2.7567,6.199198 -6.157,6.199198 -3.4003,0 -6.1572,-2.776095 -6.1572,-6.199198 0,-3.423103 2.7567,-6.199407 6.1572,-6.199407 3.4005,0 6.157,2.775676 6.157,6.199407" id="path402" style="fill:#ffffff;stroke-width:1" /><path d="m 1209.0902,48.00042 c 0,3.222704 -1.3783,5.836261 -3.0786,5.836261 -1.7002,0 -3.0785,-2.613557 -3.0785,-5.836261 0,-3.222704 1.3781,-5.836262 3.0783,-5.836262 1.7003,0 3.0786,2.612721 3.0786,5.836262" id="path404" style="fill:#ffffff;stroke-width:1" /><path d="m 1212.692,48.00042 c 0,2.886753 -0.4847,5.228369 -1.0828,5.228369 -0.598,0 -1.0825,-2.340989 -1.0825,-5.228369 0,-2.887381 0.4846,-5.228371 1.0825,-5.228371 0.5978,0 1.0828,2.340781 1.0828,5.228371" id="path406" style="fill:#ffffff;stroke-width:1" /><path d="m 1200.6007,111.9034 c 0,3.42373 -2.7567,6.1992 -6.157,6.1992 -3.4003,0 -6.1572,-2.7761 -6.1572,-6.1992 0,-3.4231 2.7567,-6.19941 6.1572,-6.19941 3.4005,0 6.157,2.77568 6.157,6.19941" id="path410" style="fill:#dcdcdc;stroke-width:1" /><path d="m 1209.0902,111.90342 c 0,3.22271 -1.3783,5.83626 -3.0786,5.83626 -1.7002,0 -3.0785,-2.61355 -3.0785,-5.83626 0,-3.22271 1.3781,-5.83626 3.0783,-5.83626 1.7003,0 3.0786,2.61272 3.0786,5.83626" id="path412" style="fill:#dcdcdc;stroke-width:1" /><path d="m 1212.692,111.90342 c 0,2.88675 -0.4847,5.22837 -1.0828,5.22837 -0.598,0 -1.0825,-2.34099 -1.0825,-5.22837 0,-2.88738 0.4846,-5.22837 1.0825,-5.22837 0.5978,0 1.0828,2.34078 1.0828,5.22837" id="path414" style="fill:#dcdcdc;stroke-width:1" /></svg>
