<?xml version="1.0" encoding="UTF-8" standalone="no"?>
<!-- Created with Inkscape (http://www.inkscape.org/) -->

<svg
   xmlns:dc="http://purl.org/dc/elements/1.1/"
   xmlns:cc="http://creativecommons.org/ns#"
   xmlns:rdf="http://www.w3.org/1999/02/22-rdf-syntax-ns#"
   xmlns:svg="http://www.w3.org/2000/svg"
   xmlns="http://www.w3.org/2000/svg"
   xmlns:sodipodi="http://sodipodi.sourceforge.net/DTD/sodipodi-0.dtd"
   xmlns:inkscape="http://www.inkscape.org/namespaces/inkscape"
   width="36.124443mm"
   height="36.124435mm"
   viewBox="0 0 128 127.99997"
   id="svg4359"
   version="1.1"
   inkscape:version="0.92.3 (2405546, 2018-03-11)"
   sodipodi:docname="icon.svg"
   inkscape:export-filename="/home/david/Programs/dev/wordpress.org/nelio-content/assets/icon-128x128.png"
   inkscape:export-xdpi="90"
   inkscape:export-ydpi="90">
  <defs
     id="defs4361">
    <clipPath
       clipPathUnits="userSpaceOnUse"
       id="clipPath3804">
      <circle
         style="opacity:1;fill:#ffffff;fill-opacity:1;stroke:none;stroke-width:25.51161766;stroke-linecap:square;stroke-linejoin:miter;stroke-miterlimit:8;stroke-dasharray:none;stroke-opacity:1"
         id="circle3806"
         cx="-104.60268"
         cy="448.10327"
         r="14.560404" />
    </clipPath>
    <clipPath
       clipPathUnits="userSpaceOnUse"
       id="clipPath3808">
      <circle
         style="opacity:1;fill:#ffffff;fill-opacity:1;stroke:none;stroke-width:25.51161766;stroke-linecap:square;stroke-linejoin:miter;stroke-miterlimit:8;stroke-dasharray:none;stroke-opacity:1"
         id="circle3810"
         cx="-74.602661"
         cy="448.10327"
         r="14.560404" />
    </clipPath>
    <clipPath
       clipPathUnits="userSpaceOnUse"
       id="clipPath3812">
      <circle
         style="opacity:1;fill:#ffffff;fill-opacity:1;stroke:none;stroke-width:25.51161766;stroke-linecap:square;stroke-linejoin:miter;stroke-miterlimit:8;stroke-dasharray:none;stroke-opacity:1"
         id="circle3814"
         cx="15.397329"
         cy="448.10327"
         r="14.560404" />
    </clipPath>
    <clipPath
       clipPathUnits="userSpaceOnUse"
       id="clipPath3816">
      <circle
         style="opacity:1;fill:#ffffff;fill-opacity:1;stroke:none;stroke-width:25.51161766;stroke-linecap:square;stroke-linejoin:miter;stroke-miterlimit:8;stroke-dasharray:none;stroke-opacity:1"
         id="circle3818"
         cx="75.397301"
         cy="448.10327"
         r="14.560404" />
    </clipPath>
    <clipPath
       clipPathUnits="userSpaceOnUse"
       id="clipPath3820">
      <circle
         style="opacity:1;fill:#ffffff;fill-opacity:1;stroke:none;stroke-width:25.51161766;stroke-linecap:square;stroke-linejoin:miter;stroke-miterlimit:8;stroke-dasharray:none;stroke-opacity:1"
         id="circle3822"
         cx="135.39732"
         cy="448.10327"
         r="14.560404" />
    </clipPath>
    <clipPath
       clipPathUnits="userSpaceOnUse"
       id="clipPath3824">
      <circle
         style="opacity:1;fill:#ffffff;fill-opacity:1;stroke:none;stroke-width:25.51161766;stroke-linecap:square;stroke-linejoin:miter;stroke-miterlimit:8;stroke-dasharray:none;stroke-opacity:1"
         id="circle3826"
         cx="165.39731"
         cy="448.10324"
         r="14.560404" />
    </clipPath>
    <clipPath
       clipPathUnits="userSpaceOnUse"
       id="clipPath3812-6">
      <circle
         style="opacity:1;fill:#ffffff;fill-opacity:1;stroke:none;stroke-width:25.51161766;stroke-linecap:square;stroke-linejoin:miter;stroke-miterlimit:8;stroke-dasharray:none;stroke-opacity:1"
         id="circle3814-0"
         cx="15.397329"
         cy="448.10327"
         r="14.560404" />
    </clipPath>
    <mask
       maskUnits="userSpaceOnUse"
       id="mask1520">
      <circle
         style="opacity:1;fill:#ffffff;fill-opacity:1;stroke:none;stroke-width:0.98538196"
         id="circle1522"
         cx="4.42173"
         cy="343.92487"
         r="8.2856255" />
    </mask>
  </defs>
  <sodipodi:namedview
     id="base"
     pagecolor="#ffffff"
     bordercolor="#666666"
     borderopacity="1.0"
     inkscape:pageopacity="0.0"
     inkscape:pageshadow="2"
     inkscape:zoom="2.4371339"
     inkscape:cx="35.517444"
     inkscape:cy="68.614546"
     inkscape:document-units="px"
     inkscape:current-layer="layer1"
     showgrid="false"
     fit-margin-top="0"
     fit-margin-left="0"
     fit-margin-right="0"
     fit-margin-bottom="0"
     inkscape:window-width="2520"
     inkscape:window-height="951"
     inkscape:window-x="40"
     inkscape:window-y="24"
     inkscape:window-maximized="1" />
  <metadata
     id="metadata4364">
    <rdf:RDF>
      <cc:Work
         rdf:about="">
        <dc:format>image/svg+xml</dc:format>
        <dc:type
           rdf:resource="http://purl.org/dc/dcmitype/StillImage" />
        <dc:title />
      </cc:Work>
    </rdf:RDF>
  </metadata>
  <g
     inkscape:label="Capa 1"
     inkscape:groupmode="layer"
     id="layer1"
     transform="translate(69.714288,-228.36222)">
    <rect
       style="opacity:1;fill:#f0f1f4;fill-opacity:1;stroke:none;stroke-width:136.52703857;stroke-linecap:square;stroke-linejoin:miter;stroke-miterlimit:8;stroke-dasharray:none;stroke-opacity:1"
       id="rect3682"
       width="127.99971"
       height="24.874691"
       x="-69.714287"
       y="331.48749" />
    <g
       id="layer2"
       inkscape:label="Fons"
       style="display:none"
       transform="matrix(0.93750005,0,0,0.93750005,-513.54846,173.60693)">
      <g
         transform="matrix(1.3333333,0,0,1.3333333,-6.8465397e-7,-32.000016)"
         style="display:inline"
         id="g5642">
        <rect
           y="-47.999989"
           x="0"
           height="144"
           width="288"
           id="rect4621"
           style="color:#000000;display:inline;overflow:visible;visibility:visible;opacity:1;fill:#000000;fill-opacity:1;fill-rule:nonzero;stroke:none;stroke-width:2;stroke-linecap:butt;stroke-linejoin:miter;stroke-miterlimit:4;stroke-dasharray:none;stroke-dashoffset:0;stroke-opacity:1;marker:none;enable-background:accumulate" />
      </g>
    </g>
    <rect
       style="color:#000000;clip-rule:nonzero;display:inline;overflow:visible;visibility:visible;opacity:1;isolation:auto;mix-blend-mode:normal;color-interpolation:sRGB;color-interpolation-filters:linearRGB;solid-color:#000000;solid-opacity:1;fill:#0d496c;fill-opacity:1;fill-rule:nonzero;stroke:none;stroke-width:0.74740684;stroke-linecap:round;stroke-linejoin:round;stroke-miterlimit:4;stroke-dasharray:none;stroke-dashoffset:0;stroke-opacity:1;marker:none;color-rendering:auto;image-rendering:auto;shape-rendering:auto;text-rendering:auto;enable-background:accumulate"
       id="rect4213-2-5"
       width="127.99969"
       height="103.12501"
       x="-69.714287"
       y="228.3625" />
    <path
       id="path7-7-0-4"
       d="m -34.588713,322.96978 c -1.094478,1.09448 -2.487444,1.61188 -3.900311,1.61188 -3.024743,0 -5.512187,-2.08947 -5.512187,-5.4724 0,-3.38293 2.407844,-5.47239 5.512187,-5.47239 1.412867,0 2.825733,0.53729 3.900311,1.61186 l -0.696479,0.67659 c -0.875588,-0.87558 -2.069565,-1.27357 -3.203832,-1.27357 -2.427754,0 -4.477409,1.59196 -4.477409,4.47741 0,2.88545 2.049655,4.47741 4.477409,4.47741 1.154167,0 2.328244,-0.45769 3.183932,-1.33327 z"
       class="st1"
       inkscape:connector-curvature="0"
       style="fill:#80c6dd;fill-opacity:1;stroke:none;stroke-width:0.99999881" />
    <path
       id="path9-5-2-3"
       d="m -32.698248,319.12916 c 0,-3.40283 2.427744,-5.5719 5.452477,-5.5719 3.024733,0 5.452487,2.16907 5.452487,5.5719 0,3.40284 -2.427754,5.49229 -5.452487,5.49229 -3.024733,0 -5.452477,-2.06955 -5.452477,-5.49229 z m 9.870177,0 c 0,-2.78595 -1.970046,-4.57691 -4.3978,-4.57691 -2.427754,0 -4.397799,1.81086 -4.397799,4.57691 0,2.76605 1.970045,4.45751 4.397799,4.45751 2.407844,0 4.3978,-1.67156 4.3978,-4.45751 z"
       class="st1"
       inkscape:connector-curvature="0"
       style="fill:#80c6dd;fill-opacity:1;stroke:none;stroke-width:0.99999881" />
    <path
       id="path11-3-3-1"
       d="m -18.290962,313.75626 v 1.91037 c 0.815878,-1.47257 2.328254,-2.08947 3.820711,-2.10937 2.865543,0 4.835598,1.75117 4.835598,4.73612 v 6.18878 h -1.054677 v -6.16888 c 0,-2.42776 -1.492467,-3.74114 -3.820711,-3.72124 -2.208855,0.0199 -3.761021,1.69148 -3.761021,3.90033 v 5.96989 h -1.054678 v -10.72589 h 1.034778 z"
       class="st1"
       inkscape:connector-curvature="0"
       style="fill:#80c6dd;fill-opacity:1;stroke:none;stroke-width:0.99999881" />
    <path
       id="path13-5-7-4"
       d="m -4.8587544,310.51263 v 3.24363 h 3.6416213 v 0.89549 h -3.6416213 v 6.52707 c 0,1.45267 0.2984993,2.46755 1.9700653,2.46755 0.5173787,0 1.1143673,-0.17909 1.651656,-0.43778 l 0.37809911,0.87557 c -0.67658841,0.3184 -1.35317681,0.53729 -2.00986521,0.53729 -2.2884545,0 -3.0247328,-1.35317 -3.0247328,-3.44263 v -6.52707 h -2.2884545 v -0.89549 h 2.2884545 v -3.12424 z"
       class="st1"
       inkscape:connector-curvature="0"
       style="fill:#80c6dd;fill-opacity:1;stroke:none;stroke-width:0.99999881" />
    <path
       id="path15-6-5-9"
       d="m 0.63352245,319.10926 c 0,-3.20384 2.42775415,-5.5321 5.45248695,-5.5321 3.0247328,0 5.7111766,1.85067 5.2932776,6.02959 H 1.7279998 c 0.2188995,2.52725 2.1491549,3.97992 4.3580096,3.97992 1.4128766,0 3.0645327,-0.55719 3.8605108,-1.63177 l 0.7561878,0.61689 c -1.0347771,1.37308 -2.9053427,2.06956 -4.6166986,2.06956 -3.0247328,-0.0199 -5.45248695,-2.10935 -5.45248695,-5.53209 z m 9.79059655,-0.43779 c -0.0199,-2.64665 -1.7511658,-4.11922 -4.3381096,-4.11922 -2.2088547,0 -4.1192101,1.49246 -4.3580096,4.11922 z"
       class="st1"
       inkscape:connector-curvature="0"
       style="fill:#80c6dd;fill-opacity:1;stroke:none;stroke-width:0.99999881" />
    <path
       id="path17-2-9-2"
       d="m 15.180108,313.75626 v 1.91037 c 0.815888,-1.47257 2.328254,-2.08947 3.820721,-2.10937 2.865533,0 4.835598,1.75117 4.835598,4.73612 v 6.18878 H 22.78174 v -6.16888 c 0,-2.42776 -1.492457,-3.74114 -3.820711,-3.72124 -2.208855,0.0199 -3.761021,1.69148 -3.761021,3.90033 v 5.96989 H 14.14533 v -10.72589 h 1.034778 z"
       class="st1"
       inkscape:connector-curvature="0"
       style="fill:#80c6dd;fill-opacity:1;stroke:none;stroke-width:0.99999881" />
    <path
       id="path19-9-2-0"
       d="m 28.612316,310.51263 v 3.24363 h 3.641631 v 0.89549 h -3.641631 v 6.52707 c 0,1.45267 0.298499,2.46755 1.970065,2.46755 0.517389,0 1.114377,-0.17909 1.651666,-0.43778 l 0.378089,0.87557 c -0.676588,0.3184 -1.353177,0.53729 -2.009865,0.53729 -2.288445,0 -3.024733,-1.35317 -3.024733,-3.44263 v -6.52707 h -2.288444 v -0.89549 h 2.288444 v -3.12424 z"
       class="st1"
       inkscape:connector-curvature="0"
       style="fill:#80c6dd;fill-opacity:1;stroke:none;stroke-width:0.99999881" />
    <path
       d="m 19.498317,292.86166 c -1.532266,0 -2.746143,1.23378 -2.746143,2.74616 v 10.36769 c 0,1.53227 1.233777,2.74615 2.746143,2.74615 h 10.367686 c 1.512356,0 2.746133,-1.23378 2.746133,-2.74615 v -10.36769 c 0,-1.53228 -1.233777,-2.74616 -2.746133,-2.74616 z m 1.253677,2.62676 h 7.840422 c 0.756188,0 1.353176,0.61688 1.353176,1.37307 v 7.84045 c 0,0.75619 -0.596988,1.35317 -1.353176,1.35317 h -7.840422 c -0.756188,0 -1.353176,-0.59698 -1.353176,-1.35317 v -7.84045 c 0,-0.75619 0.596988,-1.37307 1.353176,-1.37307 z"
       class="st2"
       inkscape:connector-curvature="0"
       inkscape:export-ydpi="599.92029"
       inkscape:export-xdpi="599.92029"
       inkscape:export-filename="/tmp/nelio.png"
       id="path3056_3_-1-2-8"
       style="fill:#ffffff;stroke-width:0.99999881" />
    <path
       d="m -25.534405,292.86166 v 2.64666 h 15.8599521 v -2.64666 z m 0,6.60668 v 2.64665 h 15.8599521 v -2.64665 z m 0,6.60667 v 2.64665 h 15.8599521 v -2.64665 z"
       class="st2"
       inkscape:connector-curvature="0"
       inkscape:export-ydpi="599.92029"
       inkscape:export-xdpi="599.92029"
       inkscape:export-filename="/tmp/nelio.png"
       id="path3060_3_-2-8-9"
       style="fill:#ffffff;stroke-width:0.99999881" />
    <path
       d="m 11.458897,292.86166 h 2.646643 v 15.86 h -2.646643 z"
       class="st2"
       inkscape:connector-curvature="0"
       inkscape:export-ydpi="599.92029"
       inkscape:export-xdpi="599.92029"
       inkscape:export-filename="/tmp/nelio.png"
       id="path3062_3_-7-9-2"
       style="fill:#ffffff;stroke-width:0.99999881" />
    <path
       d="m -44.041011,292.86166 v 2.64666 h 11.840242 c 0.756188,0 1.373077,0.61688 1.373077,1.37307 v 11.84027 h 2.646633 v -13.09395 c 0,-1.53227 -1.233767,-2.76605 -2.766023,-2.76605 z m 0,0.47759 v 15.38241 h 2.626744 v -15.38241 z"
       class="st2"
       inkscape:connector-curvature="0"
       inkscape:export-ydpi="599.92029"
       inkscape:export-xdpi="599.92029"
       inkscape:export-filename="/tmp/nelio.png"
       id="path3064_3_-0-7-6"
       style="fill:#ffffff;stroke-width:0.99999881" />
    <path
       d="m 8.8321429,308.72166 v -2.64665 H -3.0080889 c -0.7561881,0 -1.3730767,-0.61688 -1.3730767,-1.37307 v -11.84028 h -2.6466336 v 13.09395 c 0,1.53227 1.233767,2.76605 2.7660233,2.76605 z"
       class="st2"
       inkscape:connector-curvature="0"
       inkscape:export-ydpi="599.92029"
       inkscape:export-xdpi="599.92029"
       inkscape:export-filename="/tmp/nelio.png"
       id="path3066_3_-9-3-6"
       style="fill:#ffffff;stroke-width:0.99999881" />
    <path
       inkscape:connector-curvature="0"
       style="color:#000000;font-style:normal;font-variant:normal;font-weight:normal;font-stretch:normal;font-size:medium;line-height:normal;font-family:sans-serif;text-indent:0;text-align:start;text-decoration:none;text-decoration-line:none;text-decoration-style:solid;text-decoration-color:#000000;letter-spacing:normal;word-spacing:normal;text-transform:none;writing-mode:lr-tb;direction:ltr;baseline-shift:baseline;text-anchor:start;white-space:normal;clip-rule:nonzero;display:inline;overflow:visible;visibility:visible;opacity:1;isolation:auto;mix-blend-mode:normal;color-interpolation:sRGB;color-interpolation-filters:linearRGB;solid-color:#000000;solid-opacity:1;fill:#ffffff;fill-opacity:1;fill-rule:nonzero;stroke:none;stroke-width:18.20477867;stroke-linecap:butt;stroke-linejoin:miter;stroke-miterlimit:10;stroke-dasharray:none;stroke-dashoffset:0;stroke-opacity:1;color-rendering:auto;image-rendering:auto;shape-rendering:auto;text-rendering:auto;enable-background:accumulate"
       d="m -5.7015742,235.20865 c -13.3878578,0 -24.2892718,10.90144 -24.2892718,24.28933 0,13.3879 10.901414,24.28981 24.2892718,24.28981 7.7506215,0 14.6897849,-3.64672 19.1477742,-9.34618 l -3.6624412,-2.86482 c -3.6127714,4.61885 -9.18875804,7.56135 -15.485333,7.56135 -10.8754638,0 -19.6396228,-8.76468 -19.6396228,-19.64017 0,-10.87548 8.764159,-19.63966 19.6396228,-19.63966 4.607739,0 8.8432989,1.60042 12.1975109,4.27103 l -12.164091,12.08379 -6.7896437,-6.81061 -3.292812,3.28285 10.0669858,10.09743 17.2003192,-17.08763 -0.001,-9.9e-4 0.0224,0.0126 1.459096,-1.45861 0.11023,-0.0903 C 8.6502915,238.71334 1.8602877,235.20925 -5.7016142,235.20925 Z"
       id="polyline27-9-6-2-4" />
    <path
       style="fill:#80c6dd;fill-opacity:1;stroke:none;stroke-width:0.99999881"
       inkscape:connector-curvature="0"
       class="st1"
       d="m 16.850764,251.09538 c 0,1.27702 -1.021618,2.29864 -2.298635,2.29864 -1.277017,0 -2.298634,-1.04715 -2.298634,-2.29864 0,-1.277 1.021617,-2.29863 2.298634,-2.29863 1.277017,-0.0255 2.298635,1.02163 2.298635,2.29863 z"
       id="path33-3-6-5" />
    <path
       style="fill:#80c6dd;fill-opacity:1;stroke:none;stroke-width:0.99999881"
       inkscape:connector-curvature="0"
       class="st1"
       d="m 18.56196,259.49818 c 0,1.27702 -1.021608,2.29864 -2.298625,2.29864 -1.277017,0 -2.298634,-1.04715 -2.298634,-2.29864 0,-1.27702 1.021617,-2.29863 2.298634,-2.29863 1.277017,-0.0255 2.298625,1.02161 2.298625,2.29863 z"
       id="path35-6-1-04" />
    <path
       style="fill:#80c6dd;fill-opacity:1;stroke:none;stroke-width:0.99999881"
       inkscape:connector-curvature="0"
       class="st1"
       d="m 16.876294,267.90098 c 0,1.27701 -1.021608,2.29864 -2.298625,2.29864 -1.277017,0 -2.298634,-1.04717 -2.298634,-2.29864 0,-1.27702 1.021617,-2.29863 2.298634,-2.29863 1.277017,0 2.298625,1.02161 2.298625,2.29863 z"
       id="path37-0-2-8" />
    <rect
       style="color:#000000;display:inline;overflow:visible;visibility:visible;opacity:1;fill:#45619d;fill-opacity:1;fill-rule:nonzero;stroke:none;stroke-width:1.06696534;stroke-linecap:butt;stroke-linejoin:miter;stroke-miterlimit:4;stroke-dasharray:none;stroke-dashoffset:0;stroke-opacity:1;marker:none;enable-background:accumulate"
       id="rect4136-2-3-99-3-7"
       width="17.071445"
       height="17.071445"
       x="-44.708698"
       y="335.38913"
       rx="8.5357227"
       ry="8.5357227" />
    <path
       id="path4324-1-5-6"
       d="m -35.106011,340.3683 h 1.778275 v -2.13393 h -1.778275 c -1.372828,0 -2.489586,1.11676 -2.489586,2.48959 v 1.06696 h -1.42262 v 2.13394 h 1.42262 v 5.69048 h 2.133931 v -5.69048 h 1.778276 l 0.355654,-2.13394 h -2.13393 v -1.06696 c 0,-0.19277 0.16289,-0.35566 0.355655,-0.35566 z"
       inkscape:connector-curvature="0"
       style="fill:#ffffff;fill-opacity:1;stroke-width:0.53348267" />
    <rect
       style="color:#000000;display:inline;overflow:visible;visibility:visible;opacity:1;fill:#2ca9e1;fill-opacity:1;fill-rule:nonzero;stroke:none;stroke-width:1.06696534;stroke-linecap:butt;stroke-linejoin:miter;stroke-miterlimit:4;stroke-dasharray:none;stroke-dashoffset:0;stroke-opacity:1;marker:none;enable-background:accumulate"
       id="rect4136-2-3-8-6-1-0"
       width="17.071445"
       height="17.071445"
       x="-64.931007"
       y="335.38913"
       rx="8.5357227"
       ry="8.5357227" />
    <path
       id="path4436-5-7-9"
       d="m -50.703377,340.52128 c -0.41825,0.18707 -0.869222,0.31155 -1.340108,0.36703 0.482268,-0.28879 0.851438,-0.74687 1.027132,-1.29173 -0.450971,0.26674 -0.951733,0.46235 -1.482371,0.56691 -0.426787,-0.45382 -1.033534,-0.7355 -1.705009,-0.7355 -1.289605,0 -2.333809,1.04492 -2.333809,2.33381 0,0.1821 0.01992,0.35993 0.05975,0.53135 -1.940454,-0.0982 -3.661113,-1.02713 -4.812724,-2.4405 -0.199879,0.34427 -0.315822,0.74687 -0.315822,1.17366 0,0.80947 0.411137,1.52506 1.037801,1.94259 -0.382684,-0.0114 -0.742607,-0.11807 -1.058429,-0.29092 0,0.009 0,0.0199 0,0.0292 0,1.1317 0.804492,2.07632 1.873591,2.28971 -0.19561,0.0533 -0.402602,0.0825 -0.615995,0.0825 -0.150797,0 -0.295905,-0.0156 -0.440301,-0.0419 0.298039,0.92683 1.160147,1.60257 2.180877,1.62249 -0.800224,0.62667 -1.805305,1.00009 -2.900723,1.00009 -0.189208,0 -0.373438,-0.0114 -0.557667,-0.0335 1.035668,0.66437 2.262678,1.04919 3.580736,1.04919 4.29418,0 6.644347,-3.55868 6.644347,-6.64435 0,-0.10243 -0.0021,-0.20201 -0.0064,-0.30231 0.455949,-0.32649 0.851438,-0.73834 1.164414,-1.20709 z"
       inkscape:connector-curvature="0"
       style="fill:#ffffff;stroke-width:0.53348267" />
    <rect
       style="color:#000000;display:inline;overflow:visible;visibility:visible;opacity:1;fill:#1c86bd;fill-opacity:1;fill-rule:nonzero;stroke:none;stroke-width:1.06696534;stroke-linecap:butt;stroke-linejoin:miter;stroke-miterlimit:4;stroke-dasharray:none;stroke-dashoffset:0;stroke-opacity:1;marker:none;enable-background:accumulate"
       id="rect4136-2-6-8-6-6-2"
       width="17.071445"
       height="17.071445"
       x="-24.486382"
       y="335.38913"
       rx="8.5357227"
       ry="8.5357227" />
    <path
       style="fill:#ffffff;stroke-width:0.53348267"
       d="m -19.862868,339.30132 c -0.588965,0 -1.066966,0.478 -1.066966,1.06696 0,0.58897 0.478001,1.06697 1.066966,1.06697 0.588965,0 1.066965,-0.478 1.066965,-1.06697 0,-0.58896 -0.478,-1.06696 -1.066965,-1.06696 z m -1.066966,2.84524 v 6.40179 h 2.133931 v -6.40179 z m 3.556552,0 v 6.40179 h 2.05057 v -3.08975 c 0,-0.81517 0.163903,-1.60462 1.232291,-1.60462 1.052028,0 1.066966,0.9333 1.066966,1.65741 v 3.03696 h 2.051965 v -3.42595 c 0,-1.68225 -0.384068,-2.97584 -2.4618,-2.97584 -0.999396,0 -1.669746,0.5171 -1.943601,1.00861 h -0.02777 v -1.00861 h -1.968611 z"
       id="path4373-2-8-5-3"
       inkscape:connector-curvature="0" />
    <rect
       style="color:#000000;display:inline;overflow:visible;visibility:visible;opacity:1;fill:#ff4500;fill-opacity:1;fill-rule:nonzero;stroke:none;stroke-width:1.06696534;stroke-linecap:butt;stroke-linejoin:miter;stroke-miterlimit:4;stroke-dasharray:none;stroke-dashoffset:0;stroke-opacity:1;marker:none;enable-background:accumulate"
       id="rect4136-2-3-4-84-9-3-7-6"
       width="17.071445"
       height="17.071445"
       x="-352.46057"
       y="-33.029675"
       transform="matrix(0,-1,-1,0,0,0)"
       rx="8.5357227"
       ry="8.5357227" />
    <rect
       style="color:#000000;display:inline;overflow:visible;visibility:visible;opacity:1;fill:#e350bb;fill-opacity:1;fill-rule:nonzero;stroke:none;stroke-width:1.06696534;stroke-linecap:butt;stroke-linejoin:miter;stroke-miterlimit:4;stroke-dasharray:none;stroke-dashoffset:0;stroke-opacity:1;marker:none;enable-background:accumulate"
       id="rect4136-3-5-4-3-7-0"
       width="17.071445"
       height="17.071445"
       x="-4.2640762"
       y="335.38913"
       rx="8.5357227"
       ry="8.5357227" />
    <path
       style="fill:#ffffff;stroke-width:0.53348267"
       inkscape:connector-curvature="0"
       d="m 2.4449654,343.92486 c 0,-1.0091 0.8178133,-1.82736 1.8269121,-1.82736 1.0090988,0 1.8273559,0.81826 1.8273559,1.82736 0,1.0091 -0.8182571,1.82735 -1.8273559,1.82735 -1.0090988,0 -1.8269121,-0.81825 -1.8269121,-1.82735 m -0.9878392,0 c 0,1.5546 1.2601515,2.81475 2.8147513,2.81475 1.5545997,0 2.8147569,-1.26015 2.8147569,-2.81475 0,-1.55461 -1.2601572,-2.81476 -2.8147569,-2.81476 -1.5545998,0 -2.8147513,1.26015 -2.8147513,2.81476 m 5.0831195,-2.92634 c 0,0.36308 0.2944426,0.65798 0.6579677,0.65798 0.3630812,0 0.6579733,-0.2949 0.6579733,-0.65798 0,-0.36308 -0.2944483,-0.65753 -0.6579733,-0.65753 -0.3635251,0 -0.6579677,0.29445 -0.6579677,0.65753 m -4.4831606,7.38823 c -0.534433,-0.0244 -0.8248979,-0.11335 -1.0179418,-0.18862 -0.25593513,-0.0996 -0.43836059,-0.21829 -0.63052816,-0.41002 -0.19171802,-0.19172 -0.31082549,-0.37414 -0.41001627,-0.63007 -0.0752737,-0.19305 -0.16426714,-0.48352 -0.1886224,-1.01796 -0.0265177,-0.57782 -0.0318667,-0.75139 -0.0318667,-2.21522 0,-1.46384 0.005747,-1.63697 0.0318667,-2.21524 0.0243553,-0.53443 0.11379825,-0.82445 0.1886224,-1.01795 0.09963464,-0.25593 0.21829825,-0.43835 0.41001627,-0.63051 0.19172371,-0.19173 0.37414917,-0.31084 0.63052816,-0.41002 0.1930439,-0.0753 0.4835088,-0.16427 1.0179418,-0.18863 0.5778343,-0.0266 0.7514053,-0.0319 2.2147924,-0.0319 1.4638309,0 1.6369581,0.006 2.2152305,0.0319 0.534433,0.0244 0.8244598,0.1138 1.0179532,0.18863 0.2559238,0.0992 0.4383492,0.21829 0.6305168,0.41002 0.1917237,0.19172 0.310393,0.37458 0.4100106,0.63051 0.075279,0.19305 0.1642728,0.48352 0.1886337,1.01795 0.026575,0.57827 0.031867,0.7514 0.031867,2.21524 0,1.46338 -0.00512,1.63696 -0.031867,2.21522 -0.024412,0.53444 -0.1137982,0.82491 -0.1886337,1.01796 -0.099618,0.25593 -0.2182869,0.43835 -0.4100106,0.63007 -0.1917237,0.19173 -0.374593,0.31039 -0.6305168,0.41002 -0.1930496,0.0753 -0.4835202,0.16427 -1.0179532,0.18862 -0.5778286,0.0266 -0.7513996,0.0319 -2.2152305,0.0319 -1.4633871,0 -1.6369581,-0.005 -2.2147924,-0.0319 m -0.045182,-9.91031 c -0.5835817,0.0266 -0.9820918,0.11911 -1.33055984,0.2546 -0.36041804,0.13992 -0.66594,0.32766 -0.97101242,0.63229 -0.30463424,0.30463 -0.49237462,0.61015 -0.63229787,0.97102 -0.13548467,0.34847 -0.22802897,0.74697 -0.25459217,1.33056 -0.02703,0.58447 -0.033176,0.77132 -0.033176,2.25995 0,1.48863 0.00626,1.67548 0.033176,2.25994 0.026575,0.58359 0.1191075,0.9821 0.25459217,1.33056 0.13992325,0.36043 0.32721977,0.66639 0.63229787,0.97102 0.30462856,0.30463 0.61014483,0.49193 0.97101242,0.63229 0.34891184,0.13549 0.74697814,0.22803 1.33055984,0.2546 0.5849132,0.0266 0.771322,0.0332 2.2599463,0.0332 1.4890739,0 1.6754827,-0.006 2.2599521,-0.0332 0.5835873,-0.0266 0.9820861,-0.11911 1.3305598,-0.2546 0.360418,-0.14036 0.66594,-0.32766 0.9710124,-0.63229 0.3046342,-0.30463 0.4919308,-0.61059 0.6322922,-0.97102 0.1354904,-0.34846 0.2284785,-0.74697 0.2545978,-1.33056 0.026575,-0.5849 0.032777,-0.77131 0.032777,-2.25994 0,-1.48863 -0.00626,-1.67548 -0.032777,-2.25995 -0.026574,-0.58359 -0.1191074,-0.98209 -0.2545978,-1.33056 -0.1403614,-0.36042 -0.327658,-0.66594 -0.6322922,-0.97102 -0.3046286,-0.30463 -0.6105944,-0.49237 -0.9705742,-0.63229 -0.3489119,-0.13549 -0.7474107,-0.22847 -1.3305542,-0.2546 -0.5844693,-0.0266 -0.771322,-0.0332 -2.259952,-0.0332 -1.4890682,0 -1.675477,0.006 -2.2603902,0.0332"
       id="path4312-0" />
    <path
       inkscape:connector-curvature="0"
       style="fill:#ffffff;stroke-width:0.93750012"
       d="m 28.291702,338.5156 c -0.107296,-5.3e-4 -0.215191,0.0171 -0.320711,0.0537 -0.209927,0.0728 -0.389848,0.21992 -0.500475,0.40914 -0.01538,0.0263 -0.02982,0.051 -0.03205,0.0546 -0.0031,0.005 -0.135049,-0.021 -0.607629,-0.12119 -1.772025,-0.37563 -1.607534,-0.34201 -1.662874,-0.33987 -0.0438,0.002 -0.05411,0.005 -0.08497,0.0192 -0.04301,0.0212 -0.084,0.0611 -0.103142,0.10045 -0.01134,0.0233 -0.08293,0.35299 -0.352498,1.62324 -0.186052,0.87673 -0.339379,1.59884 -0.340739,1.60469 -0.0026,0.0102 -0.0085,0.0109 -0.137917,0.0171 -0.989207,0.0472 -1.942576,0.28711 -2.751534,0.69227 -0.212178,0.10627 -0.390851,0.21021 -0.58776,0.34188 -0.07029,0.047 -0.128772,0.0854 -0.129974,0.0854 -0.0011,0 -0.0272,-0.0213 -0.05782,-0.0474 -0.184797,-0.1573 -0.420275,-0.26508 -0.664443,-0.30408 -0.07137,-0.0114 -0.250457,-0.0156 -0.328285,-0.008 -0.35499,0.0355 -0.687055,0.2156 -0.907359,0.49206 -0.07909,0.0992 -0.168157,0.2566 -0.207644,0.36684 -0.09277,0.25903 -0.107469,0.52768 -0.04285,0.7834 0.09414,0.37257 0.334683,0.67778 0.675459,0.85703 l 0.06176,0.0325 -0.0065,0.0442 c -0.02999,0.20498 -0.03157,0.47138 -0.0037,0.68685 0.03247,0.25381 0.10677,0.51686 0.21532,0.76231 0.438921,0.99243 1.472559,1.82031 2.825742,2.26323 0.624652,0.20446 1.292574,0.32006 2.000657,0.34624 0.139883,0.005 0.468921,0.003 0.621807,-0.005 1.428866,-0.0711 2.735249,-0.52778 3.663161,-1.28045 0.377021,-0.30581 0.687003,-0.66054 0.89998,-1.02984 0.0912,-0.15817 0.189573,-0.37537 0.244169,-0.53917 0.125273,-0.37582 0.168106,-0.78703 0.12024,-1.15454 -0.0056,-0.0429 -0.01017,-0.0821 -0.01022,-0.087 -6.9e-5,-0.006 0.01792,-0.0181 0.05778,-0.0385 0.06604,-0.0338 0.165976,-0.0991 0.226254,-0.14785 0.05274,-0.0427 0.151794,-0.14172 0.194463,-0.19446 0.150229,-0.18569 0.250104,-0.41349 0.286907,-0.65433 0.01502,-0.0986 0.01634,-0.2771 0.0026,-0.37128 -0.07557,-0.52036 -0.425161,-0.93598 -0.918531,-1.09209 -0.363913,-0.11513 -0.770643,-0.0646 -1.095301,0.13619 -0.05265,0.0326 -0.15084,0.10614 -0.197288,0.14782 -0.02198,0.0198 -0.0321,0.0258 -0.03715,0.0221 -0.05425,-0.0388 -0.255474,-0.16992 -0.325445,-0.212 -0.257539,-0.15489 -0.539903,-0.29527 -0.829935,-0.41258 -0.700652,-0.28342 -1.516831,-0.45823 -2.308977,-0.49458 -0.04221,-0.002 -0.07675,-0.005 -0.07675,-0.006 0,-0.002 0.135808,-0.63856 0.301795,-1.41505 0.165987,-0.7765 0.301796,-1.4139 0.301796,-1.41648 0,-0.003 0.0042,-0.005 0.0091,-0.005 0.0048,3e-5 0.449252,0.0944 0.987205,0.20971 l 0.978088,0.20963 0.0067,0.0621 c 0.04669,0.43184 0.376024,0.77359 0.807167,0.83763 0.0703,0.0104 0.204851,0.0104 0.272455,10e-5 0.277346,-0.0425 0.520493,-0.20172 0.665866,-0.43572 0.110279,-0.17752 0.161144,-0.39539 0.139219,-0.59629 -0.03616,-0.33131 -0.235683,-0.61633 -0.530416,-0.75769 -0.129659,-0.0621 -0.266606,-0.0939 -0.404549,-0.0949 z m -5.906575,5.4976 c 0.05858,-2.7e-4 0.11927,0.004 0.163146,0.011 0.198964,0.0341 0.365989,0.11969 0.507853,0.26032 0.117363,0.11633 0.194691,0.2438 0.241055,0.39737 0.02503,0.083 0.03484,0.14511 0.038,0.24067 0.0053,0.1579 -0.02345,0.29832 -0.08891,0.43624 -0.08286,0.17461 -0.229985,0.32953 -0.404257,0.42565 -0.08082,0.0446 -0.19615,0.0835 -0.296315,0.10019 -0.05993,0.01 -0.196228,0.014 -0.249761,0.007 -0.113719,-0.0138 -0.20786,-0.041 -0.305885,-0.0883 -0.243641,-0.11745 -0.420143,-0.32285 -0.497434,-0.5788 -0.02472,-0.0819 -0.03479,-0.14453 -0.03811,-0.23835 -0.0058,-0.16302 0.02245,-0.29669 0.09413,-0.44466 0.137005,-0.28277 0.398002,-0.47354 0.712615,-0.52089 0.03411,-0.005 0.07834,-0.008 0.123897,-0.008 z m 4.180139,0.0139 c 0.142108,-2.1e-4 0.187106,0.006 0.300505,0.0442 0.30033,0.1 0.532682,0.34722 0.612214,0.65148 0.02535,0.097 0.0291,0.12869 0.02888,0.24337 -2.47e-4,0.12032 -0.0072,0.17128 -0.03678,0.26935 -0.04549,0.15054 -0.116635,0.27076 -0.228173,0.38552 -0.157097,0.16165 -0.352613,0.25714 -0.576269,0.28144 -0.04733,0.005 -0.143257,0.006 -0.178431,0.002 -0.196936,-0.0234 -0.345219,-0.0804 -0.485881,-0.18663 -0.207924,-0.15709 -0.339681,-0.38818 -0.370544,-0.64991 -0.0077,-0.0652 -0.0031,-0.20305 0.0084,-0.26835 0.06092,-0.33906 0.303509,-0.61939 0.630133,-0.72812 0.114953,-0.0383 0.154445,-0.0441 0.296035,-0.0443 z m -4.136921,3.0207 c 0.0224,1.9e-4 0.03721,0.003 0.05847,0.009 0.04185,0.0129 0.06656,0.0295 0.133643,0.09 0.09868,0.089 0.185793,0.14706 0.325876,0.21699 0.569576,0.28434 1.47704,0.38276 2.281676,0.24745 0.516924,-0.0869 0.902456,-0.24534 1.143369,-0.46988 0.05877,-0.0548 0.07978,-0.069 0.124545,-0.0841 0.02694,-0.009 0.04195,-0.0107 0.08235,-0.009 0.04238,0.002 0.05453,0.004 0.08507,0.0187 0.04791,0.0225 0.07392,0.0441 0.09805,0.0814 0.03162,0.0489 0.04247,0.0919 0.03953,0.15704 -0.0026,0.0506 -0.0037,0.0569 -0.02387,0.0974 -0.01744,0.0352 -0.02989,0.0514 -0.06721,0.0874 -0.189219,0.18241 -0.463556,0.33898 -0.788141,0.44981 -0.337608,0.11528 -0.740601,0.18726 -1.177625,0.21035 -0.08784,0.005 -0.394509,0.006 -0.463098,0.002 -0.301548,-0.0176 -0.514816,-0.0434 -0.746662,-0.0902 -0.530364,-0.10717 -0.923116,-0.27853 -1.21336,-0.52936 -0.09922,-0.0858 -0.132162,-0.13225 -0.145121,-0.2048 -0.01834,-0.10263 0.03837,-0.2082 0.138365,-0.25762 0.03599,-0.0178 0.04522,-0.02 0.08869,-0.022 0.0096,-4.2e-4 0.01797,-5.2e-4 0.02551,-5.2e-4 z"
       id="path234" />
    <rect
       style="color:#000000;display:inline;overflow:visible;visibility:visible;opacity:1;fill:#29445d;fill-opacity:1;fill-rule:nonzero;stroke:none;stroke-width:1.06696534;stroke-linecap:butt;stroke-linejoin:miter;stroke-miterlimit:4;stroke-dasharray:none;stroke-dashoffset:0;stroke-opacity:1;marker:none;enable-background:accumulate"
       id="rect4136-2-3-4-84-9-3-7-6-6"
       width="17.071445"
       height="17.071445"
       x="-352.4606"
       y="-53.502129"
       transform="matrix(0,-1,-1,0,0,0)"
       rx="8.5357227"
       ry="8.5357227" />
    <path
       id="path1140-6-2"
       d="m 44.222521,339.80574 c 0,1.71154 -1.39021,2.32922 -1.39021,2.32922 v 1.09753 h 0.865832 v 3.42675 c 0,1.59581 1.890199,1.5894 3.402361,1.08534 v -1.30485 c -1.312979,0.76983 -1.999954,0.29063 -1.999954,-0.6951 v -2.51214 h 1.81703 v -1.28045 h -1.81703 v -2.1463 z"
       style="opacity:1;vector-effect:none;fill:#ffffff;fill-opacity:1;fill-rule:nonzero;stroke:none;stroke-width:0.19511735;stroke-linecap:butt;stroke-linejoin:round;stroke-miterlimit:4;stroke-dasharray:none;stroke-dashoffset:0;stroke-opacity:1"
       inkscape:connector-curvature="0" />
  </g>
</svg>
